<svg version="1.1" xmlns="http://www.w3.org/2000/svg" xmlns:xlink="http://www.w3.org/1999/xlink" width="224.38197" height="241.91974" viewBox="0,0,224.38197,241.91974"><g transform="translate(-207.80903,-59.04011)"><g stroke="none" stroke-miterlimit="10"><path d="M260.01898,94.3791c-0.82085,-0.11098 -2.37081,-0.5819 -3.8652,-1.23921c-0.17057,0.03676 -0.34761,0.05611 -0.52916,0.05611c-0.10417,0 -0.20685,-0.00637 -0.30767,-0.01874c-0.54356,0.0607 -0.96194,-0.02298 -0.96194,-0.02298c-5.84666,-1.19854 -15.16764,-1.53447 -18.4543,4.69722c-1.41081,2.67496 -0.90746,5.77388 -0.90164,8.61235c0.00221,1.0775 -0.17314,4.91734 0.36955,6.11957c1.69582,3.75673 7.83092,6.8076 11.89065,8.38077c0.09285,0.02309 0.18559,0.04668 0.27823,0.07073v-0.2926h3.68477c1.55454,0 2.81475,1.26021 2.81475,2.81475c0,1.3836 -0.99828,2.53403 -2.31386,2.77031l-3.01951,0.6039l-0.0705,-0.35253l-0.65641,0.40176c-0.37715,-0.12093 -0.76549,-0.24975 -1.16283,-0.38651c-2.0608,0.39363 -4.44995,-0.95655 -6.50871,-0.32432c-1.81592,0.55767 -3.61926,1.52134 -4.88124,2.94119c-3.95523,4.45006 -3.55684,9.46109 -3.50082,14.88039c0.69317,-0.73294 1.44583,-1.31891 2.25466,-1.64022c1.66675,-0.66211 3.58403,-0.14284 5.37605,-0.21426c2.46274,0 9.41886,-0.09255 10.41717,0.66704c4.9828,3.79129 0.02928,11.35266 -3.58367,13.23875c-4.14075,2.16161 -10.4,2.38688 -15.05838,0.19861c-0.87104,2.28418 -0.91568,4.14294 -0.65875,7.27249c5.73364,-0.86951 13.30103,0.24358 18.11809,2.86726c1.3713,0.7469 3.27305,0.88026 4.15067,2.17181c0.79901,1.17585 0.58295,8.78621 -0.34047,9.70963c-1.48085,1.48085 -9.13719,0.97932 -11.34569,0.82076c-4.79604,-0.34431 -8.29039,-0.38402 -12.21967,-3.82623c-1.30206,-1.14066 -2.1823,-2.56399 -2.77572,-4.13504c-1.684,1.18276 -4.16,2.5665 -5.08773,4.60857c-1.43239,3.15293 -1.84271,6.67797 -2.88102,9.98168c-2.39681,7.62614 -4.372,14.6256 -4.79112,22.69408c-0.143,2.75278 -0.49245,7.37713 1.14326,10.35928c1.71676,-3.62843 4.44687,-7.58972 7.25446,-8.86041c1.26128,-0.57084 2.7652,-0.14284 4.1478,-0.21426c1.53882,0.05289 3.1947,-0.43238 4.61646,0.15867c4.75824,1.97807 7.61862,8.85466 5.27066,13.74092c-2.41455,5.02483 -10.0147,3.43861 -14.18601,3.39834c-1.16062,-0.0112 -2.34873,0.15399 -3.50723,0.11331c-0.03293,1.88872 0.1939,3.80682 0.18057,5.69638c-0.06227,8.82421 -0.73421,16.70944 2.91507,24.8732c0.46584,1.04212 1.76698,5.37691 3.59979,6.40501c0.81107,0.45497 5.22944,0.27188 5.40958,0.27153c2.86592,-0.00554 5.73186,-0.00472 8.59778,0c0.1424,0.00024 0.28482,0.00029 0.42723,0.00026c-0.03683,-2.59494 0.23681,-5.07227 1.25414,-6.81839c1.24229,-2.13224 2.54317,-5.19188 4.99594,-5.46334c2.10881,-0.23339 3.06523,2.93437 4.59785,4.40155c0.0293,4.34432 0.69318,8.41457 -2.65695,12.1907c-0.53078,0.59828 -1.28893,0.86412 -2.11278,1.00991c-0.04318,2.81777 -0.24697,5.6689 0.49262,8.36413c1.08174,3.94216 6.27833,8.82468 9.10643,11.52632c9.67078,9.23837 21.44343,4.63361 32.02376,-0.30609c2.5767,-1.203 5.04128,-2.41051 7.3725,-3.81048c-1.05675,-3.15341 -0.95095,-9.46814 -0.58318,-12.29421c0.3281,-2.52122 -0.17239,-5.59622 1.54736,-7.46884c2.80565,-3.05505 7.72428,0.07877 9.4946,2.05459c4.33319,4.83617 2.43127,10.03244 0.9733,15.55453c-1.08413,1.11151 -2.21866,2.16047 -3.39737,3.15087c2.7882,1.77425 6.78789,2.78799 9.05117,3.6184c3.4449,1.26397 8.82714,3.3085 12.63993,2.02797c4.24498,-1.42569 4.15817,-3.56283 7.36258,-6.53263c1.04719,-0.97052 2.62005,-1.32142 3.53698,-2.41583c0.66407,-0.79261 1.20251,-1.66886 1.63993,-2.6013c-1.07717,-1.09206 -2.02596,-2.32076 -2.75461,-3.78555c-0.58826,-1.18256 -0.16097,-2.63765 -0.17985,-3.95831c-0.04692,-3.28189 0.47988,-6.5781 1.2646,-9.76514c0.50162,-2.03727 -0.63499,-5.1622 1.20038,-6.17882c8.93183,-4.94746 8.06031,9.19871 8.06161,12.10898c-0.1088,3.22604 -0.34165,6.55936 -1.12152,9.73403c1.26172,0.95651 2.51559,1.8043 3.31499,2.39947c6.82139,5.07868 13.61054,5.99827 21.83265,7.23933c3.63156,0.54816 8.78718,1.66931 12.37093,0.6773c4.29184,-1.18802 6.37934,-4.87588 8.26735,-8.54287c-0.56195,-0.68559 -1.07956,-1.47957 -1.54761,-2.39857c-0.72109,-1.41587 -0.24361,-3.17328 -0.21426,-4.76193c0.03945,-2.13518 -0.93168,-4.73981 0.42038,-6.39282c6.5985,-8.06721 8.71371,-1.45207 10.09494,3.5459c0.81383,2.94485 -0.58304,5.65952 -1.46055,8.32402c1.54793,0.38425 3.27735,0.31031 4.81428,0.30593c2.14365,-0.0061 5.68041,0.44424 7.78448,-0.83946c3.67205,-2.24031 2.74406,-2.78149 3.61572,-6.26381c1.47491,-5.89237 1.6499,-13.84374 -2.84794,-17.92477c-0.36975,-0.03113 -0.7332,-0.05422 -1.08036,-0.04884c-2.29796,0.03562 -4.96461,0.96034 -6.88829,-0.29716c-0.36781,-0.24044 -0.67045,-0.53881 -0.92645,-0.87866l-0.06656,0.04992l-1.82532,-2.43377c-0.36379,-0.47427 -0.58001,-1.06768 -0.58001,-1.71159c0,-1.55454 1.26021,-2.81475 2.81475,-2.81475h3.07064v0.07337l0.23842,-0.06325c1.55589,0.2974 3.26623,0.15382 4.66767,0.89219c0.70869,0.37338 1.37452,0.77463 1.99916,1.20138c0.30883,-0.84695 0.28105,-1.88346 0.44847,-2.78087c0.66395,-3.55886 1.30986,-7.12583 1.74099,-10.72033c0.06612,-0.55135 0.12955,-1.10416 0.18769,-1.65798c-2.11758,0.64479 -4.40181,0.86968 -5.9474,-0.22279c-5.82891,-4.12003 -1.68347,-14.79868 4.30476,-16.17877c3.99995,-0.92185 6.12578,3.11429 7.02426,6.19044c3.6531,-4.74638 4.42825,-11.74616 4.63031,-17.57351c0.03965,-2.56042 -0.12425,-7.75156 -2.68116,-9.46157c-0.03802,-0.02543 -0.07625,-0.05047 -0.11465,-0.07515c-2.88707,1.21624 -6.15754,1.93645 -8.82294,-0.33554c-0.32597,-0.27786 -0.59129,-0.59808 -0.81149,-0.94979l-0.0658,0.03947l-1.81858,-3.03097c-0.26932,-0.43166 -0.42493,-0.94158 -0.42493,-1.48784c0,-1.55454 1.26021,-2.81475 2.81475,-2.81475c0.20911,0 0.4129,0.0228 0.60901,0.06606l3.01364,0.60273l-0.01511,0.07553l0.24714,-0.01878c0.92817,0.35358 2.98638,1.13035 4.90605,1.88013c0.63244,-0.36266 1.2618,-0.73579 1.92648,-1.02092c0.5932,-0.25446 1.56468,0.03699 1.86057,-0.53667c0.67642,-1.31139 0.37579,-2.92991 0.67297,-4.37524c0.58239,-2.83243 1.10514,-5.70599 1.16006,-8.59715c0.01395,-0.73471 0.44578,-1.53293 0.13797,-2.20019c-0.60032,-1.30139 -1.71542,-2.28952 -2.62574,-3.40377c-0.8264,0.01661 -1.6413,-0.09477 -2.4535,-0.28842l-0.01159,0.08106l-4.29889,-0.61412l0.13555,-0.9488c-0.78894,-0.32507 -1.58901,-0.65408 -2.40778,-0.94756l1.48279,-2.07762l-0.80281,-0.80281l2.45651,-2.45651l0.39241,0.39241l0.78225,-1.09605c1.7772,0.29758 3.75997,0.01128 5.3316,0.89274c0.53747,0.30145 0.99595,0.70428 1.41049,1.16128c1.61349,-1.54882 1.10254,-4.2874 1.08487,-6.11544c-0.06331,-6.55054 0.34456,-10.78256 -4.6804,-15.7973c-1.46246,-1.45948 -3.61536,-2.80308 -5.42404,-3.78971c-1.34042,-0.73121 -3.34273,-0.74091 -4.08308,-2.07631c-2.15816,-3.89275 1.92708,-15.1482 -4.41036,-16.10514c-0.8368,-0.12636 -1.69223,0.03386 -2.53834,0.05079h-2.45651c0,0 -0.25626,0 -0.61412,-0.07732c-0.35787,0.07732 -0.61412,0.07732 -0.61412,0.07732c-1.96483,-0.00964 -3.90484,0.44979 -5.86392,0.60043c-0.63436,0.04879 -1.2955,-0.1626 -1.93423,-0.23714c-0.14198,0.13406 -0.29182,0.26124 -0.44986,0.38102c-0.50975,0.38635 -1.12331,0.50984 -1.77675,0.53236c-0.53185,0.55222 -1.00777,1.20182 -1.68302,1.53056c-1.1382,0.55411 -2.47168,0.54858 -3.70751,0.82288l-1.78027,0.05466c0,0 -2.81475,0 -2.81475,-2.81475l-0.00015,0.00002c0,-1.7046 1.03229,-2.3769 1.84659,-2.64206c0.1209,-2.6292 2.81055,-2.6292 2.81055,-2.6292h2.45651c0.33189,0.10761 0.60724,0.16177 0.83443,0.16884c0.27288,-0.15998 0.55046,-0.30805 0.8357,-0.43601c0.31096,-0.64108 0.03986,-1.91506 -0.16489,-3.32957c-0.35549,-2.45592 -1.79788,-4.6747 -3.20211,-6.72068c-0.54223,-0.79006 -0.62639,-1.91384 -1.35638,-2.53459c-0.81898,-0.69641 -2.18254,-0.48002 -3.00414,-1.17336c-1.01445,-0.85608 -1.21755,-2.46074 -2.26636,-3.27434c-4.99991,-3.87865 -13.20308,-3.75968 -19.4519,-2.24626l0.88724,2.21811c0.14485,0.33916 0.22502,0.71254 0.22502,1.10464c0,1.55454 -1.26021,2.81475 -2.81475,2.81475c-0.77728,0 -1.48096,-0.31505 -1.99033,-0.82442l-2.45651,-2.45651l0.1827,-0.1827c-0.38868,-0.34928 -0.71443,-0.75493 -0.94964,-1.24168c-0.11332,-0.23451 -0.18496,-0.47813 -0.22098,-0.72782c-3.14892,-1.5558 -6.50951,-1.32685 -10.16885,-1.32195c0.42496,2.19466 0.61125,4.35963 -0.21871,6.24328c-1.61653,3.66884 -4.91904,4.76471 -8.51063,4.80111c-1.78507,0.01809 -4.03084,0.44747 -5.29313,-0.81483c-1.2623,-1.2623 -0.82102,-3.50798 -0.81483,-5.29313c0.01178,-3.39811 1.25191,-6.96931 4.35565,-8.8922c1.14006,-0.70631 2.45843,-1.04436 3.80213,-1.28563c-0.11027,-0.64512 -0.18072,-1.273 -0.1837,-1.87256c0,0 0,-1.02469 0.61827,-1.83756l0.00546,-1.61504c-0.56913,-4.79938 -4.92421,-6.7465 -9.70111,-6.04241c-7.65909,1.12893 -12.46037,6.76007 -16.99063,12.4015c2.57277,3.88622 4.11044,8.72163 4.06178,12.4467c-0.01808,1.38433 0.4206,2.9175 -0.21426,4.1478c-1.46131,2.83183 -6.00429,6.57329 -9.66143,3.7395c-2.03099,-1.57375 -2.74899,-4.41153 -3.49493,-6.87022c-0.92799,-3.05872 0.14759,-8.2361 0.57801,-11.21718c-2.08671,0.89331 -4.55489,0.99172 -7.21772,0.7323c-1.70117,-0.16573 -4.05887,0.56023 -5.06097,-0.82442c-5.23296,-7.23061 3.835,-9.46378 8.30651,-9.09854c1.12519,0.09191 2.28079,0.11375 3.40691,0.25297c-0.02803,-1.43082 -0.25529,-2.86596 -0.25529,-3.58494c0.03144,-1.60156 0.48706,-3.25171 0.09429,-4.80469c-0.36127,-1.42843 -1.59996,-2.48069 -2.26888,-3.7935c-1.3653,-2.67953 -0.85055,-4.11188 -3.76894,-6.14907c-2.13935,-1.49338 -5.21414,-0.25011 -7.82316,-0.24769c-2.65048,0.00247 -5.40534,-0.81299 -7.95109,-0.0753c-1.29312,0.37471 -2.3061,1.46637 -3.60456,1.8222c-2.77562,0.76062 -5.92805,0.23923 -8.49546,1.53962c-4.15774,2.1059 -4.79848,8.1254 -4.56401,12.03397c0.09717,1.61966 -0.2923,3.32953 0.24164,4.86174c0.49594,1.42315 1.80862,2.41124 2.71295,3.61685c0,0 1.63605,2.29045 -0.65442,3.9265c-0.06256,0.04469 -0.12464,0.08645 -0.1862,0.1254c-1.15084,1.14937 -3.23955,1.79836 -4.93565,1.56904zM257.786,87.0493c-0.70662,-2.01053 -0.38996,-4.2444 -0.56053,-6.36866c-0.4822,-6.00483 1.31264,-14.11468 7.29247,-17.26808c2.99492,-1.57933 6.66536,-1.24154 9.92837,-2.14515c1.34938,-0.37368 2.40953,-1.51152 3.76498,-1.86257c2.98316,-0.77262 6.16289,-0.07804 9.24449,-0.0753c1.88707,0.00168 8.55512,-0.37354 10.60066,0.98057c4.90912,3.24974 4.07456,4.57974 6.0571,8.58999c0.8101,1.63865 2.20458,3.02998 2.64414,4.80429c0.50099,2.02231 0.06286,4.16641 0.09429,6.24961c0,0.43876 0.02332,3.73193 -0.0311,5.87086c0.01947,0.01528 0.03891,0.03062 0.05832,0.04603c2.28034,-2.99205 4.72253,-5.85554 7.70834,-8.13549c7.31161,-5.58313 22.10569,-9.65619 27.57187,0.93062c0.73838,1.43009 0.611,3.16039 0.91651,4.74058l0.00959,3.3028c0,0 0,0.95645 -0.55753,1.75428c0.00122,0.01238 0.00245,0.02477 0.0037,0.03717c4.56803,-0.23367 10.35008,0.29636 13.65782,1.80205c0.1042,0.04743 0.20648,0.09799 0.30703,0.15135c1.0944,-0.93985 2.69867,-1.28357 4.12228,-1.59578c2.6752,-0.58668 9.11008,-0.43927 11.93051,-0.0297c3.27221,0.47518 8.89849,2.23657 11.51304,4.14399c1.04491,0.7623 1.19559,2.37308 2.18409,3.20724c0.86345,0.72864 2.29514,0.52984 3.13714,1.28316c1.06646,0.95413 1.4998,2.44 2.32839,3.60669c0.83844,1.18057 2.07287,2.10816 2.66786,3.42828c0.99916,2.21693 1.94176,6.01708 1.69402,9.4121c1.86737,-0.22337 3.73112,-0.52975 5.60969,-0.53744c0,0 0.25626,0 0.61412,0.07732c0.35787,-0.07732 0.61412,-0.07732 0.61412,-0.07732h2.45651c1.20098,0.01693 2.43188,-0.21618 3.60293,0.05079c1.48108,0.33766 3.03001,0.78169 4.21542,1.73164c4.4433,3.56068 3.69754,7.4563 3.73592,12.45201c0.0105,1.36767 -0.63155,2.85117 -0.07915,4.10237c0.28178,0.63824 1.42046,0.0973 2.0582,0.38021c1.21717,0.53995 2.33644,1.28862 3.42676,2.05297c2.73258,1.91564 5.52154,4.43393 7.23133,7.32153c3.11887,5.26734 2.62219,9.48779 2.57432,15.25569c-0.0331,3.9876 0.43918,7.49621 -3.2923,10.59882c0.98483,1.21551 1.94367,2.45447 2.5402,3.88392c1.54564,3.70368 -0.26159,10.2982 -1.17257,13.83117c-0.56996,2.21044 -0.52866,4.69959 -1.76944,6.61566c-0.51191,0.79052 -1.41313,1.17269 -2.34349,1.51263c2.47107,3.33696 2.92403,8.46343 2.96649,12.12568c-0.34858,9.00544 -2.09617,19.08239 -9.63808,24.66342c-0.24092,3.73682 -1.09733,7.58348 -1.65808,10.99546c-0.31908,1.94146 -0.23096,3.97006 -0.83161,5.84363c-0.54111,1.68786 -0.98063,3.56287 -1.85437,5.10331c4.61196,5.90986 4.84283,14.1261 2.83832,21.60255c-1.39117,5.18885 -0.64677,6.13978 -6.21033,9.70351c-3.19651,2.04752 -7.13174,1.62522 -10.63936,1.61705c-2.7308,-0.00635 -5.30941,-0.18929 -7.58253,-1.03545c-2.62648,4.68032 -5.47544,9.02113 -11.34711,10.76719c-4.23642,1.25978 -10.35903,0.08991 -14.65069,-0.55096c-9.17394,-1.36995 -16.72465,-2.6444 -24.35197,-8.28544c-0.67079,-0.49611 -1.35155,-0.98067 -2.0279,-1.46928c-0.50544,0.92354 -1.09242,1.81472 -1.77473,2.66485c-1.03657,1.29152 -2.81159,1.78597 -4.02307,2.91506c-3.02253,2.81697 -5.7344,6.4477 -9.64248,7.78855c-4.91542,1.68648 -11.56568,-0.53547 -16.06844,-2.16335c-3.63067,-1.3126 -8.39227,-2.7542 -11.75509,-5.45127c-6.29254,4.17871 -13.46601,7.0638 -20.78488,9.13255c-4.9154,1.38938 -10.00864,2.65434 -15.15503,1.15153c-6.30348,-1.84071 -10.47305,-6.2178 -14.62165,-10.96034c-2.42288,-2.76976 -5.65198,-5.88425 -6.7444,-9.59069c-0.56412,-1.91396 -0.28581,-3.98054 -0.41013,-5.97204c-0.06165,-0.98762 -0.19192,-2.16149 -0.32781,-3.43241c-3.13897,0.08901 -6.43616,-0.24216 -9.45959,-0.24757c-2.28004,-0.00409 -5.99278,0.26415 -8.10123,-0.95672c-3.63989,-2.10762 -4.43228,-5.4682 -6.04371,-9.04343c-4.04571,-8.97611 -3.47724,-17.56609 -3.40875,-27.23242c0.00752,-1.06071 0.10055,-5.14637 0.16926,-7.62251c-5.01081,-3.69217 -5.36424,-11.12121 -5.07532,-17.11548c0.40741,-8.45253 2.52134,-15.98225 5.03493,-23.97962c0.3107,-0.98854 3.02548,-10.42407 3.26025,-10.89865c1.73952,-3.51622 4.43648,-4.83322 7.48802,-7.02629c0.50052,-0.20066 0.99399,-0.42498 1.48569,-0.65531c-0.13666,-1.9929 -0.09497,-3.98025 -0.08039,-5.75669c0.01019,-1.2422 -0.26745,-2.53248 0.07734,-3.72591c0.36984,-1.28016 1.02883,-2.45168 1.69007,-3.61876c-1.44494,-3.33229 -0.55802,-10.27091 -0.53915,-12.92156c0.05109,-7.17577 3.50304,-14.67285 10.2723,-17.83557c-2.76305,-1.85914 -5.1161,-4.12197 -6.34296,-6.81018c-1.05786,-2.31791 -0.86316,-5.92163 -0.8587,-8.41478c0.00737,-4.11453 -0.51061,-7.45736 1.55486,-11.24444c4.71815,-8.6508 16.00281,-9.25606 24.53463,-7.58533c0,0 0.37548,0.0751 0.82177,0.30838h1.90074c-0.15289,-0.28703 -0.28679,-0.58371 -0.39555,-0.89317zM413.71978,226.77616c-0.0147,-0.49039 -0.04099,-0.98023 -0.08064,-1.46924c-0.0654,-0.80676 -0.35848,-1.58353 -0.64045,-2.34223c-0.11248,-0.30263 -0.26371,-0.99094 -0.5311,-0.80998c-0.85445,0.57823 -3.2725,4.81793 -1.83652,5.92984c0.26885,0.20818 0.61595,-0.28833 0.92666,-0.42647c0.70976,-0.31553 1.44695,-0.57722 2.16204,-0.8819zM392.41518,270.0553c0.0457,-0.27053 0.09556,-0.54669 0.15126,-0.82997c0.04902,-0.24924 -0.17297,0.49219 -0.157,0.74571c0.00177,0.0281 0.00368,0.05618 0.00573,0.08426zM299.51847,281.93208c0.49328,-0.41993 0.97844,-0.85809 1.45522,-1.31685c0.41922,-1.83535 1.41773,-5.03052 0.96503,-7.07374c-0.16506,-0.74495 -0.73368,-1.34887 -1.21999,-1.93684c-0.34885,-0.42177 -0.878,-0.66174 -1.25639,-1.05722c-0.1494,-0.15614 -0.30445,-0.78905 -0.30332,-0.57296c0.01351,2.57845 0.32443,5.15021 0.3234,7.72869c-0.00027,0.67653 -0.0476,2.66833 0.03604,4.22893zM219.40114,221.74657c2.5866,0.25274 5.25377,-0.33269 7.8701,-0.28728c1.21148,0.02103 3.41965,0.90794 3.62369,-0.28643c0.71388,-4.17894 -1.00117,-5.97443 -4.85195,-5.7525c-2.93183,-0.31512 -5.33888,3.15862 -6.64185,6.3262zM231.80268,169.65503c0.27944,0.65774 0.63127,1.22008 1.07628,1.5909c3.25149,2.70948 7.68401,2.31377 11.58786,2.3114c1.02355,-0.00062 2.0667,-0.1994 3.07064,0c0.4443,0.08825 0.76001,1.14473 1.08031,0.82442c0.32031,-0.32031 -0.76499,-0.63124 -0.82442,-1.08031c-0.06861,-0.51851 0.82217,-1.09364 0.48395,-1.49261c-0.43344,-0.51129 -1.37359,-0.02283 -1.9906,-0.2847c-0.93766,-0.39795 -1.5977,-1.35164 -2.57122,-1.65135c-0.78908,-0.24292 -1.65103,0.15098 -2.47494,0.09783c-3.82543,-0.24682 -6.52283,-0.65759 -9.43784,-0.31558zM243.7746,151.15611c1.69414,-0.77919 1.61027,-1.08326 2.19266,-2.72228c0.14368,-0.40436 0.78801,-1.16273 0.36494,-1.23455c-2.23836,-0.38 -4.50802,0.66704 -6.77841,0.66704c-1.07391,-0.07142 -2.18985,-0.52023 -3.22173,-0.21426c-1.49452,0.44315 -2.16387,2.00528 -2.76396,3.62195c3.01221,1.50633 7.60896,1.07679 10.2065,-0.1179zM338.24619,94.58741c-0.70313,0.12218 -1.37569,0.31929 -1.98245,0.63225c-2.0285,1.04628 -1.23168,2.94024 -1.78563,4.61861c-0.00699,0.02117 -0.01671,0.04177 -0.02879,0.06187c0.02016,-0.01202 0.04085,-0.02166 0.0621,-0.02855c0.78708,-0.25502 3.33826,0.2105 3.77193,-1.34017c0.33081,-1.18287 0.22735,-2.53405 -0.03715,-3.94401zM334.26118,100.08799c-0.31136,0.22637 -0.80609,0.39024 -0.5979,0.59843c0.20811,0.20811 0.37156,-0.28734 0.5979,-0.59843zM307.1949,95.0363c-0.25488,2.38391 -0.62584,5.01705 -0.24516,7.38907c0.18932,1.17966 0.55748,2.34288 1.07779,3.41839c0.2644,0.54651 1.24804,-0.58394 1.39286,-1.17353c0.60155,-2.44883 -0.43112,-6.34542 -2.22548,-9.63394z" fill="#7631ff" stroke-width="0.5"/><path d="M259.99025,94.33819c1.6961,0.22932 3.78681,-0.421 4.93765,-1.57037c0.06156,-0.03895 0.12373,-0.08077 0.18629,-0.12546c2.29047,-1.63605 0.65549,-3.92715 0.65549,-3.92715c-0.90433,-1.20561 -2.2172,-2.19359 -2.71314,-3.61674c-0.53394,-1.53221 -0.14361,-3.24259 -0.24078,-4.86225c-0.23447,-3.90857 0.40985,-9.92994 4.56759,-12.03584c2.56741,-1.30039 5.723,-0.78036 8.49862,-1.54098c1.29846,-0.35583 2.31299,-1.44806 3.60611,-1.82277c2.54575,-0.73769 5.3036,0.07682 7.95408,0.07435c2.60902,-0.00242 5.6869,-1.24646 7.82625,0.24692c2.91839,2.03719 2.4047,3.46932 3.77,6.14885c0.66892,1.31281 1.90831,2.36494 2.26958,3.79337c0.39277,1.55298 -0.04483,3.30149 -0.07627,4.90305c0,0.71898 0.22747,2.15408 0.2555,3.5849c-1.12612,-0.13922 -2.28009,-0.1614 -3.40528,-0.25331c-4.47151,-0.36524 -13.5342,1.86642 -8.30124,9.09703c1.0021,1.38465 3.32949,0.56343 5.03066,0.72916c2.66283,0.25942 5.1349,0.16005 7.22161,-0.73326c-0.43042,2.98108 -1.4841,8.25602 -0.55611,11.31474c0.74594,2.45869 1.4415,5.19903 3.47249,6.77278c3.65714,2.83379 8.20707,-0.90867 9.66838,-3.7405c0.63486,-1.2303 0.20318,-2.66372 0.22126,-4.04805c0.04866,-3.72507 -1.49746,-8.66011 -4.07023,-12.54633c4.53026,-5.64143 9.34047,-11.27269 16.99956,-12.40162c4.7769,-0.70409 9.13714,1.2437 9.70627,6.04308l-0.02355,1.71339c-0.61827,0.81287 -0.60017,1.73921 -0.60017,1.73921c0.00298,0.59956 0.0552,1.32576 0.16547,1.97088c-1.3437,0.24127 -2.66016,0.57964 -3.80022,1.28595c-3.10374,1.92289 -4.34203,5.49433 -4.35381,8.89244c-0.00619,1.78515 -0.43556,3.93155 0.82674,5.19385c1.26229,1.2623 3.51155,0.8335 5.29662,0.81541c3.59159,-0.0364 6.89845,-1.13119 8.51498,-4.80003c0.82996,-1.88365 0.64282,-4.04887 0.21786,-6.24353c3.65934,-0.0049 7.02525,-0.23204 10.17417,1.32376c0.03602,0.24969 0.10791,0.49341 0.22123,0.72792c0.23521,0.48675 0.56166,0.89269 0.95034,1.24197l-0.18275,0.18268l2.45819,2.45726c0.50937,0.50937 1.21415,0.82496 1.99143,0.82496c1.55454,0 2.76936,-1.17111 2.76936,-2.72565c0,-0.3921 -0.07983,-0.76531 -0.22468,-1.10447l-0.84277,-2.30768c6.24882,-1.51342 14.45977,-1.62771 19.45968,2.25094c1.04881,0.8136 1.25339,2.41939 2.26784,3.27547c0.8216,0.69334 2.18633,0.47791 3.00531,1.17432c0.72999,0.62075 0.81515,1.7454 1.35738,2.53546c1.40423,2.04598 2.84915,4.26717 3.20464,6.72309c0.20475,1.41451 0.47675,2.68943 0.16579,3.33051c-0.28524,0.12796 -0.63604,0.34414 -0.90892,0.50412c-0.22719,-0.00707 -0.50229,-0.06096 -0.83418,-0.16857l-2.45588,0.00065c0,0 -2.61832,-0.07008 -2.73922,2.55912c-0.8143,0.26516 -1.84635,0.93771 -1.84635,2.64231l0.00015,-0.00002c0,2.81475 2.81632,2.81645 2.81632,2.81645l1.7807,-0.05417c1.23583,-0.2743 2.56995,-0.26801 3.70815,-0.82212c0.67525,-0.32874 1.15113,-0.97838 1.68298,-1.5306c0.65344,-0.02252 1.26724,-0.14572 1.77699,-0.53207c0.15804,-0.11978 0.30788,-0.24696 0.44986,-0.38102c0.63873,0.07454 1.30033,0.2865 1.93469,0.23771c1.95908,-0.15064 3.90004,-0.60883 5.86487,-0.59919c0,0 0.25634,0.00012 0.61421,-0.0772c0.35786,0.07732 0.61424,0.07749 0.61424,0.07749l2.45692,0.00056c0.84611,-0.01693 1.70192,-0.1766 2.53872,-0.05024c6.33744,0.95694 2.25608,12.21905 4.41424,16.1118c0.74035,1.3354 2.74339,1.34667 4.08381,2.07788c1.80868,0.98663 3.96257,2.33263 5.42503,3.79211c5.02496,5.01474 4.61924,9.25401 4.68255,15.80455c0.01767,1.82804 0.52912,4.56927 -1.08437,6.11809c-0.41454,-0.457 -0.97165,-0.84338 -1.50912,-1.14483c-1.57163,-0.88146 -3.55424,-0.59428 -5.33144,-0.89186l-0.68396,1.07766l-0.39245,-0.39264l-2.45633,2.45751l0.80289,0.80328l-1.48265,2.07857c0.81877,0.29348 1.61892,0.62313 2.40786,0.9482l-0.13549,0.94927l4.29895,0.61466l0.01159,-0.0811c0.8122,0.19365 1.62713,0.30529 2.45353,0.28868c0.91032,1.11425 2.02556,2.10409 2.62588,3.40548c0.30781,0.66726 -0.12396,1.46651 -0.13791,2.20122c-0.05492,2.89116 -0.57766,5.7688 -1.16005,8.60123c-0.29718,1.44533 0.00332,3.06595 -0.6731,4.37734c-0.29589,0.57366 -1.2674,0.28254 -1.8606,0.537c-0.66468,0.28513 -1.39361,0.64897 -2.02605,1.01163c-1.91967,-0.74978 -3.97795,-1.52583 -4.90612,-1.87941l-0.24714,0.01876l0.01511,-0.07549l-3.01366,-0.60254c-0.19611,-0.04326 -0.30022,-0.05805 -0.50933,-0.05805c-1.55454,0 -2.81491,1.2619 -2.81491,2.81644c0,0.54626 0.15551,1.05697 0.42483,1.48863l1.81836,3.03246l0.0658,-0.0395c0.2202,0.35171 0.48545,0.67236 0.81142,0.95022c2.6654,2.27199 5.83719,1.5356 8.72426,0.31936c0.0384,0.02468 0.1754,0.06537 0.21342,0.0908c2.55691,1.71001 2.71998,6.90526 2.68033,9.46568c-0.20206,5.82735 -0.97992,12.83514 -4.63302,17.58152c-0.89848,-3.07615 -3.02375,-7.11363 -7.0237,-6.19178c-5.98823,1.38009 -10.13731,12.06603 -4.3084,16.18606c1.54559,1.09247 3.74362,0.81691 5.8612,0.17212c-0.05814,0.55382 -0.03504,1.15675 -0.10116,1.7081c-0.43113,3.5945 -1.07949,7.16524 -1.74344,10.7241c-0.16742,0.89741 -0.14029,1.93481 -0.44912,2.78176c-0.62464,-0.42675 -1.29053,-0.82791 -1.99922,-1.20129c-1.40144,-0.73837 -3.11238,-0.59402 -4.66827,-0.89142l-0.23848,0.06332l0.00002,-0.07339l-3.07121,0.00071c-1.55454,0 -2.81598,1.26166 -2.81598,2.8162c0,0.64391 0.21594,1.23764 0.57973,1.71191l1.82514,2.43397l0.06659,-0.04995c0.256,0.33985 0.48457,0.57104 0.85238,0.81148c1.92368,1.2575 4.58908,0.33422 6.88704,0.2986c0.34716,-0.00538 0.78736,0.08181 1.15711,0.11294c4.49784,4.08103 4.31976,12.03579 2.84485,17.92816c-0.87166,3.48232 0.05442,4.02531 -3.61763,6.26562c-2.10407,1.2837 -5.64271,0.83497 -7.78636,0.84107c-1.53693,0.00438 -3.32843,-0.00006 -4.87636,-0.38431c0.87751,-2.6645 2.27236,-5.37753 1.45853,-8.32238c-1.38123,-4.99797 -3.4333,-11.5356 -10.0318,-3.46839c-1.35206,1.65301 -0.38241,4.25874 -0.42186,6.39392c-0.02935,1.58865 -0.50772,3.34669 0.21337,4.76256c0.46805,0.919 0.98563,1.713 1.54758,2.39859c-1.88801,3.66699 -3.97947,7.3573 -8.27131,8.54532c-3.58375,0.99201 -8.74332,-0.12717 -12.37488,-0.67533c-8.22211,-1.24106 -15.01894,-2.15796 -21.84033,-7.23664c-0.7994,-0.59517 -2.07731,-1.54002 -3.33903,-2.49653c0.77987,-3.17467 1.01099,-6.50755 1.11979,-9.73359c-0.0013,-2.91027 0.89365,-16.95927 -8.03818,-12.01181c-1.83537,1.01662 -0.70018,4.14183 -1.2018,6.1791c-0.78472,3.18704 -1.31308,6.48351 -1.26616,9.7654c0.01888,1.32066 -0.42285,2.6768 0.16541,3.85936c0.72865,1.46479 1.67638,2.69365 2.75355,3.78571c-0.43742,0.93244 -0.96047,1.90749 -1.62454,2.7001c-0.91693,1.09441 -2.49158,1.44554 -3.53877,2.41606c-3.20441,2.9698 -3.12116,5.1072 -7.36614,6.53289c-3.81279,1.28053 -9.20071,-0.76411 -12.64561,-2.02808c-2.26328,-0.83041 -6.26724,-1.84466 -9.05544,-3.61891c1.17871,-0.9904 2.32807,-2.13825 3.4122,-3.24976c1.45797,-5.52209 3.34471,-10.61953 -0.98848,-15.4557c-1.77032,-1.97582 -6.69424,-5.11085 -9.49989,-2.0558c-1.71975,1.87262 -1.19208,4.85139 -1.52018,7.37261c-0.36777,2.82607 -0.49875,9.23756 0.558,12.39097c-2.33122,1.39997 -4.79845,2.60676 -7.37515,3.80976c-10.58033,4.9397 -22.36403,9.53962 -32.03481,0.30125c-2.8281,-2.70164 -8.02932,-7.58726 -9.11106,-11.52942c-0.73959,-2.69523 -0.53762,-5.5478 -0.49444,-8.36557c0.82385,-0.14579 1.58233,-0.41136 2.11311,-1.00964c3.35013,-3.77613 2.68419,-7.84815 2.65489,-12.19247c-1.53262,-1.46718 -2.49125,-4.63707 -4.60006,-4.40368c-2.45277,0.27146 -3.68216,3.26118 -4.92445,5.39342c-1.01733,1.74612 -1.29218,4.22225 -1.25535,6.81719c-0.14241,0.00003 -0.35386,0.07234 -0.49626,0.0721c-2.86592,-0.00472 -5.73364,-0.00733 -8.59956,-0.00179c-0.18014,0.00035 -4.59955,0.18231 -5.41062,-0.27266c-1.83281,-1.0281 -3.13578,-5.36508 -3.60162,-6.4072c-3.64928,-8.16376 -2.98242,-16.05682 -2.92015,-24.88103c0.01333,-1.88956 -0.21451,-3.80971 -0.18158,-5.69843c1.1585,0.04068 2.43696,-0.16737 3.59758,-0.15617c4.17131,0.04027 11.68212,1.67138 14.09667,-3.35345c2.34796,-4.88626 -0.51548,-11.77 -5.27372,-13.74807c-1.42176,-0.59105 -3.0779,-0.10656 -4.61672,-0.15945c-1.3826,0.07142 -2.79112,-0.38657 -4.0524,0.18427c-2.80759,1.27069 -5.63234,5.26415 -7.3491,8.89258c-1.63571,-2.98215 -1.28766,-7.61087 -1.14466,-10.36365c0.41912,-8.06848 2.39267,-15.078 4.78948,-22.70414c1.03831,-3.30371 1.44858,-6.83371 2.88097,-9.98664c0.92773,-2.04207 3.4039,-3.42836 5.0879,-4.61112c0.59342,1.57105 1.5734,3.00129 2.87546,4.14195c3.92928,3.44221 7.42369,3.47987 12.21973,3.82418c2.2085,0.15856 9.76485,0.65874 11.2457,-0.82211c0.92342,-0.92342 1.14014,-8.54092 0.34113,-9.71677c-0.87762,-1.29155 -2.77919,-1.42591 -4.15049,-2.17281c-4.81706,-2.62368 -12.3845,-3.7365 -18.11814,-2.86699c-0.25693,-3.12955 -0.21143,-4.99219 0.65961,-7.27637c4.65838,2.18827 10.91836,1.96049 15.05911,-0.20112c3.61295,-1.88609 8.56983,-9.45548 3.58703,-13.24677c-0.99831,-0.75959 -7.86486,-0.62264 -10.3276,-0.62264c-1.79202,0.07142 -3.70876,-0.44905 -5.37551,0.21306c-0.80883,0.32131 -1.6537,0.8686 -2.34687,1.60154c-0.05602,-5.4193 -0.45098,-10.43722 3.50425,-14.88728c1.26198,-1.41985 3.06672,-2.38573 4.88264,-2.9434c2.05876,-0.63223 4.44897,0.71643 6.50977,0.3228c0.39734,0.13676 0.7858,0.26541 1.16295,0.38634l0.65665,-0.40208l0.07042,0.35264l3.02031,-0.60495c1.31558,-0.23628 2.31518,-1.38832 2.31518,-2.77192c0,-1.55454 -1.1842,-2.74978 -2.73874,-2.74978l-3.68395,-0.00099l0.00008,0.29251c-0.09264,-0.02405 -0.18534,-0.04769 -0.27819,-0.07078c-4.05973,-1.57317 -10.27289,-4.68654 -11.96871,-8.44327c-0.54269,-1.20223 -0.36604,-5.04364 -0.36825,-6.12114c-0.00582,-2.83847 -0.50712,-5.93962 0.90369,-8.61458c3.28666,-6.23169 12.61326,-5.90072 18.45992,-4.70218c0,0 0.41866,0.08347 0.96222,0.02277c0.10082,0.01237 0.20359,0.01867 0.30776,0.01867c0.18155,0 0.35876,-0.01948 0.52933,-0.05624c1.49439,0.65731 3.04527,1.12756 3.86612,1.23854z" fill="#fd66ff" stroke-width="0.25"/></g></g></svg>