<svg version="1.1" xmlns="http://www.w3.org/2000/svg" xmlns:xlink="http://www.w3.org/1999/xlink" width="179.6143" height="167.47009" viewBox="0,0,179.6143,167.47009"><g transform="translate(-230.19285,-96.26496)"><g stroke="none" stroke-miterlimit="10"><path d="M289.75337,110.87799c-0.81803,-0.11451 -1.52364,0.63885 -2.29229,0.94128c-0.1551,0.06103 -0.30714,0.12383 -0.45617,0.18838c0.85558,2.84093 0.70509,7.50816 0.45362,10.18683c-0.14697,1.56555 -0.03726,3.25732 -0.75473,4.65652c-1.29259,2.52079 -5.35432,7.59773 -9.27751,4.22768c-2.27728,-1.9562 -2.05844,-6.30575 -2.05238,-9.06142c0.00927,-4.21536 1.53008,-8.12067 4.26862,-11.00026c-0.37153,-0.26432 -0.78726,-0.51404 -1.25209,-0.74844c-1.9251,0.0598 -5.61493,-0.70377 -7.32537,-0.07405c-0.83483,0.30735 -1.30923,1.2059 -1.99305,1.77492c-1.67216,1.39143 -5.07157,3.29188 -4.06154,6.10777c0.35794,0.99792 1.3477,1.70715 1.63636,2.72727c0.9301,3.28693 -0.1009,7.57544 0.56446,10.98196c0.59806,3.06197 3.34527,5.41927 4.89432,7.98079c0.02265,0.03745 0.04493,0.07515 0.06687,0.11306c1.1173,-0.53468 2.27386,-0.9575 3.48389,-1.18212c2.12054,-0.39364 6.50671,0.01786 8.79011,0.17394c0.96335,1.20911 2.4287,2.1518 2.89004,3.62732c3.0952,9.89951 -12.5197,8.8598 -16.69555,4.72947c-0.24077,-0.23815 -0.45335,-0.49771 -0.64602,-0.77248c-2.81107,1.88411 -5.49308,4.24862 -8.24266,6.0395c-4.01868,2.61748 -10.72979,5.37773 -12.67087,10.32302c-0.47922,1.2209 -0.34591,3.76276 -0.34388,5.0165c0.00147,0.90659 -0.08121,1.91945 -0.13295,2.95197c2.59511,0.00487 5.7183,0.03077 6.05988,0.13086c2.89551,0.84847 3.74274,3.16815 5.14014,5.39847c0.81403,1.29923 2.01493,2.41859 2.46202,3.88514c0.52458,1.72073 -0.20193,8.29742 -0.32256,9.7624c-1.65186,0.72811 -3.15684,2.33713 -4.95558,2.18433c-4.99387,-0.42421 -7.00895,-4.32467 -9.06817,-7.9708c-1.59896,-2.83119 -2.76488,-5.57762 -3.48963,-8.40628c-2.46103,-0.09638 -7.76663,-0.46577 -9.1218,1.50054c-0.38701,0.56155 0.29233,1.33743 0.33772,2.01791c0.10721,1.60699 0.58799,3.18126 1.13159,4.69731c1.58909,4.43185 3.40511,8.90335 6.81871,12.37142c0.9143,0.92889 1.81505,1.46422 2.61858,1.97805c0.72691,-0.15752 1.46137,-0.25902 2.20384,-0.27406h2.72727v0c1.38071,0 2.5,1.11929 2.5,2.5c0,0.92661 -0.50412,1.73548 -1.25305,2.16731l-2.68798,1.61279l-0.09941,-0.16568c-0.30616,0.20757 -0.63296,0.38246 -0.98715,0.51396c-1.09452,0.40636 -2.27943,-0.26842 -3.36024,-0.92736c-0.68007,0.26511 -1.35378,0.56027 -2.02809,0.80003c-0.69894,0.24852 -1.5338,-0.01862 -2.20568,0.29579c-2.318,1.08471 -0.61346,6.92925 -0.48146,8.54773c0.07577,0.92899 -0.39834,1.91324 -0.0951,2.79461c0.40934,1.18976 1.67905,1.94191 2.12899,3.11691c0.46423,1.21235 0.13066,2.62526 0.54138,3.85678c0.52596,1.57706 1.7054,2.88314 2.23228,4.45989c0.37774,1.13045 -0.04031,2.45881 0.4436,3.54804c0.53829,1.21162 1.39487,2.30343 2.40841,3.20243c0.19908,-0.24694 0.41565,-0.48149 0.65097,-0.70234c3.9769,-3.73247 7.39065,-3.8453 12.43264,-4.92015c1.05943,1.46822 2.57772,2.69662 3.17829,4.40465c1.16895,3.32456 -0.57447,6.41804 -3.6344,7.88612c-1.27237,0.61046 -2.81839,0.16693 -4.22944,0.1903c-2.01295,0.03335 -3.69112,0.16704 -5.33497,-0.03538c0.08309,0.81541 0.19927,1.63502 0.1986,2.44448c-0.00207,2.50018 0.42393,4.98357 0.54062,7.48102c0.02775,0.59385 -0.53695,1.239 -0.2591,1.76458c0.30803,0.58268 1.24089,0.52726 1.71352,0.98663c0.51548,0.50103 0.55044,1.44418 1.16725,1.81335c1.56591,0.93723 7.5923,0.18169 8.97407,0.18169c4.72063,0 10.07733,0.57128 14.93872,0.24969c-0.25812,-2.52847 0.09258,-5.36619 0.10673,-7.56787c0.00919,-1.43037 -0.28248,-2.89857 0.04511,-4.29095c0.35178,-1.49519 0.79246,-3.16345 1.94706,-4.17649c1.428,-1.25291 7.4431,-1.63884 8.82105,-0.39124c1.05827,0.95816 0.44006,2.82185 0.71731,4.22225c0.96566,4.87766 1.13449,7.55403 0.73246,12.49621c-1.16976,0.67164 -2.38662,1.45563 -3.65224,2.18074c1.45774,0.00341 4.70534,0.04197 5.59897,-0.08775c3.42285,-0.49689 8.07135,-0.89763 11.42696,-1.79923c1.6459,-0.44223 3.10127,-1.46592 4.75419,-1.88115c0.89033,-0.22366 1.85906,0.19956 2.75398,-0.00499c1.38455,-0.31647 2.65024,-1.0221 3.97537,-1.53315c0.93091,-0.28696 1.93749,-0.3945 2.79273,-0.86087c1.3502,-0.73627 1.83373,-2.19069 2.20409,-3.54656c0.94998,-3.47783 1.36752,-7.17002 1.00777,-10.7826c-0.42305,-0.0809 -0.83944,-0.18649 -1.24412,-0.33646c-2.91652,-1.08089 -11.40705,-9.40309 -1.22793,-9.70758c3.93106,-0.11759 5.68653,2.65715 6.59979,5.59879c0.22191,0.03097 0.44223,0.06945 0.65992,0.11995c1.55713,0.36117 3.00849,1.14632 4.58693,1.3985c2.57364,0.41118 5.21251,-0.0265 7.81879,-0.0265c7.38467,0 14.10642,0.10733 20.29034,-4.38791c1.62076,-1.33993 3.13109,-2.83202 4.4606,-4.46133c0.42565,-0.52163 1.24608,-1.12048 1.70412,-1.70565c-0.89814,0.0028 -1.78812,-0.06346 -2.66127,-0.27182c-1.87555,-0.44755 -4.76352,-0.28258 -5.38719,-2.10714c-1.72206,-5.03792 4.94612,-6.62288 7.55167,-5.45632c1.22612,0.54896 2.39816,1.32755 3.39104,2.27665c4.36059,0.28529 8.95721,1.41207 12.90282,-0.10521c4.09604,-1.57513 5.57961,-4.69799 8.01974,-8.02751c0.93486,-1.27561 2.16702,-2.33448 2.98406,-3.68858c1.3346,-2.21184 1.75565,-4.73537 1.67654,-7.30212c-3.06475,0.25701 -6.10665,0.17824 -8.56885,-0.12671c-1.5712,-0.1946 -3.70836,0.34977 -4.66063,-0.91503c-1.02751,-1.36472 -0.32611,-3.473 0.11413,-5.12359c1.36733,-5.12651 4.93524,-8.66244 10.4015,-7.65638c1.62035,0.29823 3.07733,1.17809 4.616,1.76714c0.83099,2.05585 1.58295,4.1572 2.13317,6.27904c0.23365,-0.04567 0.46455,-0.09452 0.69229,-0.14679c1.30787,-0.30017 2.62958,-0.71561 3.75946,-1.43947c1.15145,-0.73768 2.146,-3.16447 2.29455,-4.39265c0.77572,-6.41344 -2.65155,-11.01608 -6.93641,-15.28632c0,0 -0.24403,-0.24403 -0.46008,-0.64141c-0.28846,-0.15083 -0.46352,-0.29671 -0.46352,-0.29671l-3.35811,-2.80177c-0.60343,-0.63375 -1.05618,-1.45733 -1.8103,-1.90125c-0.99097,-0.58334 -2.29058,-0.49282 -3.27273,-1.09091c-1.83138,-1.11523 -2.89698,-3.28616 -4.78948,-4.29421c-0.50416,-0.26854 -1.02745,-0.50043 -1.55717,-0.71964c-0.11715,2.49747 -0.52026,5.04566 -1.30061,6.09113c-0.83259,1.11546 -2.477,1.27331 -3.74631,1.84456c-1.65091,0.74298 -5.67667,2.43664 -7.39441,1.60146c-3.17707,-1.54473 -2.85449,-5.14128 -3.95502,-7.71985c-0.4826,-1.13075 -2.04389,-1.94466 -1.89391,-3.16491c0.23617,-1.92158 1.33254,-3.897 2.9013,-5.03157c1.2198,-0.88219 3.00061,-0.25702 4.50447,-0.3245c1.45927,-0.06548 2.92004,-0.04913 4.38109,-0.01246c-0.11542,-0.23439 -0.21001,-0.47633 -0.26876,-0.73134c-0.29533,-1.28195 0.21951,-2.65423 -0.02676,-3.9465c-0.60395,-3.16908 -2.9969,-7.71986 -5.6365,-9.69912c-1.34573,-1.00907 -3.09603,-1.404 -4.4071,-2.45771c-1.06675,-0.85735 -1.53402,-2.32026 -2.60228,-3.17573c-0.75909,-0.60789 -1.80711,-0.7193 -2.71066,-1.07894c-1.01664,-1.14323 -1.97676,-2.19089 -3.04218,-3.0304c-2.01267,3.03591 -4.5908,4.65444 -8.83595,5.11347c-1.44541,0.15629 -3.17242,0.50202 -4.34706,-0.35464c-2.05884,-1.5015 -4.15081,-6.95931 -2.3922,-9.5282c0.90892,-1.32771 2.77178,-1.72295 4.32467,-2.14423c2.90812,-0.78894 5.95524,-0.61302 8.78209,0.27451c0.36436,-1.92661 0.09161,-3.89789 0.09977,-6.00144c0.02252,-5.80969 -0.98356,-14.37516 -7.86294,-15.56022c-4.93451,-1.11268 -8.43539,-0.95028 -13.37483,-0.49903c-7.02371,0.64167 -13.71447,0.88956 -19.34904,5.95116c-1.2232,1.09881 -2.04107,2.58815 -3.20391,3.75065c-1.75145,1.75094 -3.73809,2.95579 -4.16348,5.7393c-0.11844,0.77498 -0.24367,1.90949 -0.32507,3.14231c0.03672,0.06119 0.07332,0.12222 0.10979,0.18311c0.39083,0.9699 0.78166,1.9398 1.17248,2.9097l0.17881,1.47393c0,0 0,1.34685 -0.98858,2.06341c0.6472,1.70779 1.65272,3.29794 2.03094,5.08267c0,0 0.49029,2.45145 -1.96116,2.94174c-2.45145,0.49029 -2.94174,-1.96116 -2.94174,-1.96116c-0.34324,-1.86696 -1.62121,-3.45142 -2.13965,-5.2775c-0.40696,-1.43341 -0.53055,-3.79445 -0.48666,-6.10437c-2.59142,-4.30444 -6.15798,-9.87667 -11.40641,-10.61133zM401.27805,169.34041c5.39184,5.40868 9.47927,11.5656 8.33632,19.62277c-0.36674,2.58533 -2.03501,6.07591 -4.25091,7.60735c-1.7498,1.20931 -4.0554,2.05896 -6.56554,2.61806c0.25845,3.55215 -0.30664,7.10643 -2.25748,10.54825c-0.86385,1.52408 -2.23234,2.70325 -3.2651,4.11834c-3.08163,4.22244 -5.19443,7.7949 -10.38082,9.7899c-3.71995,1.43092 -8.28286,0.70423 -12.18337,0.69056c-0.55511,4.14742 -5.96191,8.34221 -8.40029,10.38771c-1.42008,1.00012 -2.70535,2.22629 -4.26024,3.00036c-5.77126,2.87311 -12.83943,2.42991 -19.08578,2.42991c-0.72342,0 -8.32716,0.00714 -8.54485,-0.0265c-1.1928,-0.18429 -2.32488,-0.63145 -3.47167,-1.0219c0.57209,5.98892 -0.63936,14.3363 -5.76006,17.58411c-1.11988,0.71029 -2.50182,0.88063 -3.75272,1.32095c-1.58397,0.57986 -3.10905,1.3572 -4.75191,1.73958c-0.87675,0.20407 -1.82782,-0.22559 -2.70057,-0.00499c-1.57941,0.39922 -2.95574,1.41586 -4.53057,1.83275c-4.48925,1.18841 -10.37855,1.94399 -14.98268,2.03003c-4.37702,0.08179 -7.54125,0.84442 -10.08518,-2.60991c-5.35624,0.58218 -11.49374,-0.11686 -16.78342,-0.11686c-3.24067,0 -8.56024,0.69671 -11.57138,-0.90922c-0.97268,-0.51876 -1.33257,-1.76425 -2.10547,-2.55028c-0.81796,-0.83186 -2.13948,-1.23715 -2.65012,-2.2861c-0.53969,-1.10863 -0.13653,-2.46305 -0.2591,-3.68996c-0.3397,-3.40039 -1.27825,-8.23021 -0.69145,-12.28917c-1.70808,-1.57112 -4.75963,-5.22918 -5.09782,-5.94153c-0.59175,-1.24641 -0.20693,-2.78074 -0.6473,-4.08832c-0.5333,-1.58349 -1.71173,-2.89916 -2.23986,-4.48438c-0.37821,-1.13525 -0.01332,-2.44504 -0.44103,-3.56259c-0.48761,-1.27404 -1.81359,-2.13098 -2.23465,-3.42854c-0.38604,-1.18961 0.02796,-2.50623 -0.0951,-3.75084c-0.44546,-4.50508 -1.74805,-10.08288 2.79127,-13.27045c0.55909,-0.3926 1.26023,-0.45738 1.95999,-0.53767c-3.92204,-3.92279 -6.44971,-9.36763 -8.22304,-14.35016c-0.92761,-2.60631 -3.0532,-8.22256 -1.11176,-10.97925c2.80805,-3.98718 8.23373,-4.01821 12.63543,-3.98177c-0.13529,-1.87504 -0.09388,-3.82072 0.12627,-5.8787c0.91785,-8.58032 8.91805,-12.44614 15.34037,-16.63609c2.72326,-1.77666 5.39532,-3.63091 8.11596,-5.41158c0.22061,-0.14439 0.44202,-0.2898 0.66435,-0.43537c-1.93009,-3.08168 -4.71885,-5.74703 -5.51203,-9.44357c-0.65214,-3.03922 0.41299,-7.91536 -0.52645,-10.83623c-0.32461,-1.00926 -1.40943,-1.69167 -1.63636,-2.72727c-1.16218,-5.30348 1.95806,-8.39162 5.75664,-11.34678c1.1372,-0.8847 2.10628,-2.09951 3.46149,-2.58872c2.42477,-0.8753 7.50505,-0.12721 10.12917,-0.07405c1.89867,0.94502 3.38268,1.4502 4.61471,2.36741c0.50982,-0.24016 1.03918,-0.45586 1.58738,-0.64539c1.39574,-0.48254 2.78489,-1.39895 4.25317,-1.24054c5.21859,0.56302 9.09753,4.09646 12.17651,8.17929c1.04726,-2.63826 3.0412,-4.374 5.08458,-6.41567c2.47836,-2.47628 4.86561,-5.18095 7.8996,-6.93286c5.79345,-3.3453 11.13798,-3.50413 17.54745,-4.0926c5.44443,-0.49987 9.49874,-0.61207 14.9325,0.57937c9.4634,2.07762 11.79933,11.85478 11.82973,20.4523c0.01062,3.00179 0.23997,5.5348 -0.50781,8.19169c1.44789,0.95711 2.74722,2.11114 3.82423,3.41012c0.91463,0.36762 1.97386,0.48745 2.74388,1.10287c1.14956,0.91876 1.70463,2.44857 2.85227,3.36972c1.28779,1.03365 3.03645,1.37795 4.33448,2.39872c3.61538,2.84314 6.5162,8.28307 7.44011,12.71718c0.2509,1.20413 -0.3038,2.49148 -0.02676,3.68986c0.25774,1.11489 1.22243,1.9744 1.57503,3.05596c1.43908,0.59582 2.91853,1.11245 4.27747,1.86782c1.95313,1.08564 3.10397,3.29785 5.02871,4.43307c0.99048,0.58419 2.29099,0.49215 3.27273,1.09091c1.00948,0.61568 1.70222,1.64159 2.55334,2.46239l3.18734,2.65278c0,0 0.35956,0.29963 0.63788,0.79518c0.38492,0.2131 0.62034,0.44852 0.62034,0.44852zM393.1679,194.68644c-0.25411,-1.11631 -0.55166,-2.20471 -0.85588,-3.24132c-1.50831,-0.32417 -3.9791,-1.3711 -5.06417,0.35584c-0.58484,0.9308 -0.87455,2.02914 -1.38842,2.99749c0.74506,-0.06172 1.62979,-0.00882 2.19632,-0.00845c1.62003,0.00104 3.36893,-0.00915 5.11216,-0.10355zM283.63887,254.91579c1.46741,-0.53788 2.95061,-1.09708 3.01751,-1.12194c-0.27838,-1.45805 -0.14985,-2.96942 -0.36439,-4.43821c-0.24102,-1.6501 -0.9849,-3.21915 -1.08496,-4.88376c-0.02852,-0.47443 0.71346,-0.75703 0.71731,-1.2323c0.00273,-0.33781 -0.39285,0.61273 -0.71316,0.72007c-0.43459,0.14563 -1.01371,-0.30259 -1.37488,-0.02039c-0.34132,0.26668 -0.21701,0.84527 -0.23476,1.27806c-0.12792,3.11848 -0.13169,6.57177 0.03659,9.68467c0.00025,0.00454 0.00049,0.00915 0.00074,0.01381zM252.90893,236.3323c1.27581,0.03921 2.57584,-0.11361 3.69226,-0.08776c1.08086,0.02503 2.58772,0.83754 3.14485,-0.63853c0.25447,-0.67419 -0.12947,-1.43541 -0.19403,-2.15312c-1.58644,1.04562 -4.71056,1.53593 -6.64308,2.87941zM249.07401,175.56127c0.01328,0.0335 0.02688,0.06682 0.0408,0.09996c0.89418,2.12824 2.12261,4.10013 3.20431,6.13947c1.08538,2.04628 2.56454,5.34575 5.48462,5.36045c-0.3222,-1.81149 0.22519,-3.75383 -0.32256,-5.51033c-0.3245,-1.0406 -1.30764,-1.74634 -1.90162,-2.66031c-0.16673,-0.25655 -1.44626,-3.14727 -2.49622,-3.3288c-1.32178,-0.22853 -2.66317,-0.19188 -4.00934,-0.10043zM274.69368,144.10641c2.21969,1.34764 9.15696,2.39371 7.51675,-0.76217c-2.70162,0.44725 -5.04384,0.11872 -7.51675,0.76217zM282.44699,115.55335c-2.21153,3.0832 -2.44342,7.23728 -1.94363,11.58431c0.10792,0.93863 1.30561,-1.43097 1.63158,-2.31777c0.34486,-0.93821 0.28198,-1.98173 0.33618,-2.97985c0.12516,-2.30493 0.30248,-4.42778 -0.02413,-6.2867zM352.05731,128.3442c-0.06867,-0.00642 -0.13793,-0.01218 -0.20777,-0.01727c-1.47022,-0.10715 -6.67692,-0.90104 -6.08795,0.75232c0.20097,0.56416 0.05911,1.33516 0.51757,1.72048c0.29674,0.2494 0.7315,-0.26035 1.10749,-0.35464c2.48743,-0.62381 3.65198,-0.9436 4.67067,-2.10089zM377.04629,159.33926c-2.62397,-0.03316 -5.40659,-0.34084 -7.94062,-0.2374c-0.63584,0.02596 0.72661,1.05062 1.00738,1.6217c0.60274,1.22593 0.77787,2.61924 1.14522,3.93501c0.13258,0.47487 -0.07314,1.19033 0.35431,1.43604c0.3464,0.19912 0.64269,-0.48395 1.00352,-0.65553c0.81544,-0.38775 1.65135,-0.74003 2.51116,-1.01574c0.55268,-0.17723 1.35695,0.12476 1.70824,-0.33726c0.38562,-0.50718 0.0025,-1.27426 0.00148,-1.91138c-0.00149,-0.93755 0.144,-1.89161 0.2093,-2.83544z" fill="#7631ff" stroke-width="0.5"/><path d="M289.73326,110.83217c5.24843,0.73466 8.81971,6.3051 11.41113,10.60954c-0.04389,2.30992 0.11157,4.76574 0.51853,6.19915c0.51844,1.82608 1.76359,3.31608 2.10683,5.18304c0,0 0.49246,2.45076 2.94391,1.96047c2.45145,-0.49029 1.96382,-2.94244 1.96382,-2.94244c-0.37822,-1.78473 -1.38446,-3.3747 -2.03166,-5.08249c0.98858,-0.71656 0.98984,-2.06371 0.98984,-2.06371l-0.15711,-1.37631c-0.39082,-0.9699 -0.78124,-1.93989 -1.17207,-2.90979c-0.03647,-0.06089 -0.09553,-0.21937 -0.13225,-0.28056c0.0814,-1.23282 0.20741,-2.3675 0.32585,-3.14248c0.42539,-2.78351 2.41578,-3.98902 4.16723,-5.73996c1.16284,-1.1625 1.98323,-2.65212 3.20643,-3.75093c5.63457,-5.0616 12.33787,-5.30897 19.36158,-5.95064c4.93944,-0.45125 8.44816,-0.61166 13.38267,0.50102c6.87938,1.18506 7.8935,9.7541 7.87098,15.56379c-0.00816,2.10355 0.21431,4.16124 -0.15005,6.08785c-2.82685,-0.88753 -5.86852,-1.06057 -8.77664,-0.27163c-1.55289,0.42128 -3.37693,0.7244 -4.28585,2.05211c-1.75861,2.56889 0.33847,8.02904 2.39731,9.53054c1.17464,0.85666 2.90495,0.51284 4.35036,0.35655c4.24515,-0.45903 6.82646,-2.07539 8.83913,-5.1113c1.06542,0.83951 2.02825,1.88933 3.04489,3.03256c0.90355,0.35964 1.95322,0.47253 2.71231,1.08042c1.06826,0.85547 1.53786,2.3207 2.60461,3.17805c1.31107,1.05371 3.06385,1.45149 4.40958,2.46056c2.6396,1.97926 5.03746,6.53739 5.64141,9.70647c0.24627,1.29227 -0.26728,2.66708 0.02805,3.94903c0.05875,0.25501 0.06274,0.53927 0.17816,0.77366c-1.46105,-0.03667 -2.92113,-0.05159 -4.3804,0.01389c-1.50386,0.06748 -3.19592,-0.60375 -4.41572,0.27844c-1.56876,1.13457 -2.66371,3.11282 -2.89988,5.0344c-0.14998,1.22025 1.41276,2.03764 1.89536,3.16839c1.10053,2.57857 0.78024,6.18338 3.95731,7.72811c1.71774,0.83518 5.64523,-0.83994 7.29614,-1.58292c1.26931,-0.57125 2.9139,-0.72822 3.74649,-1.84368c0.78035,-1.04547 1.18455,-3.5894 1.3017,-6.08687c0.52972,0.21921 1.14896,0.42293 1.65312,0.69147c1.8925,1.00805 2.95902,3.18277 4.7904,4.298c0.98215,0.59809 2.28198,0.50873 3.27295,1.09207c0.75412,0.44392 1.20711,1.26895 1.81054,1.9027l3.35837,2.80386c0,0 0.17508,0.1461 0.46354,0.29693c0.21605,0.39738 0.46012,0.64185 0.46012,0.64185c4.28486,4.27024 7.7121,8.88224 6.93638,15.29568c-0.14855,1.22818 -1.14344,3.65771 -2.29489,4.39539c-1.12988,0.72386 -2.45179,1.14053 -3.75966,1.4407c-0.22774,0.05227 -0.55705,0.08335 -0.7907,0.12902c-0.55022,-2.12184 -1.30272,-4.21942 -2.13371,-6.27527c-1.53867,-0.58905 -2.89611,-1.45939 -4.51646,-1.75762c-5.46626,-1.00606 -9.03523,2.53664 -10.40256,7.66315c-0.44024,1.65059 -1.14267,3.76269 -0.11516,5.12741c0.95227,1.2648 2.99386,0.69099 4.56506,0.88559c2.4622,0.30495 5.60021,0.41131 8.66496,0.1543c0.07911,2.56675 -0.34343,5.0949 -1.67803,7.30674c-0.81704,1.3541 -2.05033,2.41572 -2.98519,3.69133c-2.44013,3.32952 -3.92717,6.45883 -8.02321,8.03396c-3.94561,1.51728 -8.54553,0.39509 -12.90612,0.1098c-0.99288,-0.9491 -2.16512,-1.72745 -3.39124,-2.27641c-2.60555,-1.16656 -9.27928,0.42416 -7.55722,5.46208c0.62367,1.82456 3.44384,1.58612 5.31939,2.03367c0.87315,0.20836 1.83347,0.34568 2.73161,0.34288c-0.45804,0.58517 -1.27982,1.18534 -1.70547,1.70697c-1.32951,1.62931 -2.84358,3.12459 -4.46434,4.46452c-6.18392,4.49524 -12.91999,4.39563 -20.30466,4.39563c-2.60628,0 -5.2515,0.4394 -7.82514,0.02822c-1.57844,-0.25218 -3.03364,-1.03671 -4.59077,-1.39788c-0.21769,-0.0505 -0.4386,-0.08891 -0.66051,-0.11988c-0.91326,-2.94164 -2.67491,-5.71609 -6.60597,-5.5985c-10.17912,0.30449 -1.68834,8.5267 1.22818,9.60759c0.40468,0.14997 0.82,0.25558 1.24305,0.33648c0.35975,3.61258 -0.0557,7.40474 -1.00568,10.88257c-0.37036,1.35587 -0.85544,2.81028 -2.20564,3.54655c-0.85524,0.46637 -1.86371,0.57384 -2.79462,0.8608c-1.32513,0.51105 -2.59339,1.21647 -3.97794,1.53294c-0.89492,0.20455 -1.86544,-0.2189 -2.75577,0.00476c-1.65292,0.41523 -3.11108,1.43843 -4.75698,1.88066c-3.35561,0.9016 -8.01041,1.30062 -11.43326,1.79751c-0.89363,0.12972 -4.14412,0.09006 -5.60186,0.08665c1.26562,-0.72511 2.48392,-1.50853 3.65368,-2.18017c0.40203,-4.94218 0.22985,-7.61996 -0.73581,-12.49762c-0.27725,-1.4004 0.33933,-3.26489 -0.71894,-4.22305c-1.37795,-1.2476 -7.39768,-0.86435 -8.82568,0.38856c-1.1546,1.01304 -1.5409,2.59738 -1.89268,4.09257c-0.32759,1.39238 -0.03713,2.85983 -0.04632,4.2902c-0.01415,2.20168 -0.41454,5.12615 -0.15642,7.65462c-4.86139,0.32159 -10.224,-0.25347 -14.94463,-0.25347c-1.38177,0 -7.41101,0.75325 -8.97692,-0.18398c-0.61681,-0.36917 -0.65255,-1.31301 -1.16803,-1.81404c-0.47263,-0.45937 -1.4062,-0.4046 -1.71423,-0.98728c-0.27785,-0.52558 0.28647,-1.17108 0.25872,-1.76493c-0.11669,-2.49745 -0.54478,-4.98295 -0.54271,-7.48313c0.00067,-0.80946 -0.04158,-1.6964 -0.12467,-2.51181c1.64385,0.20242 3.32064,0.06724 5.33359,0.03389c1.41105,-0.02337 2.9559,0.41899 4.22827,-0.19147c3.05993,-1.46808 4.73249,-4.49103 3.56354,-7.81559c-0.60057,-1.70803 -2.12121,-2.93906 -3.18064,-4.40728c-5.04199,1.07485 -8.45719,1.18585 -12.43409,4.91832c-0.23532,0.22085 -0.45183,0.45547 -0.65091,0.70241c-1.01354,-0.899 -1.87142,-1.99261 -2.40971,-3.20423c-0.48391,-1.08923 -0.06685,-2.41908 -0.44459,-3.54953c-0.52688,-1.57675 -1.70777,-2.88524 -2.23373,-4.4623c-0.41072,-1.23152 -0.07814,-2.64627 -0.54237,-3.85862c-0.44994,-1.175 -1.72058,-1.92908 -2.12992,-3.11884c-0.30324,-0.88137 0.17029,-1.86695 0.09452,-2.79594c-0.132,-1.61848 -1.83814,-7.46738 0.47986,-8.55209c0.67188,-0.31441 1.60203,-0.0776 2.30097,-0.32612c0.67431,-0.23976 1.34805,-0.53483 2.02812,-0.79994c1.08081,0.65894 2.26532,1.33252 3.35984,0.92616c0.35419,-0.1315 0.58648,-0.27372 0.89264,-0.48129l0.09945,0.1658l2.68783,-1.61322c0.74893,-0.43183 1.25268,-1.24183 1.25268,-2.16844c0,-1.38071 -1.1199,-2.50211 -2.50061,-2.50211v0l-2.72739,-0.00046c-0.74247,0.01504 -1.47697,0.11636 -2.20388,0.27388c-0.80353,-0.51383 -1.70465,-1.05075 -2.61895,-1.97964c-3.4136,-3.46807 -5.23068,-7.94765 -6.81977,-12.3795c-0.5436,-1.51605 -1.02444,-3.09313 -1.13165,-4.70012c-0.04539,-0.68048 -0.72471,-1.45755 -0.3377,-2.0191c1.35517,-1.96631 6.76067,-1.5926 9.2217,-1.49622c0.72475,2.82866 1.89066,5.5694 3.48962,8.40059c2.05922,3.64613 4.07347,7.54001 9.06734,7.96422c1.79874,0.1528 3.20537,-1.43818 4.85723,-2.16629c0.12063,-1.46498 0.84641,-8.04995 0.32183,-9.77068c-0.44709,-1.46655 -1.6479,-2.58914 -2.46193,-3.88837c-1.3974,-2.23032 -2.24425,-4.55384 -5.13976,-5.40231c-0.34158,-0.10009 -3.46483,-0.12551 -6.05994,-0.13038c0.05174,-1.03252 0.13472,-2.0474 0.13325,-2.95399c-0.00203,-1.25374 -0.13465,-3.79896 0.34457,-5.01986c1.94108,-4.94529 8.65556,-7.71512 12.67424,-10.3326c2.74958,-1.79088 5.43528,-4.1619 8.24635,-6.04601c0.19267,0.27477 0.40512,0.53453 0.64589,0.77268c4.17585,4.13033 19.79956,5.15998 16.70436,-4.73953c-0.46134,-1.47552 -1.8611,-2.34273 -2.82445,-3.55184c-2.2834,-0.15608 -6.66568,-0.57133 -8.78622,-0.17769c-1.21003,0.22462 -2.36487,0.64549 -3.48217,1.18017c-0.02194,-0.03791 -0.12086,-0.13985 -0.14351,-0.1773c-1.54905,-2.56152 -4.29489,-4.92038 -4.89295,-7.98235c-0.66536,-3.40652 0.36909,-7.69846 -0.56101,-10.98539c-0.28866,-1.02012 -1.27814,-1.7296 -1.63608,-2.72752c-1.01003,-2.81589 2.39262,-4.71898 4.06478,-6.11041c0.68382,-0.56902 1.15948,-1.46849 1.99431,-1.77584c1.71044,-0.62972 5.40335,0.13185 7.32845,0.07205c0.46483,0.2344 0.93146,0.5702 1.30299,0.83452c-2.73854,2.87959 -4.2541,6.78136 -4.26337,10.99672c-0.00606,2.75567 -0.28826,7.02791 1.98902,8.98411c3.92319,3.37005 7.9912,-1.71155 9.28379,-4.23234c0.71747,-1.3992 0.60978,-3.09217 0.75675,-4.65772c0.25147,-2.67867 0.40466,-7.34732 -0.45092,-10.18825c0.14903,-0.06455 0.30136,-0.12749 0.45646,-0.18852c0.76865,-0.30243 1.47575,-1.05647 2.29378,-0.94196z" fill="#fd66ff" stroke-width="0.25"/></g></g></svg>