<svg version="1.1" xmlns="http://www.w3.org/2000/svg" xmlns:xlink="http://www.w3.org/1999/xlink" width="109.76601" height="109.64258" viewBox="0,0,109.76601,109.64258"><g transform="translate(-265.117,-125.17871)"><g stroke="none" stroke-miterlimit="10"><g stroke-width="0"><path d="M265.117,180.06171c0,-30.31105 24.57196,-54.883 54.88301,-54.883c30.31104,0 54.883,24.57196 54.883,54.883c0,0.00002 -109.76601,0.00286 -109.76601,0z" fill="#002198"/><path d="M374.883,179.93829c0,30.31105 -24.57196,54.883 -54.883,54.883c-30.31105,0 -54.883,-24.57196 -54.883,-54.883c0,-0.00286 109.766,-0.00002 109.766,0z" fill="#001666"/></g><path d="M273.92668,180c0,-25.44559 20.62773,-46.07332 46.07332,-46.07332c25.44559,0 46.07332,20.62773 46.07332,46.07332c0,25.44559 -20.62773,46.07332 -46.07332,46.07332c-25.44559,0 -46.07332,-20.62773 -46.07332,-46.07332z" fill="#000f45" stroke-width="0"/><text transform="translate(283.66915,194.78273) scale(1.00362,1.00362)" font-size="40" xml:space="preserve" fill="#ffffff" stroke-width="1" font-family="&quot;Oswald-VariableFont_wght&quot;, Sans Serif" font-weight="normal" text-anchor="start"><tspan x="0" dy="0">PLAY</tspan></text></g></g></svg>