<svg version="1.1" xmlns="http://www.w3.org/2000/svg" xmlns:xlink="http://www.w3.org/1999/xlink" width="579.82728" height="479.70701" viewBox="0,0,579.82728,479.70701"><g transform="translate(-30.08638,59.85346)"><g stroke-miterlimit="10"><path d="M120.51815,60.44257c0,-9.1208 9.34834,-16.08179 17.36792,-17.28179c0.29308,-0.04386 0.69243,-0.1324 1.16466,-0.24608c0.53377,-0.24191 1.06002,-0.49093 1.57543,-0.75014c4.43425,-2.23007 12.43193,-2.21461 16.96414,0.80686l0.8186,0.49116c2.91916,2.91916 8.00756,14.08326 7.99676,18.56866c-0.00116,0.48083 0.35172,2.47987 0.30283,4.46659c0.46988,0.98965 0.75159,1.97358 0.75159,2.62184c0,6.88281 0.44504,11.28513 -4.58127,16.35207c-3.67267,3.70237 -13.97569,9.01194 -19.42159,10.37341c-3.31762,0.82941 -8.59615,1.87994 -10.80869,4.83064c-0.20342,0.27129 0.2925,1.18076 0.2925,1.50832c0,2.622 -0.01898,6.84411 -0.01558,9.4661c0.00852,6.56475 0.71127,13.06728 0.71127,19.73436c0,3.0074 -2.23415,7.01624 -6.02658,4.84914c-0.02279,-0.01302 -0.04518,-0.02645 -0.06718,-0.04028c-0.11653,0.01274 -0.23942,0.01946 -0.36904,0.01946c-2.5,0 -2.5,-2.5 -2.5,-2.5c0,-11.32569 0,-22.65138 0,-33.97707c-1.75518,-3.86203 -2.95652,-12.81093 -3.27059,-14.85201c-0.43072,-2.7992 -0.67193,-4.35631 -0.60873,-7.71047c0.00368,-0.19555 0.01285,-0.39159 0.02653,-0.58803c-1.04391,-5.42582 -0.30299,-14.27395 -0.30299,-16.14276z" fill="#6681ff" stroke="none" stroke-width="0.5"/><path d="M149.85565,55.85099l0.5194,-0.06492l0.78517,-0.21414l0.197,-0.00419l0.18471,-0.06861l0.78265,-0.08696l0.13951,0.01885l0.13657,-0.03414h0.04788l0.16201,-0.09001l0.01846,-0.0323l0.6416,-0.1604l0.45092,-0.12098l0.03798,-0.06647l0.31164,-0.07791l0.27545,-0.16527l0.18443,0.0503l0.47848,-0.11962h0.26088l1.25,0.3125l0.2367,0.41423l0.02018,0.0055l0.01555,0.05703l0.06847,0.11983l0.59659,0.34091l0.19962,0.79847l0.00305,0.00265l0.00056,0.01178l0.10927,0.43709v0.34785l-0.06039,0.24157l0.01184,0.24872l-0.08696,0.43481l-0.11195,0.23634l-0.04164,0.25817l-0.78265,1.82619l-0.12394,0.16308l-0.06477,0.19432l-0.60328,0.948l-0.42942,0.68707l-0.20541,0.19808l-0.14682,0.24469l-0.86962,0.86962l-0.21352,0.12811l-0.1675,0.18425l-0.05491,0.03661l-0.52643,0.52643l-0.0231,0.03631l-0.02676,0.19176l-0.1763,0.12733l-0.11675,0.18347l-0.18986,0.03797l-0.56162,0.40562l-0.12781,0.05112l-0.08333,0.06249l-0.06547,0.02757l-0.04778,0.05256l-0.26088,0.17392l-0.14877,0.05313l-0.11994,0.10281l-0.34785,0.17392l-0.17566,0.03903l-0.15181,0.09661l-0.05126,0.01709c2.05932,4.4381 3.6925,12.03724 -0.82627,11.50317c-2.87936,-0.34031 -5.53739,-3.80309 -7.17687,-6.49691c-2.60912,2.24075 -6.16765,4.04698 -7.73643,4.72635c-1.19548,0.51771 -3.00834,1.43443 -4.33775,0.58844c-2.76709,-1.76087 -0.67833,-6.99287 1.45329,-10.58337c-1.35794,-0.56998 -2.70987,-1.15054 -4.03838,-1.77071c-0.99612,-0.46501 -3.37682,-1.5611 -3.6951,-2.83423c-1.16613,-4.66453 7.47317,-5.96637 10.87225,-4.36384c0.6698,-0.99066 1.46886,-1.93052 2.08835,-2.91263c1.15767,-1.83531 1.91314,-9.06869 5.7976,-7.2302c2.11106,0.99915 4.50231,5.42377 6.36345,8.60993z" fill="#fd66ff" stroke="none" stroke-width="0.5"/><path d="M412.11899,-25.43822c3.71141,0 7.60654,0.29355 11.30059,0.0129c2.16234,-0.16428 4.23778,-1.01439 6.40146,-1.16004c1.66188,-0.11186 3.34527,0.24097 4.99688,0.02518c3.0002,-0.39197 5.77254,-1.94619 8.77457,-2.32386c4.85947,-0.61134 10.46074,-0.59388 15.35126,-0.60077c3.08311,0 6.16819,-0.1102 9.24933,0c1.38328,0.04947 3.00209,-0.47364 4.14063,0.31351c1.69716,1.17337 2.83127,3.12121 3.59798,5.03674c0.31359,0.78346 -0.01023,6.24593 0.10079,7.44372c0.22108,2.3852 0.01884,4.82503 0.5201,7.16742c0.25258,1.18033 1.32835,2.05727 1.66171,3.21737c0.15828,0.55081 -0.62548,1.26983 -0.24827,1.70129c0.2965,0.33913 0.76213,-0.55855 1.21063,-0.60054c2.87782,-0.26948 5.78084,0 8.67125,0c6.36842,0 12.88946,-0.40921 19.24138,0.00512c3.00891,0.19627 5.89407,1.29487 8.87411,1.75474c2.40896,0.37175 4.87976,0.24597 7.28344,0.65047c4.478,1.77189 10.98043,4.04754 14.45549,7.61504c4.57272,4.69435 5.43569,15.3251 3.58447,21.27049c-1.3831,4.44196 -5.71318,10.01768 -8.65359,13.54911c-0.73114,0.87809 -1.45753,1.81071 -2.41365,2.43533c0.10627,0.01405 0.20785,0.04641 0.30281,0.10562c6.59634,4.11239 7.8798,13.28219 4.80245,19.98773c-0.70903,1.54496 -2.13072,2.64925 -3.1961,3.97388c-0.16151,0.21175 -0.32301,0.42351 -0.48452,0.63527c2.30654,1.92586 7.22101,6.0327 7.3775,6.19848c3.86024,4.0892 6.98178,9.33605 9.60829,14.25858c0.9581,1.79564 2.23326,3.46179 2.84272,5.40366c1.01906,3.24695 0.44239,6.79194 0.6305,10.18986c0.284,5.13011 0.568,10.26022 0.852,15.39033c0.10142,1.83218 0.36558,3.66259 0.30428,5.49654c-0.04063,1.2156 -1.29509,2.594 -0.60825,3.59779c0.49869,0.72881 1.67978,-1.03725 2.52813,-0.79197c1.55349,0.44914 2.72703,1.74217 4.03718,2.6901c5.09553,3.68674 11.34232,8.16397 15.55241,12.80604c2.14232,2.36214 3.19618,5.51925 4.77429,8.29032c2.54198,4.46361 6.97559,10.03034 8.4211,14.93496c0.57809,1.96146 0.28616,4.07976 0.41327,6.12068c0.34085,5.47312 0.50972,10.96539 0.92693,16.43311c0.27072,3.54794 0.60947,7.09121 1.00875,10.62699c0.13375,1.18441 -0.45905,2.83421 0.50106,3.54053c0.96198,0.70768 2.43388,-1.02705 3.53712,-0.56982c2.13023,0.88285 6.39693,5.71521 8.10535,7.56045c1.28376,1.38656 5.96061,6.51802 6.23694,7.00731c0.61612,1.0909 0.42739,2.46943 0.60217,3.71005c1.20015,8.51925 0.68951,16.82152 -1.86558,25.06164c-2.33617,7.31987 -6.466,12.85821 -11.48999,18.64145c-2.32538,2.67681 -4.207,5.71 -6.38578,8.50744c-0.77649,0.99696 -2.34237,1.45728 -2.6887,2.67256c-0.16978,0.5958 1.27904,0.2328 1.74411,0.64208c1.19267,1.04961 2.44795,2.17176 3.09964,3.62071c1.06544,2.36882 1.34838,9.1697 1.10918,11.57331c-1.09551,11.00801 -9.06498,22.06146 -15.92961,30.34378c-3.63911,4.39067 -8.87981,7.6014 -12.05937,12.13586c3.87384,3.34361 3.40364,7.09498 3.68215,12.03962c0.06814,1.20964 0.5406,9.68395 0.52568,9.97634c-0.1542,3.02123 -1.38838,5.8901 -1.98043,8.85675c-0.91042,4.56197 -0.17831,6.09647 -3.30915,9.34057c-0.884,0.91598 -2.14191,1.38411 -3.13667,2.17841c-1.41286,1.12811 -2.39627,2.9081 -4.07488,3.57976c-1.87827,0.75155 -4.03167,0.34537 -6.05076,0.4718c-5.49617,0.34416 -11.44253,0.76375 -16.93692,0.32513c-2.88384,-0.23021 -5.58556,-1.62128 -8.46232,-1.9275c-1.2337,-0.13132 -2.47573,0.296 -3.71476,0.23229c-1.21468,-0.06244 -2.39444,-0.78515 -3.59779,-0.60825c-0.43825,0.06443 0.77214,0.57676 0.86334,1.01023c0.28851,1.37124 0.15491,2.79824 0.23237,4.19736c0.22329,4.39523 0.36652,9.84868 -2.16473,13.76143c-2.90904,4.49673 -9.12749,6.02401 -13.8158,7.57889c-8.92072,2.95855 -18.49922,2.5797 -27.85289,3.06037c-8.92337,0.45855 -18.37568,1.22712 -26.97059,-1.85374c-1.77315,-0.63559 -3.28843,-1.85472 -5.02371,-2.58739c-1.74972,-0.73877 -3.71156,-0.94709 -5.40131,-1.81429c-3.50953,-1.80115 -6.12614,-6.26098 -9.98161,-6.78278c-6.29337,5.17112 -14.11309,8.54347 -21.38016,12.10197c-10.25937,5.02375 -22.09057,10.40014 -33.37149,12.61158c-5.02861,0.98578 -10.82444,0.62164 -15.93868,0.90476c-6.99285,0.38712 -13.67069,0.89985 -20.43937,-1.50733c-3.60724,-1.28286 -4.9247,-3.08145 -7.63171,-5.63945c-18.59025,-0.57719 -37.17617,3.23129 -55.77084,1.83674c-5.27809,-0.39584 -6.56424,-0.38493 -11.55506,-2.3629c-4.42795,-1.75489 -8.34206,-4.77985 -13.07478,-5.7789c-6.06753,-1.28082 -12.32244,-0.28366 -18.46564,-0.06615c-4.17663,2.87849 -8.87074,3.7868 -13.71421,5.16624c-11.08679,3.15756 -21.71361,4.10803 -33.16994,4.74224c-6.83975,0.37864 -13.43096,0.88473 -20.2238,-0.37491c-2.08198,-0.38607 -4.25449,-0.6332 -6.1574,-1.56197c-3.04796,-1.48764 -9.03424,-8.12707 -10.69372,-10.81021c-0.64823,-1.04809 -1.26036,-2.64563 -1.44942,-4.17177c-0.8432,0.66097 -1.68005,1.33529 -2.68448,1.65777c-2.56608,0.82385 -7.68845,0.2128 -10.24499,-0.09716c-10.60515,-1.28583 -20.8991,-6.67568 -29.52134,-12.80509c-7.04813,-5.04175 -14.23458,-11.36842 -16.61904,-20.14082c-0.0991,-0.36459 -0.66206,-10.86422 -0.70073,-11.56292c-0.04963,-0.89647 -0.14154,-2.05163 -0.22436,-3.3519c-11.23317,-0.19246 -21.83968,-6.54014 -28.56854,-15.40187c-1.21909,-1.67936 -2.8502,-3.12625 -3.65727,-5.03806c-0.69174,-1.63865 -0.48484,-3.52428 -0.70249,-5.28958c-0.62419,-5.06243 -0.7845,-6.11131 -0.88106,-11.23147c-0.00785,-0.41656 0.06792,-11.2854 0.10025,-11.49007c0.0422,-0.26716 3.2691,-10.40693 3.42492,-10.89733c2.67887,-8.43088 6.30619,-16.62306 10.9978,-24.1257c2.52492,-4.03776 4.86021,-8.11167 7.25776,-12.22523c0.63995,-1.09798 1.14204,-2.30224 1.77002,-3.41083c-2.16886,-0.3532 -4.33452,-0.87774 -6.53958,-1.6147c-1.23242,-0.22897 -2.65591,0.01083 -3.69725,-0.68693c-8.01147,-5.36812 -8.93903,-14.69375 -9.11426,-23.36106c-0.15902,-7.86556 1.62541,-14.99687 4.17019,-22.41952c3.83185,-11.17679 8.37859,-21.08879 17.35318,-29.18297c2.65213,-2.39196 5.39465,-5.1175 8.49927,-6.89547c-2.04396,0.03267 -4.08114,0.00249 -6.08357,-0.36341c-0.30505,-0.05574 -10.10804,-3.57552 -10.69982,-3.78725c-1.33425,-0.36342 -9.19151,-2.49327 -9.51393,-2.63893c-3.14701,-1.42173 -5.66601,-3.94999 -8.45973,-5.97979c-1.6874,-1.226 -3.64063,-2.16476 -5.03329,-3.71747c-2.99675,-3.34113 -4.02657,-9.43998 -4.26552,-13.70249c-0.55113,-9.83164 1.08177,-18.44418 3.52446,-27.93796c2.194,-8.52721 6.07961,-17.90522 12.49196,-24.03311c0.7958,-0.76049 1.48472,-1.68008 2.25215,-2.48453c-5.90229,-1.61804 -10.91481,-4.13347 -16.60172,-7.15167c-2.25862,-1.45976 -7.54989,-4.60767 -9.27341,-6.80536c-3.93327,-5.01537 -3.38584,-8.92183 -3.07579,-14.74776c0.22921,-4.30701 -0.02338,-8.13001 2.28944,-12.08032c1.88921,-3.22678 6.76044,-6.53411 9.75461,-8.83741c5.73443,-4.4113 11.42097,-9.20086 18.53257,-11.29319c4.36731,-1.28494 10.38551,-0.62468 14.90793,-0.87503c0.02088,-0.00116 0.0427,-0.00236 0.06543,-0.00362c-3.50136,-5.65559 -1.74378,-13.24891 -0.08209,-19.34432c0.5351,-1.96284 2.15438,-8.55442 3.36718,-10.38855c0.35603,-0.53841 0.74036,-1.02629 1.14812,-1.47443c-0.20648,-0.37719 -0.32388,-0.8101 -0.32388,-1.27044c0,-0.85903 0.4088,-1.62257 1.04249,-2.1067c-1.93322,0.03913 -3.86109,-0.05411 -6.05728,-0.21232c-1.02495,-1.77752 -2.8719,-3.29076 -3.07485,-5.33256c-0.14032,-1.41168 1.4339,-2.44863 2.18155,-3.65426c2.61402,-4.21524 5.81989,-5.1883 10.08839,-7.73266c2.83915,-1.69235 6.09079,-2.5758 9.19297,-3.71655c6.11743,-2.24955 12.46354,-5.38201 19.11808,-5.89923c6.72477,-0.52268 13.70533,-0.00903 20.45145,-0.00903c2.89041,0 5.78084,0 8.67125,0c1.69149,0 3.43757,0.52583 5.07358,0.09614c1.70653,-0.44822 2.37956,-1.91842 3.30673,-3.2016c13.64482,-14.35032 33.59968,-15.02026 52.05058,-12.39505c0.31425,0.04471 10.64486,1.67981 10.79831,1.72148c7.97465,2.1652 16.69847,6.26218 23.95153,10.21999c1.59632,0.87108 3.25114,1.70041 4.62874,2.88751c0.31347,0.27013 0.57626,0.58803 0.81203,0.92984c4.92708,-9.54703 14.33592,-19.20934 25.42873,-21.58968c4.78026,-1.02577 10.86411,0.3335 15.52829,1.26682c8.0051,1.60186 15.59038,4.59562 23.07963,7.83477c4.59063,1.98548 11.03293,3.68753 15.08216,6.59085c1.58782,1.13848 2.65952,2.86299 3.97518,4.30739c1.03381,1.13498 2.38077,2.06926 3.25252,3.31228c0.37117,-0.64376 0.74233,-1.28752 1.1135,-1.93128c2.28705,-3.78562 5.75759,-9.32928 9.16748,-12.22075c3.51488,-2.98049 9.46566,-2.28336 13.65509,-2.28081c3.03812,0.00185 7.09929,-0.22144 10.13346,0.60107c5.0408,1.36646 10.28298,4.04726 15.1036,6.07144c5.65553,2.37475 10.1976,3.97297 14.39118,8.64244c1.23373,1.37373 2.74211,2.63784 3.42523,4.35322c0.56519,1.41927 -0.08904,3.06957 0.13265,4.58106c0.00775,0.05282 0.0161,0.10551 0.02502,0.15807c2.05741,0.89691 4.11684,1.80468 6.18322,2.70951c0.20281,0.0888 0.40574,0.17748 0.60878,0.26601c3.18549,0.25541 6.69043,-0.2129 9.63579,-0.2129zM400.2103,-20.21088c-0.95384,-0.13989 -1.88604,-0.34421 -2.78467,-0.63621c-0.65941,-0.21427 -1.29921,-0.47837 -1.92949,-0.76696c-0.16884,0.08317 -0.35803,0.15628 -0.56985,0.2168c-2.5476,0.72788 -3.27549,-1.81972 -3.27549,-1.81972c-0.02819,-0.1008 -0.05733,-0.2014 -0.08721,-0.30184c-0.21899,-0.09654 -0.43936,-0.18967 -0.66153,-0.27834c0,0 -0.80627,-0.32251 -1.31102,-1.05984c-0.90916,-0.39031 -1.81881,-0.77687 -2.72941,-1.15829c0.84809,-0.25248 1.66861,-0.55464 2.45552,-0.91482c0.03016,-0.10097 0.06629,-0.20466 0.10888,-0.31112c0.25771,-0.64426 0.61665,-1.05231 1.00612,-1.30367c0.11273,-0.88099 0.41562,-1.77721 0.1188,-2.59117c-0.39929,-1.09493 -1.55238,-1.7393 -2.35561,-2.58378c-1.07669,-1.13199 -1.99009,-2.46798 -3.2832,-3.34464c-2.77806,-1.88336 -6.15203,-2.68593 -9.24658,-3.98533c-5.61151,-2.35628 -11.89611,-5.96249 -18.04954,-6.26429c-3.41504,-0.16749 -7.66803,-0.29776 -11.13745,-0.00786c-0.49642,0.04148 -3.92749,0.72233 -4.43023,1.20058c-2.92945,2.78681 -5.79749,7.29891 -7.84691,10.74113c-0.6996,1.10644 -1.39921,2.21289 -2.0988,3.31933v2.9133c0,1.4633 -1.18625,2.64955 -2.64955,2.64955c-1.01512,0 -1.8969,-0.57086 -2.34182,-1.40907l-2.43504,-4.38307c-0.89478,-0.95972 -1.86423,-2.02386 -3.31569,-3.64379c-1.0538,-1.17612 -1.84865,-2.63431 -3.13203,-3.5545c-3.74108,-2.68237 -9.86313,-4.20093 -14.0985,-6.0339c-7.14275,-3.09122 -14.38019,-5.97598 -22.01474,-7.50203c-3.88429,-0.77642 -9.36832,-2.13907 -13.389,-1.27936c-1.51493,0.32392 -2.83815,1.24599 -4.224,1.93835c-7.66283,3.82835 -13.28523,8.54818 -17.31048,16.08794c-0.4969,1.61796 0.16037,4.48142 -1.49068,4.8539c-2.57032,0.57986 -9.05361,-4.31443 -11.48268,-5.6399c-6.90025,-3.7653 -15.23588,-7.70692 -22.8193,-9.76245c-3.30145,-0.89488 -6.75223,-1.10254 -10.1387,-1.58437c-16.3874,-2.33161 -35.06836,-2.37663 -47.25376,10.56564c-1.97348,2.55662 -2.38659,3.75433 -5.9426,4.89157c-1.14264,0.36543 -2.39815,0.07836 -3.59767,0.09614c-3.8524,0.05708 -7.70875,0 -11.56167,0c-6.6124,0 -13.41969,-0.46916 -20.01438,-0.00903c-6.14515,0.42876 -12.11333,3.52889 -17.74945,5.60014c-1.48404,0.54538 -3.13113,0.57061 -4.6009,1.15337c-1.23295,0.48886 -7.65572,4.66852 -8.32295,5.02156c-0.78297,0.41429 -1.83322,0.3116 -2.50391,0.89027c-0.38322,0.33064 -2.41936,3.47671 -2.15515,3.77758c2.65109,-0.4215 5.64536,-0.77801 8.30345,-0.91297c1.37402,-0.06976 2.97221,-0.56149 4.12289,0.19265c5.9672,3.91088 3.99249,6.45121 0.53775,8.2973c0.0487,0.02406 0.09741,0.04811 0.14612,0.07214c-1.93627,1.17445 -5.5935,2.97105 -6.92218,5.03734c-2.07833,3.2321 -2.92937,8.75962 -3.67561,12.50997c-1.07819,5.41861 -1.62148,10.9226 3.65845,13.79601c0.57599,-0.02477 0.94578,-0.03573 0.97549,-0.02468c0.16437,0.06108 0.32417,0.12997 0.47992,0.2058l0.02919,-0.08656l3.00375,1.01278c1.06534,0.33195 1.8643,1.29688 1.9296,2.47655c0.08402,1.51783 -1.0783,2.81639 -2.59613,2.90042c-0.28415,0.01573 -0.56061,-0.01222 -0.82287,-0.078l-3.34481,-0.75849c-1.37294,0.38584 -2.944,0.01812 -4.39339,0.10752c-5.14195,0.31714 -11.88671,-0.61693 -16.77216,0.87876c-6.32371,1.936 -11.39554,6.38504 -16.51586,10.31788c-2.54492,1.95472 -6.78854,4.65807 -8.43702,7.38357c-1.52986,2.52939 -1.32977,6.76898 -1.46437,9.45411c-0.21204,4.22996 -1.08849,7.43436 1.84286,10.98233c1.25908,1.52393 6.40819,4.64346 7.79397,5.53794c6.09517,3.22766 11.33937,5.98135 18.1351,7.32284l3.94248,-0.21825c1.51783,-0.08402 2.81639,1.0783 2.90042,2.59613c0.06074,1.09711 -0.52971,2.07967 -1.43491,2.57181l-4.72841,2.70072l-0.18143,-0.31765c-2.39323,2.12137 -4.73329,4.33813 -6.28115,6.52059c-2.03043,2.8629 -3.0684,6.3136 -4.62857,9.4576c-4.29752,8.66021 -7.13142,20.33504 -6.96116,30.03832c0.09644,5.49598 0.34514,8.42293 2.40963,13.44397c0.33887,0.82417 0.32916,1.85368 0.93975,2.50271c1.08599,1.15434 2.63131,1.7677 3.93104,2.67466c2.56773,1.79175 4.76443,4.21091 7.6231,5.48825c2.77486,1.2399 5.87509,1.55975 8.80673,2.36146c3.34955,1.19565 6.53677,2.98553 10.03574,3.62288c3.47671,0.63328 7.06712,0.11668 10.59927,0.22838l2.88254,0.09119c1.42491,0.02953 2.60822,1.15321 2.6883,2.59982c0.05365,0.96908 -0.40076,1.84877 -1.13138,2.38006l-4.37046,3.27651c-4.22666,4.40455 -10.00617,7.11761 -14.06156,11.82954c-6.10702,7.09569 -9.16016,14.52155 -12.15704,23.23935c-1.66072,4.83093 -3.50862,10.21153 -4.00614,15.33418c-0.16688,1.71823 0.09178,3.45141 0.13289,5.17723c0.14497,6.08633 0.39205,18.18873 8.58243,18.81328c3.75603,1.27812 7.34021,1.87491 11.06833,2.03034c1.91028,-0.82403 4.01222,-1.18842 5.93566,-0.66669c0.0884,0.02397 0.17603,0.04981 0.26291,0.0774l0.00747,-0.05225l2.98084,0.42643c1.29728,0.1596 2.33417,1.2289 2.40896,2.57982c0.08402,1.51783 -1.0783,2.81639 -2.59613,2.90042l-2.99811,0.16598c-1.65723,0.08983 -3.27409,0.12911 -4.86623,0.10275c-0.5971,0.34941 -1.14199,0.79031 -1.58352,1.30624c-1.05281,1.23021 -1.55523,2.84062 -2.35079,4.25093c-6.55755,11.6247 -13.71554,22.43765 -17.78275,35.27536c-1.06686,3.3674 -2.68342,6.60227 -3.23455,10.09137c-0.54762,3.46683 -0.09731,7.02015 -0.03378,10.52938c0.06482,3.57941 0.47468,7.14594 0.84622,10.7066c0.1348,1.29186 -0.16547,2.68805 0.34825,3.88101c0.63097,1.46526 1.96464,2.51411 2.94696,3.77117c4.67553,6.33125 12.90608,12.10729 20.93547,13.4063c1.01085,0.16353 2.03234,0.22172 3.05798,0.21268c0.05943,-7.31803 1.82869,-14.86675 11.45506,-9.05041c1.56458,0.94534 0.83972,3.57099 1.00109,5.39184c0.4146,4.67795 0.65,6.41728 -4.57445,8.32503c-0.7089,0.25886 -1.45202,0.36068 -2.20943,0.39427c0.08297,1.02364 0.16239,2.04741 0.2191,3.07188c0.19228,3.47337 -0.39604,7.06638 0.51641,10.42327c2.03091,7.47172 8.51147,12.84504 14.50288,17.10258c7.82084,5.59518 17.32119,10.67724 26.97267,11.82049c3.8003,0.45016 6.61016,1.19329 9.72696,-1.02554l3.2366,-3.61596l0.83052,0.74339l2.13154,-1.50494c0.30828,0.83773 0.65975,1.66221 0.99458,2.49179l0.84254,-0.04664l0.16598,2.99811c0.14499,0.58501 -0.03118,4.43096 0.63021,5.39188c1.39035,2.02002 6.03166,7.4384 8.4236,8.58114c5.01004,2.39352 12.63514,1.92249 18.02306,1.61953c12.86538,-0.7234 25.00194,-1.29111 37.46205,-4.84416c4.88223,-1.39219 9.20273,-2.36999 13.49517,-5.09886c7.1181,-0.50352 14.35382,-1.56615 21.40998,-0.07589c5.05766,1.06817 9.19213,4.13158 13.90314,6.0367c4.22862,1.71004 5.36942,1.66074 9.91157,1.98365c19.15569,1.36184 38.42049,-3.20548 57.51097,-1.41776c1.54702,1.32526 4.91701,4.72068 7.42315,5.55635c7.72429,2.57564 15.75699,1.30056 23.69862,0.86091c3.248,-0.17981 6.55399,0.11382 9.74519,-0.51708c6.07866,-1.20175 12.4369,-3.95843 18.19762,-6.24061c12.69616,-5.02973 24.66529,-11.05 36.19063,-18.39295c1.81185,0.18458 3.76799,-0.17849 5.43553,0.55373c3.27124,1.43644 5.20916,5.05222 8.40287,6.65365c1.58286,0.7937 3.41747,0.96295 5.04912,1.65083c1.64606,0.69397 3.07109,1.87158 4.75044,2.48058c4.42548,1.60485 9.32596,1.87509 13.94519,1.84357c7.30058,-0.04981 14.57155,-0.49269 21.86083,-0.89273c5.60921,-0.30784 10.07213,-0.41426 15.41098,-2.20145c3.0976,-1.03692 8.98884,-2.16547 10.91931,-5.32415c1.80913,-2.96014 1.50228,-7.23059 1.30447,-10.48907c-0.06464,-1.16753 -0.69113,-8.40854 0.29903,-9.18337c1.96747,-1.53959 4.91518,-0.91646 7.3953,-1.21682c4.77967,-0.57885 8.48871,1.37301 13.07278,1.71866c3.5368,0.26668 7.09447,-0.0048 10.64004,-0.09993c1.81478,-0.0487 3.62595,-0.1952 5.44053,-0.25069c1.38976,-0.0425 2.88482,0.48496 4.171,-0.04322c1.22176,-0.50172 1.77632,-1.96652 2.78866,-2.81481c1.2634,-1.05867 3.21018,-1.4893 3.71967,-3.32056c1.63541,-5.87814 2.69496,-12.26705 2.34212,-18.32475c-0.20364,-3.49622 0.63419,-8.7773 -1.02355,-11.9513c-0.72756,-1.39303 -1.89677,-2.50632 -2.84515,-3.75949c0.94132,-2.16975 1.48532,-4.55939 2.82395,-6.50924c0.73695,-1.07343 2.21856,-1.38696 3.19125,-2.25253c2.62076,-2.3321 5.02335,-4.91655 7.26203,-7.61756c6.09384,-7.35234 13.74923,-17.54812 14.68919,-27.3668c0.0841,-0.87852 -0.00087,-7.30602 -0.59341,-8.65562c-0.9124,-2.07813 -5.40966,-3.56841 -5.34772,-5.99931c0.06209,-2.43737 2.32869,-4.28593 3.58004,-6.37848c5.41293,-9.05173 14.04075,-15.4206 17.19803,-25.73326c1.70851,-5.39664 2.87983,-11.69193 2.33925,-17.39754c-0.16876,-1.78112 -0.48511,-3.54558 -0.68116,-5.32391c-0.07654,-0.69434 0.23225,-1.49779 -0.13628,-2.09121c-1.75886,-2.83213 -6.05391,-6.49965 -8.38832,-8.92024c-0.90779,-0.9413 -1.55721,-2.30668 -2.78127,-2.76689c-1.51598,-0.56996 -3.67176,0.99799 -4.85761,-0.1051c-1.83077,-1.70301 -2.12404,-4.5574 -2.75555,-6.97674c-1.80492,-6.91468 -1.32305,-15.22594 -1.72446,-22.33836c-0.19501,-3.45522 0.47056,-7.05014 -0.50762,-10.36974c-0.45932,-1.55876 -1.66172,-2.7932 -2.47583,-4.19959c-1.8386,-3.1762 -3.63231,-6.37818 -5.44847,-9.56727c-1.41264,-2.48054 -2.26106,-5.36727 -4.19782,-7.4643c-4.12394,-4.46522 -9.9516,-8.1489 -14.69008,-11.98404c-0.73739,-0.59682 -1.31971,-1.49021 -2.2246,-1.77494c-1.48932,-0.46862 -3.72623,0.85214 -4.66735,-0.39364c-1.08458,-1.43567 -1.39468,-10.60822 -1.52111,-12.89186c-0.284,-5.13011 -0.568,-10.26022 -0.852,-15.39033c-0.16598,-2.99823 0.49171,-6.1408 -0.43173,-8.99809c-0.5028,-1.55575 -1.60356,-2.84987 -2.38875,-4.28397c-2.4606,-4.49412 -5.21602,-9.33325 -8.76753,-13.09541c-2.19193,-2.32194 -4.84259,-4.15599 -7.34076,-6.15293l-0.08678,0.0662c0,0 -0.20465,0.15349 -0.53447,0.30149c0.05761,-0.10803 0.11386,-0.21685 0.16867,-0.32648c0.73334,-1.46667 0.06657,-5.02134 -0.93695,-8.2582c0.35748,0.06225 0.70979,0.1505 1.05524,0.27313c0.20267,0.07194 0.39062,0.16714 0.56706,0.28056c0.01885,-0.02567 0.03771,-0.05135 0.05656,-0.07702c3.07524,-3.57807 5.5903,-9.85569 1.81339,-13.96622c-0.80653,-0.87777 -1.65167,-1.72067 -2.51937,-2.53801c-1.26942,-1.19574 -3.7117,-1.76409 -3.88955,-3.49891c-0.18543,-1.8087 1.94517,-3.07993 3.06852,-4.50957c1.61929,-2.06082 3.58676,-3.85435 5.03688,-6.03752c3.88159,-5.84375 6.43882,-10.93452 4.66718,-18.05654c-0.30595,-1.2299 -0.97708,-4.52736 -2.18897,-5.68775c-3.00897,-2.88109 -8.37348,-4.73281 -12.13634,-6.25897c-11.36381,-1.86949 -22.37438,-2.21433 -33.97107,-2.21433c-2.89041,0 -5.78628,0.17728 -8.67125,0c-1.5336,-0.09424 -3.36062,0.34695 -4.57021,-0.60054c-1.13217,-0.88687 -0.85689,-2.74969 -1.40444,-4.07955c-0.5248,-1.2746 -1.51764,-2.37189 -1.80678,-3.71964c-0.55157,-2.57097 -0.40225,-5.24368 -0.63607,-7.86275c-0.14775,-1.65506 1.12539,-7.11006 -0.92589,-8.33054c-0.47836,-0.28461 -1.08427,0.28568 -1.64021,0.31351c-3.07926,0.1541 -6.16622,0 -9.24933,0c-4.71495,-0.0073 -10.08414,-0.01253 -14.76875,0.56866c-2.91446,0.36158 -5.59814,1.89256 -8.50825,2.28755c-1.78652,0.24249 -3.60965,-0.09357 -5.40863,0.02518c-1.90162,0.12553 -3.73307,0.80962 -5.61805,1.07513c-1.44041,-0.45288 -2.95201,-0.68764 -4.4279,-1.01794c-3.29389,-0.73716 -10.76735,1.49341 -14.32035,3.47541c-1.90089,-0.80523 -3.79596,-1.61655 -5.68152,-2.43917zM89.75935,347.15993c0.27837,-0.03479 0.55621,-0.06971 0.8334,-0.10397c0.47199,-0.05834 1.17091,-0.11999 1.30521,-0.57621c0.21418,-0.72758 -0.50386,-1.46583 -0.48094,-2.22393c0.01916,-0.6336 0.9779,-1.29266 0.60276,-1.80363c-0.37792,-0.51476 -1.52792,-0.49211 -1.91572,0.01526c-0.60681,0.7939 -0.36366,1.97562 -0.36973,2.97485c-0.00349,0.57287 0.00597,1.14538 0.02501,1.71763zM529.16483,42.21655c-0.45211,-0.01948 -0.80835,-0.07492 -0.53371,-0.00552c0.17003,0.04297 0.3504,0.03387 0.53371,0.00552z" fill="#7631ff" stroke="none" stroke-width="0.5"/><path d="M400.22886,-20.25734c1.88556,0.82262 3.78195,1.63449 5.68284,2.43972c3.553,-1.982 11.02883,-4.21147 14.32272,-3.47431c1.47589,0.3303 2.98836,0.5655 4.42877,1.01838c1.88498,-0.26551 3.71729,-0.94914 5.61891,-1.07467c1.79898,-0.11875 3.623,0.21781 5.40952,-0.02468c2.91011,-0.39499 5.59492,-1.9253 8.50938,-2.28688c4.68461,-0.58119 10.0559,-0.57461 14.77085,-0.56731c3.08311,0 6.17131,0.15497 9.25057,0.00087c0.55594,-0.02783 1.16203,-0.59799 1.64039,-0.31338c2.05128,1.22048 0.77906,6.67617 0.92681,8.33123c0.23382,2.61907 0.08536,5.29246 0.63693,7.86343c0.28914,1.34775 1.28258,2.44553 1.80738,3.72013c0.54755,1.32986 0.27286,3.19318 1.40503,4.08005c1.20959,0.94749 3.03722,0.50683 4.57082,0.60107c2.88497,0.17728 5.78182,0.00089 8.67223,0.00089c11.59669,0 22.61068,0.34836 33.97449,2.21785c3.76286,1.52616 9.12886,3.37966 12.13783,6.26075c1.21189,1.16039 1.88368,4.45869 2.18963,5.68859c1.77164,7.12202 -0.78427,12.21459 -4.66586,18.05834c-1.45012,2.18317 -3.41736,3.97704 -5.03665,6.03786c-1.12335,1.42964 -3.25372,2.7012 -3.06829,4.5099c0.17785,1.73482 2.6207,2.30403 3.89012,3.49977c0.8677,0.81734 1.71322,1.66084 2.51975,2.53861c3.77691,4.11053 1.26301,10.39011 -1.81223,13.96818c-0.01885,0.02567 -0.12485,0.10041 -0.1437,0.12608c-0.17644,-0.11342 -0.36434,-0.20852 -0.56701,-0.28046c-0.34545,-0.12263 -0.6108,-0.26026 -0.96828,-0.32251c1.00352,3.23686 1.67107,6.79296 0.93773,8.25963c-0.05481,0.10963 -0.11104,0.21849 -0.16865,0.32652c0.32982,-0.148 0.44598,-0.25491 0.44598,-0.25491l0.17526,-0.11279c2.49817,1.99694 5.14967,3.83265 7.3416,6.15459c3.55151,3.76216 6.30824,8.60425 8.76884,13.09837c0.78519,1.4341 1.88632,2.72916 2.38912,4.28491c0.92344,2.85729 0.26636,6.00155 0.43234,8.99978c0.284,5.13011 0.56892,10.26324 0.85292,15.39335c0.12643,2.28364 0.43717,11.45886 1.52175,12.89453c0.94112,1.24578 3.17809,-0.0747 4.66741,0.39392c0.90489,0.28473 1.4873,1.17857 2.22469,1.77539c4.73848,3.83514 10.56661,7.52167 14.69055,11.98689c1.93676,2.09703 2.78537,4.9853 4.19801,7.46584c1.81616,3.18909 3.61004,6.393 5.44864,9.5692c0.81411,1.40639 2.01656,2.64166 2.47588,4.20042c0.97818,3.3196 0.31267,6.91649 0.50768,10.37171c0.40141,7.11242 -0.08059,15.42789 1.72433,22.34257c0.63151,2.41934 0.92467,5.27498 2.75544,6.97799c1.18585,1.10309 3.34164,-0.46493 4.85762,0.10503c1.22406,0.46021 1.87343,1.82604 2.78122,2.76734c2.33441,2.42059 6.62929,6.08949 8.38815,8.92162c0.36853,0.59342 0.05969,1.39722 0.13623,2.09156c0.19605,1.77833 0.51227,3.54368 0.68103,5.3248c0.54058,5.70561 -0.63131,12.00388 -2.33982,17.40052c-3.15728,10.31266 -11.78649,16.68651 -17.19942,25.73824c-1.25135,2.09255 -3.51838,3.94233 -3.58047,6.3797c-0.06194,2.4309 4.43509,3.92181 5.34749,5.99994c0.59254,1.3496 0.67701,7.77837 0.59291,8.65689c-0.93996,9.81868 -8.59766,20.01932 -14.6915,27.37166c-2.23868,2.70101 -4.64215,5.28701 -7.26291,7.61911c-0.97269,0.86557 -2.45462,1.17964 -3.19157,2.25307c-1.33863,1.94985 -1.88328,4.34054 -2.8246,6.51029c0.94838,1.25317 2.11744,2.3667 2.845,3.75973c1.65774,3.174 0.81902,8.4564 1.02266,11.95262c0.35284,6.0577 -0.7083,12.44877 -2.34371,18.32691c-0.50949,1.83126 -2.45677,2.26252 -3.72017,3.32119c-1.01234,0.84829 -1.56731,2.31359 -2.78907,2.81531c-1.28618,0.52818 -2.78153,0.00106 -4.17129,0.04356c-1.81458,0.05549 -3.62615,0.20246 -5.44093,0.25116c-3.54557,0.09513 -7.10405,0.36752 -10.64085,0.10084c-4.58407,-0.34565 -8.29403,-2.29652 -13.0737,-1.71767c-2.48012,0.30036 -5.4286,-0.32199 -7.39607,1.2176c-0.99016,0.77483 -0.36453,8.01668 -0.29989,9.18421c0.19781,3.25848 0.50361,7.5299 -1.30552,10.49004c-1.93047,3.15868 -7.82327,4.28857 -10.92087,5.32549c-5.33885,1.78719 -9.80366,1.8951 -15.41287,2.20294c-7.28928,0.40004 -14.56305,0.84487 -21.86363,0.89468c-4.61923,0.03152 -9.52149,-0.23762 -13.94697,-1.84247c-1.67935,-0.609 -3.10487,-1.78633 -4.75093,-2.4803c-1.63165,-0.68788 -3.46689,-0.85678 -5.04975,-1.65048c-3.19371,-1.60143 -5.13239,-5.2168 -8.40363,-6.65324c-1.66754,-0.73222 -3.62454,-0.3687 -5.43639,-0.55328c-11.52534,7.34295 -23.50242,13.36644 -36.19858,18.39617c-5.76072,2.28218 -12.12285,5.03989 -18.20151,6.24164c-3.1912,0.6309 -6.49918,0.33767 -9.74718,0.51748c-7.94163,0.43965 -15.97925,1.71537 -23.70354,-0.86027c-2.50614,-0.83567 -5.87766,-4.23099 -7.42468,-5.55625c-19.09048,-1.78772 -38.36766,2.77865 -57.52335,1.41681c-4.54215,-0.32291 -5.68506,-0.27409 -9.91368,-1.98413c-4.71101,-1.90512 -8.84859,-4.96941 -13.90625,-6.03758c-7.05616,-1.49026 -14.29588,-0.4291 -21.41398,0.07442c-4.29244,2.72887 -8.61487,3.70582 -13.4971,5.09801c-12.46011,3.55305 -24.60185,4.11796 -37.46723,4.84136c-5.38792,0.30296 -13.01543,0.7724 -18.02547,-1.62112c-2.39194,-1.14274 -7.03497,-6.56238 -8.42532,-8.5824c-0.66139,-0.96092 -0.48576,-4.80729 -0.63075,-5.3923l-0.16627,-2.99834l-0.84263,0.04657c-0.33483,-0.82958 -0.68663,-1.65433 -0.99491,-2.49206l-2.13164,1.50486l-0.83068,-0.74352l-3.23662,3.61594c-3.1168,2.21883 -5.92757,1.47493 -9.72787,1.02477c-9.65148,-1.14325 -19.15526,-6.2286 -26.9761,-11.82378c-5.99141,-4.25754 -12.47447,-9.63371 -14.50538,-17.10543c-0.91245,-3.35689 -0.32503,-6.95104 -0.51731,-10.42441c-0.05671,-1.02447 -0.1364,-2.0486 -0.21937,-3.07224c0.75741,-0.03359 1.58038,-0.19561 2.28928,-0.45447c5.22445,-1.90775 4.90889,-3.5873 4.49429,-8.26525c-0.16137,-1.82085 0.56296,-4.44723 -1.00162,-5.39257c-9.62637,-5.81634 -11.31408,1.67451 -11.37351,8.99254c-1.02564,0.00904 -2.1288,0.00856 -3.13965,-0.15497c-8.02939,-1.29901 -16.26201,-7.07825 -20.93754,-13.4095c-0.98232,-1.25706 -2.31639,-2.30659 -2.94736,-3.77185c-0.51372,-1.19296 -0.21374,-2.58966 -0.34854,-3.88152c-0.37154,-3.56066 -0.78218,-7.12864 -0.847,-10.70805c-0.06353,-3.50923 -0.51455,-7.06399 0.03307,-10.53082c0.55113,-3.4891 2.16712,-6.7252 3.23398,-10.0926c4.06721,-12.83771 11.22344,-23.65525 17.78099,-35.27995c0.79556,-1.41031 1.29778,-3.02134 2.35059,-4.25155c0.44153,-0.51593 1.08186,-0.98667 1.67896,-1.33608c1.59214,0.02636 3.20892,-0.01318 4.86615,-0.10301l2.90283,-0.13561c1.51783,-0.08403 2.68003,-1.38298 2.59601,-2.90081c-0.07479,-1.35092 -1.11187,-2.42085 -2.40915,-2.58045l-2.98091,-0.42668l-0.00747,0.05226c-0.08688,-0.02759 -0.17452,-0.05346 -0.26292,-0.07743c-1.92344,-0.52173 -4.02544,-0.15754 -5.93572,0.66649c-3.72812,-0.15543 -7.31256,-0.75315 -11.06859,-2.03127c-8.19038,-0.62455 -8.43831,-12.73072 -8.58328,-18.81705c-0.04111,-1.72582 -0.29994,-3.45996 -0.13306,-5.17819c0.49752,-5.12265 2.34504,-10.50604 4.00576,-15.33697c2.99688,-8.7178 6.04974,-16.14813 12.15676,-23.24382c4.05539,-4.71193 9.83492,-7.42751 14.06158,-11.83206l4.37049,-3.27727c0.73062,-0.53129 1.18506,-1.41152 1.13141,-2.3806c-0.08008,-1.44661 -1.26336,-2.57082 -2.68827,-2.60035l-2.78279,-0.08419c-3.53215,-0.1117 -7.22232,0.39803 -10.69903,-0.23525c-3.49897,-0.63735 -6.68615,-2.42781 -10.0357,-3.62346c-2.93164,-0.80171 -6.03184,-1.12188 -8.8067,-2.36178c-2.85867,-1.27734 -5.05529,-3.69739 -7.62302,-5.48914c-1.29973,-0.90696 -2.84501,-1.52073 -3.931,-2.67507c-0.61059,-0.64903 -0.60083,-1.67897 -0.9397,-2.50314c-2.06449,-5.02104 -2.31285,-7.95032 -2.40929,-13.4463c-0.17026,-9.70328 2.66487,-21.38352 6.96239,-30.04373c1.56017,-3.144 2.59869,-6.5965 4.62912,-9.4594c1.54786,-2.18246 3.88841,-4.40064 6.28164,-6.52201l0.18142,0.31769l4.72868,-2.70144c0.9052,-0.49214 1.49584,-1.47521 1.4351,-2.57232c-0.08403,-1.51783 -1.28951,-2.64359 -2.80734,-2.55957l-3.94237,0.21797c-6.79573,-1.34149 -12.13312,-4.13146 -18.22829,-7.35912c-1.38578,-0.89448 -6.53475,-4.01437 -7.79383,-5.5383c-2.93135,-3.54797 -2.05431,-6.75379 -1.84227,-10.98375c0.1346,-2.68513 -0.06488,-6.92607 1.46498,-9.45546c1.64848,-2.7255 5.89283,-5.43035 8.43775,-7.38507c5.12032,-3.93284 10.19349,-8.38433 16.5172,-10.32033c4.88545,-1.49569 11.63105,-0.563 16.773,-0.88014c1.44939,-0.0894 3.02068,0.27796 4.39362,-0.10788l3.34492,0.75831c0.26226,0.06578 0.53876,0.09367 0.82291,0.07794c1.51783,-0.08403 2.68053,-1.38317 2.59651,-2.901c-0.0653,-1.17967 -0.78123,-2.08886 -1.84657,-2.42081l-3.00367,-1.0129l-0.02918,0.08655c-0.15575,-0.07583 -0.31554,-0.14473 -0.47991,-0.20581c-0.02971,-0.01105 -0.48268,-0.05559 -1.05867,-0.03082c-5.27993,-2.87341 -4.73573,-8.37872 -3.65754,-13.79733c0.74624,-3.75035 1.59851,-9.27952 3.67684,-12.51162c1.32868,-2.06629 4.98677,-3.86397 6.92304,-5.03842c-0.04871,-0.02403 -0.09742,-0.04808 -0.14612,-0.07214c3.45474,-1.84609 5.43009,-4.38719 -0.53711,-8.29807c-1.15068,-0.75414 -2.67265,-0.19768 -4.04667,-0.12792c-2.65809,0.13496 -5.65174,0.49072 -8.30283,0.91222c-0.26421,-0.30087 1.69464,-3.51039 2.07786,-3.84103c0.67069,-0.57867 1.72118,-0.47626 2.50415,-0.89055c0.66723,-0.35304 7.09098,-4.53383 8.32393,-5.02269c1.46977,-0.58276 3.11729,-0.60847 4.60133,-1.15385c5.63612,-2.07125 11.6062,-5.17333 17.75135,-5.60209c6.59469,-0.46013 13.40384,0.00731 20.01624,0.00731c3.85292,0 7.71047,0.05606 11.56287,-0.00102c1.19952,-0.01778 2.45543,0.26896 3.59807,-0.09647c3.55601,-1.13724 3.97023,-2.33582 5.94371,-4.89244c12.1854,-12.94227 30.8736,-12.90185 47.261,-10.57024c3.38647,0.48183 6.83872,0.68876 10.14017,1.58364c7.58342,2.05553 15.92226,5.99575 22.82251,9.76105c2.42907,1.32547 8.91416,6.21909 11.48448,5.63923c1.65105,-0.37248 0.99441,-3.23616 1.49131,-4.85412c4.02525,-7.53976 9.65199,-12.26084 17.31482,-16.08919c1.38585,-0.69236 2.71,-1.61464 4.22493,-1.93856c4.02068,-0.85971 9.50738,0.50243 13.39167,1.27885c7.63455,1.52605 14.8765,4.41028 22.01925,7.5015c4.23537,1.83297 10.36053,3.35141 14.10161,6.03378c1.28338,0.92019 2.07895,2.37838 3.13275,3.5545c1.45146,1.61993 2.4217,2.68408 3.31648,3.6438l2.43565,4.38309c0.44492,0.83821 1.32728,1.40909 2.3424,1.40909c1.4633,0 2.65015,-1.18622 2.65015,-2.64952l-0.00004,-2.9133c0.69959,-1.10644 1.39964,-2.21286 2.09924,-3.3193c2.04942,-3.44222 4.91902,-7.95419 7.84847,-10.741c0.50274,-0.47825 3.93474,-1.159 4.43116,-1.20048c3.46942,-0.2899 7.72479,-0.1593 11.13983,0.00819c6.15343,0.3018 12.44208,3.90885 18.05359,6.26513c3.09455,1.2994 6.47064,2.10255 9.2487,3.98591c1.29311,0.87666 2.20738,2.21292 3.28407,3.34491c0.80323,0.84448 1.95697,1.48906 2.35626,2.58399c0.29682,0.81396 -0.03789,1.80498 -0.15062,2.68597c-0.38947,0.25136 -0.74829,0.65945 -1.006,1.30371c-0.04259,0.10646 -0.07872,0.21015 -0.10888,0.31112c-0.78691,0.36018 -1.57614,0.56736 -2.42423,0.81984c0.9106,0.38142 1.8209,0.7682 2.73006,1.15851c0.50475,0.73733 1.31137,1.05996 1.31137,1.05996c0.22217,0.08867 0.4427,0.18185 0.66169,0.27839c0.02988,0.10044 0.05906,0.20105 0.08725,0.30185c0,0 0.7287,2.54789 3.2763,1.82001c0.21182,-0.06052 0.40111,-0.13359 0.56995,-0.21676c0.63028,0.28859 1.27053,0.55286 1.92994,0.76713c0.89863,0.292 1.83144,0.49656 2.78528,0.63645z" fill="#fd66ff" stroke="none" stroke-width="0.25"/><path d="" fill="#9966ff" stroke="none" stroke-width="0.5"/><path d="" fill="#9966ff" stroke="none" stroke-width="0.5"/><g stroke="none" stroke-width="0.5"><g fill="#ffffff"><path d="M185.82156,124.21499c0.39261,-0.05875 0.92045,-0.17437 1.54316,-0.32322c1.41687,-0.15259 2.80497,-0.39067 4.13541,-0.77678c2.71628,-0.78828 6.6161,-2.21122 9.37868,-2.29683c1.02981,-0.03191 2.05993,-0.04447 3.09021,-0.04646c3.57837,0.39605 7.01823,1.4302 9.63735,3.17628l1.1543,0.69258c4.11629,4.11629 11.29141,19.85872 11.27618,26.18355c-0.00164,0.67802 0.49596,3.49685 0.42702,6.29831c0.66257,1.3955 1.05981,2.78293 1.05981,3.69704c0,1.20107 0.00961,2.34857 0.01302,3.45092c-0.21173,1.48148 -0.45047,2.98276 -0.75031,4.52161c-1.08839,5.58587 -1.92122,9.1976 -5.91378,13.25296c-5.98976,6.08397 -11.55198,10.47288 -20.89166,10.8657c-2.2731,0.0956 -4.6404,-0.07146 -6.98018,0.00389c-0.11124,-0.00259 -0.22279,-0.00389 -0.33464,-0.00389c-1.19491,0 -2.35511,0.14862 -3.46311,0.4284c-1.22976,0.26622 -2.43197,0.6843 -3.58736,1.33422c-0.54632,0.30731 -1.03036,0.67732 -1.46447,1.09758c-2.88086,2.18567 -4.89568,5.4534 -5.43909,9.19783c-0.24507,0.29256 -0.13677,0.50479 -0.10298,0.83035c0.01927,0.18562 -0.10342,0.46695 -0.0338,0.67311c-0.00673,0.17898 -0.01012,0.35883 -0.01012,0.53945c0,0.96359 0.09665,1.9046 0.28079,2.81388c-0.00661,3.54733 -0.02322,7.98842 -0.01936,10.96605c0.01201,9.25691 1.00296,18.42609 1.00296,27.8273c0,4.24072 -3.15036,9.89356 -8.49804,6.83774c-0.03214,-0.01836 -0.06371,-0.0373 -0.09473,-0.0568c-0.16432,0.01796 -0.3376,0.02744 -0.52038,0.02744c-3.52523,0 -3.52523,-3.52523 -3.52523,-3.52523c0,-13.72832 0,-27.45664 0,-41.18496c1.87018,-4.31794 -1.20533,-12.12999 -1.2387,-15.65115c-0.20473,-21.59906 0.51997,-39.26275 -0.97731,-57.85812c4.70691,-6.99596 13.20447,-11.84924 20.84638,-12.99272z"/><path d="M170.02287,206.72078c-1.94984,1.73319 -2.85863,-8.13175 -3.05347,-8.81372c-0.02054,-0.06614 -0.0316,-0.13645 -0.0316,-0.20935c0,-0.38938 0.31566,-0.70505 0.70505,-0.70505c0.38938,0 0.70505,0.31566 0.70505,0.70505c0,0.32089 -0.21438,0.59171 -0.50772,0.67706c1.2512,2.1449 3.23617,7.40958 2.1827,8.34601z"/><path d="M167.46584,211.46552c-0.63218,0 -1.60522,-15.89713 -1.37323,-17.08536c0.12525,-0.19588 1.22969,7.88717 1.47944,7.88717c0.38938,0 0.70505,0.31566 0.70505,0.70505c0,0.07603 -0.01204,0.14924 -0.0343,0.21785c0.16905,0.43812 -0.10855,1.23325 -0.04399,1.8365c0.29522,2.75866 -0.00826,6.4388 -0.73295,6.4388z"/></g><path d="M207.03899,145.7977l0.7324,-0.09154l1.10716,-0.30196l0.27779,-0.00591l0.26046,-0.09675l1.10361,-0.12262l0.19672,0.02658l0.19258,-0.04814h0.06752l0.22845,-0.12692l0.02603,-0.04555l0.90472,-0.22618l0.63584,-0.17059l0.05356,-0.09373l0.43944,-0.10986l0.38841,-0.23305l0.26006,0.07093l0.6747,-0.16868h0.36787l1.76262,0.44065l0.33377,0.5841l0.02846,0.00776l0.02193,0.08042l0.09655,0.16897l0.84125,0.48072l0.28148,1.12592l0.0043,0.00374l0.00079,0.01661l0.15408,0.61634v0.4905l-0.08516,0.34064l0.0167,0.35072l-0.12262,0.61312l-0.15786,0.33326l-0.05872,0.36404l-1.10361,2.5751l-0.17477,0.22996l-0.09133,0.27401l-0.85068,1.33677l-0.60552,0.96883l-0.28965,0.27931l-0.20703,0.34504l-1.22625,1.22625l-0.30108,0.18065l-0.23619,0.25981l-0.07743,0.05162l-0.74232,0.74232l-0.03257,0.0512l-0.03773,0.2704l-0.2486,0.17955l-0.16463,0.25871l-0.26772,0.05354l-0.79194,0.57196l-0.18022,0.07208l-0.1175,0.08812l-0.09232,0.03888l-0.06737,0.07411l-0.36787,0.24524l-0.20978,0.07492l-0.16913,0.14497l-0.4905,0.24524l-0.2477,0.05504l-0.21407,0.13623l-0.07228,0.0241c2.90383,6.25814 5.20677,16.97364 -1.16512,16.22055c-4.06017,-0.47987 -7.80824,-5.36271 -10.12006,-9.16125c-3.6791,3.15967 -8.69696,5.70662 -10.90909,6.6646c-1.68574,0.73002 -4.24204,2.02268 -6.11663,0.82976c-3.90186,-2.48299 -0.95651,-9.8606 2.04928,-14.92354c-1.91482,-0.80373 -3.82117,-1.62237 -5.69449,-2.49687c-1.40462,-0.65571 -4.76163,-2.2013 -5.21044,-3.99653c-1.64435,-6.57742 10.53787,-8.41314 15.33089,-6.15342c0.94448,-1.39692 2.07123,-2.72221 2.94477,-4.10708c1.63242,-2.58796 2.69771,-12.7877 8.17516,-10.19526c2.97679,1.4089 6.34868,7.64802 8.97306,12.14081z" fill="#fd66ff"/></g><path d="M396.61485,244.75705c-1.37931,1.27498 -2.48364,2.93532 -4.13793,3.82493c-3.56642,1.91788 -8.25718,1.68562 -12.12353,2.72848l-1.13508,0.23276c0,0 -2.46862,0.49372 -3.20756,-1.78416c-0.88694,-0.69237 -1.08622,-1.84822 -1.08622,-1.84822c-1.40223,-8.13381 -2.26544,-16.12437 -3.10824,-24.28444c-0.68025,-6.58624 -2.55811,-13.09385 -2.89063,-19.7065c-0.4734,-9.41442 -0.00353,-18.97834 -0.00353,-28.40955c0,-10.65101 -0.57056,-21.30343 -0.57691,-31.9223c-0.00192,-3.21492 -0.87757,-9.46857 1.33725,-12.0818c3.82757,-4.51607 13.44532,-6.16911 18.82104,-6.87501c10.32191,-1.3554 20.58165,-2.99345 30.88642,-4.45779c2.91136,-0.08503 5.84487,-0.27397 8.69309,-0.88303l3.0723,-0.24563c0,0 2.81302,-0.20092 3.01396,2.61209c0.00123,0.01713 0.00233,0.03415 0.00333,0.05109c1.73456,0.61015 1.73456,2.64978 1.73456,2.64978c0,6.85881 0,16.21755 0,23.07636c0,0 0,2.82019 -2.82019,2.82019c-0.82025,0 -1.40193,-0.23857 -1.81443,-0.57693c-13.30399,-0.00248 -26.59683,-0.18334 -39.90241,-0.19196c0.17562,3.32626 0.60696,6.63314 0.83465,9.96587c5.17056,-0.19643 10.08722,-2.09663 15.01626,-3.73965l2.3936,-0.7481c0.28432,-0.19677 0.64142,-0.35891 1.08888,-0.46545c2.74349,-0.65321 3.39671,2.09028 3.39671,2.09028c1.22844,5.17073 1.66592,10.42629 2.88627,15.58382l0.06905,1.4807c0.00591,0.08056 0.00592,0.12675 0.00592,0.12675c0,1.15382 0,2.30764 0,3.46146v0.37149c0.1002,0.91587 -0.19102,1.56209 -0.59366,2.01201c-0.35908,0.4891 -0.93534,0.90893 -1.86017,0.99675c-5.83354,1.16704 -11.79134,0.81637 -17.73376,0.78783c0.06601,21.03648 0.86807,42.38804 -0.25903,63.34789z" fill="#ffffff" stroke="none" stroke-width="0.5"/><path d="M260.37704,162.69696c-0.21639,0.03689 -0.35794,0.03689 -0.35794,0.03689c-3.63207,-0.01259 -7.98591,0.19351 -11.1459,2.5683c-8.06574,6.06153 -9.6547,19.10112 -9.64714,29.10812c0.00359,4.74556 -0.05533,8.62418 1.41019,13.12185c1.37336,4.82124 9.09151,8.5652 13.20767,10.26907c8.95203,3.70566 23.09953,2.64811 29.74289,-5.70389c2.58686,-3.2522 3.11978,-8.48632 3.90841,-12.55511c-0.01116,-2.58891 0.61589,-6.36149 0.04681,-8.86032c-1.35901,-5.96747 -4.68669,-11.22275 -7.84463,-16.14348c-2.61637,-4.07684 -5.03363,-8.63926 -9.57808,-10.46101c-2.58075,-1.03454 -5.25098,-0.9112 -7.94248,-0.90962zM260.3501,157.12589c0.63155,-0.08905 1.15412,0.07609 1.15412,0.07609l0.67262,0.32541c3.31738,0.00183 6.53626,-0.03835 9.71176,1.25998c5.60382,2.29118 8.73277,7.44478 11.99931,12.53674c3.50446,5.46284 7.22292,11.46701 8.63266,18.13615c0.65304,3.08934 0.05834,7.50324 0.04681,10.66606c-1.58424,8.45279 -3.45258,16.22639 -10.71919,20.83532c-10.79729,6.8483 -25.62016,5.21011 -36.02659,-1.31321c-4.25396,-2.66661 -8.03954,-5.12761 -9.96678,-10.15525c-1.6512,-5.15358 -1.73224,-9.66716 -1.72835,-15.08291c0.00856,-11.89975 2.26283,-26.78107 11.93027,-33.81022c4.09631,-2.97841 9.24021,-3.49215 13.96236,-3.50657c0,0 0.12988,0 0.331,0.03242z" fill="#ffffff" stroke="#ffffff" stroke-width="5"/><path d="M309.83619,198.67715c0.94982,2.73775 1.80118,5.50175 3.48585,7.71945c2.96656,3.90518 7.22881,4.56945 11.19867,5.62713c4.7916,1.27661 9.8931,2.59428 14.83101,1.62988c2.0677,-0.40383 4.66427,-2.52492 6.60214,-3.53154c2.76074,-2.40187 6.48235,-5.00191 7.99771,-8.91141c3.89163,-10.04004 -0.31719,-24.84323 -6.24841,-32.48993c-2.72718,-3.51596 -8.25103,-9.89281 -12.33776,-9.39371c-3.8776,0.27815 -6.75412,1.86316 -10.30033,3.7255c-7.47792,3.92713 -16.65708,10.6703 -18.33514,21.25621c-0.65743,4.14734 0.72697,8.65602 2.01972,12.34471c0,0 0.05002,0.14394 0.09892,0.37851zM304.53628,198.87129c-1.65773,-4.80788 -3.09148,-10.24099 -2.31398,-15.57787c1.83493,-12.59524 12.1548,-20.73916 21.04091,-25.42694c4.04421,-2.13347 7.44449,-3.82582 11.87766,-4.17305c4.43663,-0.01699 7.61258,2.86508 11.10762,6.14263c8.54989,8.01783 15.01108,22.44785 13.71045,36.12098c-0.87533,9.20207 -6.02207,14.15872 -11.77655,19.09351c-2.35856,1.25536 -5.44563,3.59573 -7.98411,4.14637c-5.47998,1.1887 -11.27897,-0.23191 -16.59797,-1.64776c-4.95789,-1.31973 -9.91322,-2.47529 -13.60476,-7.2732c-2.09187,-2.71882 -3.19921,-6.00808 -4.37272,-9.38097l-0.48074,-0.55607c0,0 -0.308,-0.46649 -0.46463,-1.14377c-0.09528,-0.19179 -0.14117,-0.32386 -0.14117,-0.32386z" fill="#ffffff" stroke="#ffffff" stroke-width="5"/><g stroke="none" stroke-width="0.5"><path d="M480.43238,105.75039c-0.37714,9.04277 -2.62973,19.21502 -4.36826,28.09425c-1.21199,6.19006 -2.76349,12.83115 -3.52859,19.11468c-0.04097,0.33646 -0.8939,10.11934 -1.67918,14.23832c-1.19781,6.28291 -3.37234,12.24438 -4.39753,18.54259c-0.58198,3.57533 -1.48884,7.07446 -2.01106,10.64873c-0.10792,0.7387 -0.54269,6.80264 -1.32588,7.80171c-1.09921,1.40223 -10.54912,2.16826 -11.79577,0.83815c-0.82401,-0.87918 -0.43716,-3.66319 -0.32761,-5.28011c0.36107,-5.32974 -0.49485,-10.58088 -0.22654,-15.90264c0.39048,-7.74491 -0.80066,-15.17521 -0.9494,-22.49484c-0.25071,-12.33841 -0.29475,-25.31921 0.68244,-37.88383c0.24836,-3.19338 0.35759,-6.39585 0.471,-9.59356c-0.30737,-6.02038 -0.38643,-13.28975 1.22137,-13.97831c9.16638,-3.9256 18.05236,1.53053 27.03883,2.65213c0.06863,0.00857 0.13575,0.02501 0.20099,0.04909c0.62541,0.23088 1.076,1.16333 0.99617,2.57577c0.00752,0.18307 0.00747,0.37578 -0.00095,0.57787z" fill="#000000"/><path d="M465.5017,233.15503c2.07786,-0.28979 4.12508,-2.31977 6.10148,-2.65447c1.43862,-0.24363 3.3754,-0.20907 4.22576,0.97519c5.03371,7.01036 -5.58989,14.79821 -10.54193,18.106c-0.57889,0.38668 -1.26683,0.95438 -2.02356,1.42313c0.53103,3.56712 -1.38581,14.25259 -5.20036,15.07571c-2.5193,0.54361 -6.69585,-6.05253 -9.20927,-10.70243c-6.02052,4.13029 -16.47666,8.5695 -18.93633,6.97453c-4.28386,-2.77786 2.90134,-12.90357 5.90586,-16.63298c-0.20097,-0.23681 -0.37506,-0.44255 -0.51668,-0.595c-1.64585,-1.77168 -10.02719,-13.89533 -8.22683,-16.62984c0.41589,-0.63167 3.12607,-1.18432 3.79377,-0.91736c1.52603,0.61013 2.8974,1.51249 4.43953,2.08856c0.98477,0.36787 4.59563,1.29657 7.43774,2.42751c2.2224,-5.20575 5.05162,-10.72365 8.55065,-15.03569c0.6924,-0.85329 3.305,-4.79546 5.29491,-4.03494c1.64508,0.62871 2.9102,0.9794 3.27194,2.55234c0.48578,2.11232 0.425,3.41408 0.5197,5.51878c0.04472,0.99399 1.12422,7.99933 1.60496,12.7865c1.17198,-0.33059 2.40451,-0.57156 3.50868,-0.72554z" fill="#faff00"/></g></g></g></svg>