<svg version="1.1" xmlns="http://www.w3.org/2000/svg" xmlns:xlink="http://www.w3.org/1999/xlink" width="595.64546" height="479.70701" viewBox="0,0,595.64546,479.70701"><g transform="translate(-14.26817,59.85347)"><g stroke-miterlimit="10"><path d="M217.45888,-25.43819c3.02571,0 6.62627,0.46831 9.89866,0.2129c0.20858,-0.08853 0.41705,-0.17721 0.62539,-0.26601c2.12275,-0.90483 4.23837,-1.8126 6.3519,-2.70951c0.00916,-0.05256 0.01774,-0.10525 0.0257,-0.15807c0.22774,-1.51149 -0.44434,-3.16179 0.13627,-4.58106c0.70176,-1.71538 2.25129,-2.97949 3.51867,-4.35322c4.30798,-4.66947 8.97397,-6.26769 14.78378,-8.64244c4.95213,-2.02418 10.33732,-4.70498 15.51564,-6.07144c3.11694,-0.82251 7.28891,-0.59922 10.40991,-0.60107c4.30372,-0.00255 10.41684,-0.69968 14.02761,2.28081c3.50291,2.89147 7.06813,8.43513 9.41758,12.22075c0.3813,0.64376 0.76258,1.28752 1.14388,1.93128c0.89553,-1.24302 2.27924,-2.1773 3.34125,-3.31228c1.35155,-1.4444 2.45249,-3.16891 4.08363,-4.30739c4.1597,-2.90332 10.77775,-4.60537 15.49361,-6.59085c7.69356,-3.23915 15.48578,-6.23291 23.70926,-7.83477c4.79142,-0.93332 11.04125,-2.29259 15.95191,-1.26682c11.39543,2.38034 21.06095,12.04265 26.12245,21.58968c0.2422,-0.34181 0.51216,-0.65971 0.83418,-0.92984c1.41518,-1.1871 3.11515,-2.01643 4.75502,-2.88751c7.45093,-3.95781 16.41274,-8.05479 24.60495,-10.21999c0.15764,-0.04167 10.77007,-1.67677 11.0929,-1.72148c18.95426,-2.62521 39.4535,-1.95527 53.47056,12.39505c0.95246,1.28318 1.64385,2.75338 3.39694,3.2016c1.68064,0.42969 3.47436,-0.09614 5.21199,-0.09614c2.96926,0 5.93855,0 8.90781,0c6.93016,0 14.10116,-0.51365 21.00938,0.00903c6.83608,0.51722 13.35532,3.64968 19.63964,5.89923c3.18681,1.14075 6.52716,2.0242 9.44376,3.71655c4.38495,2.54436 7.67828,3.51742 10.36361,7.73266c0.76805,1.20563 2.38521,2.24258 2.24106,3.65426c-0.20849,2.0418 -2.10582,3.55504 -3.15873,5.33256c-2.2561,0.15821 -4.23657,0.25145 -6.22253,0.21232c0.65098,0.48413 1.07093,1.24767 1.07093,2.1067c0,0.46034 -0.1206,0.89325 -0.33272,1.27044c0.41888,0.44814 0.8137,0.93602 1.17944,1.47443c1.24589,1.83413 2.90934,8.42571 3.45904,10.38855c1.70702,6.09541 3.51255,13.68873 -0.08433,19.34432c0.02335,0.00126 0.04577,0.00246 0.06721,0.00362c4.6458,0.25035 10.82818,-0.40991 15.31463,0.87503c7.30561,2.09233 13.14728,6.88189 19.03815,11.29319c3.07585,2.3033 8.07997,5.61063 10.02072,8.83741c2.37592,3.95031 2.11643,7.77331 2.3519,12.08032c0.31851,5.82593 0.88087,9.73239 -3.1597,14.74776c-1.77054,2.19769 -7.20616,5.3456 -9.5264,6.80536c-5.84205,3.0182 -10.99132,5.53363 -17.05463,7.15167c0.78837,0.80445 1.49608,1.72404 2.31359,2.48453c6.58728,6.12789 10.5789,15.5059 12.83275,24.03311c2.50933,9.49378 4.18678,18.10632 3.62061,27.93796c-0.24547,4.26251 -1.30338,10.36136 -4.38189,13.70249c-1.43065,1.55271 -3.43717,2.49147 -5.1706,3.71747c-2.86994,2.0298 -5.45766,4.55806 -8.69052,5.97979c-0.33122,0.14566 -8.40283,2.27551 -9.77348,2.63893c-0.60792,0.21173 -10.67835,3.73151 -10.99172,3.78725c-2.05706,0.3659 -4.14981,0.39608 -6.24953,0.36341c3.18932,1.77797 6.00665,4.50351 8.73114,6.89547c9.21942,8.09418 13.8902,18.00618 17.82659,29.18297c2.6142,7.42265 4.44731,14.55396 4.28396,22.41952c-0.18001,8.66731 -1.13288,17.99294 -9.3629,23.36106c-1.06975,0.69776 -2.53207,0.45796 -3.79811,0.68693c-2.26522,0.73696 -4.48996,1.2615 -6.71799,1.6147c0.64511,1.10859 1.1609,2.31285 1.81831,3.41083c2.46296,4.11356 4.86196,8.18747 7.45576,12.22523c4.8196,7.50264 8.54588,15.69482 11.29783,24.1257c0.16007,0.4904 3.475,10.63017 3.51835,10.89733c0.03321,0.20467 0.11105,11.07351 0.10298,11.49007c-0.09919,5.12016 -0.26388,6.16904 -0.9051,11.23147c-0.22359,1.7653 -0.01104,3.65093 -0.72165,5.28958c-0.82909,1.91181 -2.5047,3.3587 -3.75704,5.03806c-6.91243,8.86173 -17.80829,15.20941 -29.34791,15.40187c-0.08508,1.30027 -0.1795,2.45543 -0.23048,3.3519c-0.03972,0.6987 -0.61804,11.19833 -0.71985,11.56292c-2.44951,8.7724 -9.83201,15.09907 -17.07242,20.14082c-8.85746,6.12941 -19.43224,11.51926 -30.32671,12.80509c-2.62628,0.30996 -7.8884,0.92101 -10.52448,0.09716c-1.03183,-0.32248 -1.89151,-0.9968 -2.75771,-1.65777c-0.19422,1.52614 -0.82305,3.12368 -1.48896,4.17177c-1.70475,2.68314 -7.85434,9.32257 -10.98545,10.81021c-1.95482,0.92877 -4.1866,1.1759 -6.32538,1.56197c-6.97815,1.25964 -13.74918,0.75355 -20.77552,0.37491c-11.76887,-0.63421 -22.6856,-1.58468 -34.07484,-4.74224c-4.9756,-1.37944 -9.79777,-2.28775 -14.08835,-5.16624c-6.31079,-0.21751 -12.73634,-1.21467 -18.9694,0.06615c-4.86183,0.99905 -8.88272,4.02401 -13.43147,5.7789c-5.12697,1.97797 -6.44821,1.96706 -11.87029,2.3629c-19.10195,1.39455 -38.19491,-2.41393 -57.29232,-1.83674c-2.78086,2.558 -4.13426,4.35659 -7.83991,5.63945c-6.95334,2.40718 -13.81335,1.89445 -20.99697,1.50733c-5.25376,-0.28312 -11.20771,0.08102 -16.3735,-0.90476c-11.58867,-2.21144 -23.74264,-7.58783 -34.28189,-12.61158c-7.46532,-3.5585 -15.49837,-6.93085 -21.96343,-12.10197c-3.96065,0.5218 -6.64864,4.98163 -10.25392,6.78278c-1.73585,0.8672 -3.75121,1.07552 -5.54866,1.81429c-1.78262,0.73267 -3.33924,1.9518 -5.16076,2.58739c-8.82939,3.08086 -18.53956,2.31229 -27.70637,1.85374c-9.60885,-0.48067 -19.44866,-0.10182 -28.61274,-3.06037c-4.81621,-1.55488 -11.20431,-3.08216 -14.19271,-7.57889c-2.6003,-3.91275 -2.45317,-9.3662 -2.22379,-13.76143c0.07957,-1.39912 -0.05767,-2.82612 0.23871,-4.19736c0.09369,-0.43347 1.3371,-0.9458 0.88689,-1.01023c-1.23618,-0.1769 -2.44812,0.54581 -3.69594,0.60825c-1.27283,0.06371 -2.54875,-0.36361 -3.8161,-0.23229c-2.95524,0.30622 -5.73067,1.69729 -8.69318,1.9275c-5.64428,0.43862 -11.75286,0.01903 -17.39897,-0.32513c-2.07417,-0.12643 -4.28632,0.27975 -6.21583,-0.4718c-1.7244,-0.67166 -2.73464,-2.45165 -4.18605,-3.57976c-1.0219,-0.7943 -2.31412,-1.26243 -3.22224,-2.17841c-3.21625,-3.2441 -2.46417,-4.7786 -3.39943,-9.34057c-0.6082,-2.96665 -1.87605,-5.83552 -2.03446,-8.85675c-0.01533,-0.29239 0.47002,-8.7667 0.54002,-9.97634c0.28611,-4.94464 -0.19692,-8.69601 3.7826,-12.03962c-3.2663,-4.53446 -8.64997,-7.74519 -12.38836,-12.13586c-7.0519,-8.28232 -15.23879,-19.33577 -16.36418,-30.34378c-0.24573,-2.40361 0.04493,-9.20449 1.13944,-11.57331c0.66947,-1.44895 1.95899,-2.5711 3.1842,-3.62071c0.47776,-0.40928 1.9661,-0.04628 1.79169,-0.64208c-0.35578,-1.21528 -1.96438,-1.6756 -2.76205,-2.67256c-2.23822,-2.79744 -4.17117,-5.83063 -6.55999,-8.50744c-5.16105,-5.78324 -9.40354,-11.32158 -11.80345,-18.64145c-2.6248,-8.24012 -3.14937,-16.54239 -1.91647,-25.06164c0.17955,-1.24062 -0.01433,-2.61915 0.6186,-3.71005c0.28387,-0.48929 5.08831,-5.62075 6.40709,-7.00731c1.75503,-1.84524 6.13813,-6.6776 8.32647,-7.56045c1.13334,-0.45723 2.64539,1.2775 3.63362,0.56982c0.9863,-0.70632 0.37733,-2.35612 0.51473,-3.54053c0.41017,-3.53578 0.75816,-7.07905 1.03627,-10.62699c0.42859,-5.46772 0.60207,-10.95999 0.95222,-16.43311c0.13058,-2.04092 -0.16932,-4.15922 0.42454,-6.12068c1.48494,-4.90462 6.03951,-10.47135 8.65083,-14.93496c1.62116,-2.77107 2.70377,-5.92818 4.90454,-8.29032c4.32494,-4.64207 10.74215,-9.1193 15.97669,-12.80604c1.34589,-0.94793 2.55145,-2.24096 4.14732,-2.6901c0.87149,-0.24528 2.0848,1.52078 2.5971,0.79197c0.70558,-1.00379 -0.58311,-2.38219 -0.62484,-3.59779c-0.06297,-1.83395 0.20839,-3.66436 0.31258,-5.49654c0.29175,-5.13011 0.5835,-10.26022 0.87524,-15.39033c0.19324,-3.39792 -0.39916,-6.94291 0.6477,-10.18986c0.62609,-1.94187 1.93603,-3.60802 2.92027,-5.40366c2.69816,-4.92253 5.90486,-10.16938 9.87041,-14.25858c0.16076,-0.16578 5.2093,-4.27262 7.57876,-6.19848c-0.16592,-0.21176 -0.33182,-0.42352 -0.49774,-0.63527c-1.09444,-1.32463 -2.55492,-2.42892 -3.28329,-3.97388c-3.1613,-6.70554 -1.84283,-15.87534 4.93346,-19.98773c0.09755,-0.05921 0.2019,-0.09157 0.31107,-0.10562c-0.9822,-0.62462 -1.72841,-1.55724 -2.4795,-2.43533c-3.02063,-3.53143 -7.46884,-9.10715 -8.88967,-13.54911c-1.90172,-5.94539 -1.01521,-16.57614 3.68226,-21.27049c3.56986,-3.5675 10.24968,-5.84315 14.84985,-7.61504c2.46925,-0.4045 5.00746,-0.27872 7.48214,-0.65047c3.06134,-0.45987 6.02521,-1.55847 9.1162,-1.75474c6.52521,-0.41433 13.22415,-0.00512 19.7663,-0.00512c2.96926,0 5.95148,-0.26948 8.90781,0c0.46074,0.04199 0.93907,0.93967 1.24366,0.60054c0.3875,-0.43146 -0.41764,-1.15048 -0.25504,-1.70129c0.34245,-1.1601 1.44757,-2.03704 1.70704,-3.21737c0.51493,-2.34239 0.30718,-4.78222 0.53429,-7.16742c0.11405,-1.19779 -0.21861,-6.66026 0.10354,-7.44372c0.78763,-1.91553 1.95268,-3.86337 3.69614,-5.03674c1.1696,-0.78715 2.83257,-0.26404 4.25359,-0.31351c3.1652,-0.1102 6.33444,0 9.50166,0c5.02394,0.00689 10.77801,-0.01057 15.77006,0.60077c3.08393,0.37767 5.9319,1.93189 9.01395,2.32386c1.69667,0.21579 3.42598,-0.13704 5.1332,-0.02518c2.22271,0.14565 4.35477,0.99576 6.5761,1.16004c3.79483,0.28065 7.79622,-0.0129 11.60888,-0.0129zM229.69247,-20.21093c-1.937,0.82262 -3.88377,1.63394 -5.83652,2.43917c-3.64993,-1.982 -11.32727,-4.21257 -14.71102,-3.47541c-1.51615,0.3303 -3.06899,0.56506 -4.5487,1.01794c-1.9364,-0.26551 -3.81782,-0.9496 -5.77132,-1.07513c-1.84806,-0.11875 -3.72092,0.21731 -5.55618,-0.02518c-2.9895,-0.39499 -5.74639,-1.92597 -8.74036,-2.28755c-4.81241,-0.58119 -10.32808,-0.57596 -15.17165,-0.56866c-3.16722,0 -6.33839,0.1541 -9.50166,0c-0.57111,-0.02783 -1.19355,-0.59812 -1.68496,-0.31351c-2.10724,1.22048 -0.79937,6.67548 -0.95115,8.33054c-0.2402,2.61907 -0.08681,5.29178 -0.65342,7.86275c-0.29703,1.34775 -1.31695,2.44504 -1.85607,3.71964c-0.56249,1.32986 -0.2797,3.19268 -1.44275,4.07955c-1.24259,0.94749 -3.11945,0.5063 -4.69489,0.60054c-2.96367,0.17728 -5.93855,0 -8.90781,0c-11.91306,0 -23.22401,0.34484 -34.89783,2.21433c-3.86551,1.52616 -9.37637,3.37788 -12.46743,6.25897c-1.24495,1.16039 -1.93439,4.45785 -2.24869,5.68775c-1.81997,7.12202 0.80702,12.21279 4.7945,18.05654c1.48968,2.18317 3.51082,3.9767 5.17429,6.03752c1.154,1.42964 3.34272,2.70087 3.15223,4.50957c-0.1827,1.73482 -2.69161,2.30317 -3.99566,3.49891c-0.89137,0.81734 -1.75957,1.66024 -2.5881,2.53801c-3.87995,4.11053 -1.29627,10.38815 1.86286,13.96622c0.01936,0.02567 0.03874,0.05135 0.0581,0.07702c0.18125,-0.11342 0.37433,-0.20862 0.58253,-0.28056c0.35487,-0.12263 0.7168,-0.21088 1.08403,-0.27313c-1.0309,3.23686 -1.71586,6.79153 -0.96251,8.2582c0.05631,0.10963 0.11409,0.21845 0.17327,0.32648c-0.33882,-0.148 -0.54905,-0.30149 -0.54905,-0.30149l-0.08915,-0.0662c-2.56632,1.99694 -5.28929,3.83099 -7.54102,6.15293c-3.6484,3.76216 -6.47899,8.60129 -9.00672,13.09541c-0.80661,1.4341 -1.9374,2.72822 -2.45392,4.28397c-0.94863,2.85729 -0.273,5.99986 -0.44351,8.99809c-0.29175,5.13011 -0.5835,10.26022 -0.87524,15.39033c-0.12988,2.28364 -0.44844,11.45619 -1.56261,12.89186c-0.96679,1.24578 -3.26473,-0.07498 -4.79468,0.39364c-0.92958,0.28473 -1.52778,1.17812 -2.28529,1.77494c-4.86775,3.83514 -10.85439,7.51882 -15.09084,11.98404c-1.9896,2.09703 -2.86116,4.98376 -4.31234,7.4643c-1.86571,3.18909 -3.70835,6.39107 -5.59711,9.56727c-0.83632,1.40639 -2.07152,2.64083 -2.54337,4.19959c-1.00487,3.3196 -0.32114,6.91452 -0.52147,10.36974c-0.41236,7.11242 0.08266,15.42368 -1.7715,22.33836c-0.64874,2.41934 -0.95001,5.27373 -2.83072,6.97674c-1.2182,1.10309 -3.43279,-0.46486 -4.99013,0.1051c-1.25745,0.46021 -1.92459,1.82559 -2.85715,2.76689c-2.39809,2.42059 -6.81032,6.08811 -8.61716,8.92024c-0.37858,0.59342 -0.06137,1.39687 -0.14,2.09121c-0.2014,1.77833 -0.52638,3.54279 -0.69974,5.32391c-0.55533,5.70561 0.64795,12.0009 2.40307,17.39754c3.24341,10.31266 12.10661,16.68153 17.66721,25.73326c1.28549,2.09255 3.61392,3.94111 3.67771,6.37848c0.06363,2.4309 -4.55632,3.92118 -5.49361,5.99931c-0.6087,1.3496 -0.69599,7.7771 -0.6096,8.65562c0.9656,9.81868 8.82984,20.01446 15.08992,27.3668c2.29975,2.70101 4.76789,5.28546 7.46014,7.61756c0.99923,0.86557 2.52126,1.1791 3.27831,2.25253c1.37515,1.94985 1.93399,4.33949 2.90099,6.50924c-0.97425,1.25317 -2.17536,2.36646 -2.92277,3.75949c-1.70296,3.174 -0.84228,8.45508 -1.05147,11.9513c-0.36247,6.0577 0.72599,12.44661 2.40602,18.32475c0.52339,1.83126 2.52328,2.26189 3.82115,3.32056c1.03996,0.84829 1.60965,2.31309 2.86474,2.81481c1.32127,0.52818 2.85711,0.00072 4.28479,0.04322c1.86408,0.05549 3.72466,0.20199 5.58895,0.25069c3.6423,0.09513 7.29702,0.36661 10.93031,0.09993c4.70913,-0.34565 8.51935,-2.29751 13.42942,-1.71866c2.54778,0.30036 5.57591,-0.32277 7.59705,1.21682c1.01717,0.77483 0.37359,8.01584 0.30719,9.18337c-0.20321,3.25848 -0.51843,7.52893 1.34006,10.48907c1.98313,3.15868 8.03509,4.28723 11.2172,5.32415c5.4845,1.78719 10.06917,1.89361 15.8314,2.20145c7.48814,0.40004 14.95747,0.84292 22.45721,0.89273c4.74525,0.03152 9.77942,-0.23872 14.32563,-1.84357c1.72516,-0.609 3.18907,-1.78661 4.88004,-2.48058c1.67616,-0.68788 3.56082,-0.85713 5.18686,-1.65083c3.28084,-1.60143 5.27163,-5.21721 8.63211,-6.65365c1.71303,-0.73222 3.72254,-0.36915 5.58382,-0.55373c11.83976,7.34295 24.13542,13.36322 37.17794,18.39295c5.91788,2.28218 12.44958,5.03886 18.69407,6.24061c3.27826,0.6309 6.67444,0.33727 10.01105,0.51708c8.15828,0.43965 16.41012,1.71473 24.34514,-0.86091c2.57451,-0.83567 6.03644,-4.23109 7.62566,-5.55635c19.61128,-1.78772 39.40164,2.7796 59.07992,1.41776c4.66606,-0.32291 5.83799,-0.27361 10.18197,-1.98365c4.83953,-1.90512 9.08679,-4.96853 14.28243,-6.0367c7.24866,-1.49026 14.68177,-0.42763 21.99406,0.07589c4.40954,2.72887 8.84791,3.70667 13.86333,5.09886c12.80003,3.55305 25.26769,4.12076 38.48405,4.84416c5.53491,0.30296 13.36803,0.77399 18.51474,-1.61953c2.45719,-1.14274 7.22512,-6.56112 8.6534,-8.58114c0.67943,-0.96092 0.49846,-4.80687 0.6474,-5.39188l0.17051,-2.99811l0.86553,0.04664c0.34396,-0.82958 0.70502,-1.65406 1.02171,-2.49179l2.18969,1.50494l0.85318,-0.74339l3.3249,3.61596c3.20183,2.21883 6.08834,1.4757 9.99232,1.02554c9.91478,-1.14325 19.67431,-6.22531 27.70851,-11.82049c6.15486,-4.25754 12.81222,-9.63086 14.89853,-17.10258c0.93734,-3.35689 0.33297,-6.9499 0.5305,-10.42327c0.05826,-1.02447 0.13984,-2.04824 0.22508,-3.07188c-0.77807,-0.03359 -1.54147,-0.13541 -2.26971,-0.39427c-5.36698,-1.90775 -5.12516,-3.64708 -4.69924,-8.32503c0.16577,-1.82085 -0.57886,-4.4465 1.0284,-5.39184c9.88899,-5.81634 11.70651,1.73238 11.76756,9.05041c1.05362,0.00904 2.10298,-0.04915 3.1414,-0.21268c8.24844,-1.29901 16.70353,-7.07505 21.50661,-13.4063c1.00912,-1.25706 2.37917,-2.30591 3.02736,-3.77117c0.52773,-1.19296 0.21927,-2.58915 0.35775,-3.88101c0.38168,-3.56066 0.80272,-7.12719 0.86931,-10.7066c0.06526,-3.50923 0.52786,-7.06255 -0.0347,-10.52938c-0.56617,-3.4891 -2.22683,-6.72397 -3.32279,-10.09137c-4.17817,-12.83771 -11.53143,-23.65066 -18.26788,-35.27536c-0.81726,-1.41031 -1.33339,-3.02072 -2.41492,-4.25093c-0.45358,-0.51593 -1.01333,-0.95683 -1.62672,-1.30624c-1.63557,0.02636 -3.29654,-0.01292 -4.99898,-0.10275l-3.0799,-0.16598c-1.55924,-0.08403 -2.75327,-1.38259 -2.66695,-2.90042c0.07683,-1.35092 1.14201,-2.42022 2.47468,-2.57982l3.06216,-0.42643l0.00767,0.05225c0.08925,-0.02759 0.17927,-0.05343 0.27008,-0.0774c1.97591,-0.52173 4.1352,-0.15734 6.09759,0.66669c3.82983,-0.15543 7.51179,-0.75222 11.37028,-2.03034c8.41382,-0.62455 8.66764,-12.72695 8.81657,-18.81328c0.04223,-1.72582 0.30795,-3.459 0.13652,-5.17723c-0.51109,-5.12265 -2.40941,-10.50325 -4.11543,-15.33418c-3.07864,-8.7178 -6.21507,-16.14366 -12.48869,-23.23935c-4.16602,-4.71193 -10.1032,-7.42499 -14.44517,-11.82954l-4.48969,-3.27651c-0.75055,-0.53129 -1.21736,-1.41098 -1.16225,-2.38006c0.08226,-1.44661 1.29786,-2.57029 2.76164,-2.59982l2.96118,-0.09119c3.62851,-0.1117 7.31687,0.4049 10.88843,-0.22838c3.59442,-0.63735 6.86859,-2.42723 10.30952,-3.62288c3.01162,-0.80171 6.19642,-1.12156 9.04699,-2.36146c2.93666,-1.27734 5.19328,-3.6965 7.83106,-5.48825c1.33519,-0.90696 2.92267,-1.52032 4.03828,-2.67466c0.62725,-0.64903 0.61727,-1.67854 0.96539,-2.50271c2.12081,-5.02104 2.3763,-7.94799 2.47537,-13.44397c0.1749,-9.70328 -2.73631,-21.37811 -7.15107,-30.03832c-1.60273,-3.144 -2.66902,-6.5947 -4.75484,-9.4576c-1.59009,-2.18246 -3.99399,-4.39922 -6.45251,-6.52059l-0.18638,0.31765l-4.85741,-2.70072c-0.92989,-0.49214 -1.53645,-1.4747 -1.47406,-2.57181c0.08632,-1.51783 1.42031,-2.68015 2.97955,-2.59613l4.05003,0.21825c6.98112,-1.34149 12.36839,-4.09518 18.62984,-7.32284c1.42359,-0.89448 6.71317,-4.01401 8.0066,-5.53794c3.01132,-3.54797 2.11096,-6.75237 1.89313,-10.98233c-0.13827,-2.68513 0.06728,-6.92472 -1.50432,-9.45411c-1.69345,-2.7255 -6.05284,-5.42885 -8.66719,-7.38357c-5.26001,-3.93284 -10.4702,-8.38188 -16.96643,-10.31788c-5.01873,-1.49569 -11.94749,-0.56162 -17.22972,-0.87876c-1.48893,-0.0894 -3.10285,0.27832 -4.51325,-0.10752l-3.43606,0.75849c-0.26941,0.06578 -0.55342,0.09373 -0.84532,0.078c-1.55924,-0.08403 -2.75327,-1.38259 -2.66695,-2.90042c0.06708,-1.17967 0.88784,-2.1446 1.98224,-2.47655l3.08569,-1.01278l0.02999,0.08656c0.16,-0.07583 0.32416,-0.14472 0.49301,-0.2058c0.03052,-0.01105 0.4104,-0.00009 1.0021,0.02468c5.42397,-2.87341 4.86586,-8.3774 3.75826,-13.79601c-0.7666,-3.75035 -1.64086,-9.27787 -3.77588,-12.50997c-1.36493,-2.06629 -5.12193,-3.86289 -7.11102,-5.03734c0.05004,-0.02403 0.10008,-0.04808 0.15011,-0.07214c-3.54899,-1.84609 -5.57757,-4.38642 0.55242,-8.2973c1.18207,-0.75414 2.82386,-0.26241 4.23537,-0.19265c2.7306,0.13496 5.80656,0.49147 8.52998,0.91297c0.27142,-0.30087 -1.82027,-3.44694 -2.21394,-3.77758c-0.68899,-0.57867 -1.76789,-0.47598 -2.57222,-0.89027c-0.68543,-0.35304 -7.28342,-4.5327 -8.55001,-5.02156c-1.50987,-0.58276 -3.20189,-0.60799 -4.72642,-1.15337c-5.78988,-2.07125 -11.92088,-5.17138 -18.23367,-5.60014c-6.7746,-0.46013 -13.7676,0.00903 -20.56039,0.00903c-3.95803,0 -7.91959,0.05708 -11.87708,0c-1.23224,-0.01778 -2.52201,0.26929 -3.69582,-0.09614c-3.65302,-1.13724 -4.0774,-2.33495 -6.10472,-4.89157c-12.51783,-12.94227 -31.70842,-12.89725 -48.54288,-10.56564c-3.47886,0.48183 -7.02378,0.68949 -10.41529,1.58437c-7.7903,2.05553 -16.35334,5.99715 -23.44183,9.76245c-2.49534,1.32547 -9.1555,6.21976 -11.79594,5.6399c-1.69609,-0.37248 -1.02089,-3.23594 -1.53135,-4.8539c-4.13506,-7.53976 -9.91085,-12.25959 -17.78272,-16.08794c-1.42366,-0.69236 -2.78298,-1.61443 -4.33923,-1.93835c-4.13037,-0.85971 -9.76401,0.50294 -13.75426,1.27936c-7.84283,1.52605 -15.27771,4.41081 -22.61532,7.50203c-4.35091,1.83297 -10.63998,3.35153 -14.48312,6.0339c-1.31839,0.92019 -2.13493,2.37838 -3.21747,3.5545c-1.49106,1.61993 -2.48695,2.68407 -3.40614,3.64379l-2.50147,4.38307c-0.45706,0.83821 -1.36289,1.40907 -2.40571,1.40907c-1.50322,0 -2.72183,-1.18625 -2.72183,-2.64955v-2.9133c-0.71868,-1.10644 -1.43737,-2.21289 -2.15606,-3.31933c-2.10533,-3.44222 -5.05161,-7.95432 -8.06098,-10.74113c-0.51646,-0.47825 -4.04113,-1.1591 -4.55109,-1.20058c-3.56407,-0.2899 -7.93308,-0.15963 -11.44129,0.00786c-6.3213,0.3018 -12.77735,3.90801 -18.54195,6.26429c-3.17897,1.2994 -6.64499,2.10197 -9.49883,3.98533c-1.32839,0.87666 -2.26671,2.21265 -3.37277,3.34464c-0.82514,0.84448 -2.00969,1.48885 -2.41987,2.58378c-0.30492,0.81396 0.00624,1.71018 0.12204,2.59117c0.4001,0.25136 0.76883,0.65941 1.03357,1.30367c0.04375,0.10646 0.08087,0.21015 0.11185,0.31112c0.80838,0.36018 1.65128,0.66234 2.52251,0.91482c-0.93544,0.38142 -1.86991,0.76798 -2.80387,1.15829c-0.51852,0.73733 -1.34679,1.05984 -1.34679,1.05984c-0.22823,0.08867 -0.45461,0.1818 -0.67958,0.27834c-0.0307,0.10044 -0.06063,0.20104 -0.08959,0.30184c0,0 -0.74775,2.5476 -3.36485,1.81972c-0.2176,-0.06052 -0.41195,-0.13363 -0.5854,-0.2168c-0.64747,0.28859 -1.30473,0.55269 -1.98213,0.76696c-0.92315,0.292 -1.88078,0.49632 -2.86064,0.63621zM548.61278,347.15992c0.01956,-0.57225 0.02928,-1.14476 0.02569,-1.71763c-0.00624,-0.99923 0.24355,-2.18095 -0.37982,-2.97485c-0.39838,-0.50737 -1.57975,-0.53002 -1.96798,-0.01526c-0.38537,0.51097 0.59952,1.17003 0.6192,1.80363c0.02355,0.7581 -0.71408,1.49635 -0.49406,2.22393c0.13796,0.45622 0.85595,0.51787 1.34082,0.57621c0.28475,0.03426 0.57017,0.06918 0.85614,0.10397zM97.7682,42.21102c0.28213,-0.0694 -0.08383,-0.01396 -0.54827,0.00552c0.18831,0.02835 0.3736,0.03745 0.54827,-0.00552z" fill="#7631ff" stroke="none" stroke-width="0.5"/><path d="M229.67343,-20.25712c0.97986,-0.13989 1.93811,-0.34446 2.86126,-0.63646c0.6774,-0.21427 1.33511,-0.47855 1.98259,-0.76714c0.17345,0.08317 0.3679,0.15624 0.5855,0.21676c2.6171,0.72788 3.36567,-1.82003 3.36567,-1.82003c0.02896,-0.1008 0.05893,-0.20141 0.08963,-0.30185c0.22496,-0.09654 0.45151,-0.18973 0.67974,-0.2784c0,0 0.82862,-0.32263 1.34714,-1.05996c0.93396,-0.39031 1.86909,-0.7771 2.80453,-1.15852c-0.87123,-0.25248 -1.68207,-0.45992 -2.49045,-0.8201c-0.03098,-0.10097 -0.0681,-0.20466 -0.11185,-0.31112c-0.26474,-0.64426 -0.63335,-1.05235 -1.03345,-1.30371c-0.11581,-0.88099 -0.45956,-1.87175 -0.15464,-2.68571c0.41018,-1.09493 1.59539,-1.73952 2.42053,-2.584c1.10606,-1.13199 2.04527,-2.46826 3.37366,-3.34492c2.85385,-1.88336 6.32202,-2.68654 9.501,-3.98594c5.7646,-2.35628 12.22479,-5.96338 18.54609,-6.26518c3.50821,-0.16749 7.87966,-0.29811 11.44373,-0.00821c0.50996,0.04148 4.03559,0.72223 4.55205,1.20048c3.00937,2.78681 5.95726,7.29878 8.06259,10.741c0.71869,1.10644 1.43783,2.21286 2.15651,3.3193l-0.00004,2.9133c0,1.4633 1.21923,2.64952 2.72245,2.64952c1.04281,0 1.94924,-0.57088 2.4063,-1.40909l2.50209,-4.38309c0.91919,-0.95972 1.9159,-2.02387 3.40695,-3.6438c1.08255,-1.17612 1.89982,-2.63431 3.21821,-3.5545c3.84314,-2.68237 10.1354,-4.2008 14.48631,-6.03377c7.33761,-3.09122 14.77713,-5.97543 22.61995,-7.50148c3.99026,-0.77642 9.62663,-2.13853 13.75699,-1.27882c1.55626,0.32392 2.91653,1.24621 4.34018,1.93857c7.87188,3.82835 13.65209,8.54949 17.78715,16.08925c0.51046,1.61796 -0.16411,4.48165 1.53198,4.85413c2.64044,0.57986 9.30243,-4.31373 11.79777,-5.6392c7.08849,-3.7653 15.65479,-7.70546 23.44509,-9.76099c3.39152,-0.89488 6.93792,-1.10178 10.41678,-1.58361c16.83446,-2.33161 36.03232,-2.37189 48.55015,10.57038c2.02732,2.55662 2.4528,3.75522 6.10582,4.89246c1.17381,0.36543 2.46397,0.07869 3.69622,0.09647c3.9575,0.05708 7.92024,0.00104 11.87827,0.00104c6.79279,0 13.78763,-0.46741 20.56223,-0.00728c6.31279,0.42876 12.44566,3.53086 18.23554,5.60211c1.52453,0.54538 3.21697,0.57109 4.72684,1.15385c1.26659,0.48886 7.86554,4.66965 8.55097,5.02269c0.80433,0.41429 1.88346,0.31188 2.57245,0.89055c0.39367,0.33064 2.40725,3.53914 2.13583,3.84001c-2.72341,-0.4215 -5.79877,-0.77726 -8.52937,-0.91222c-1.4115,-0.06976 -2.97622,-0.62521 -4.1583,0.12893c-6.12999,3.91088 -4.10078,6.45198 -0.55179,8.29807c-0.05003,0.02406 -0.10007,0.04811 -0.15011,0.07214c1.98909,1.17445 5.74694,2.97214 7.11187,5.03843c2.13503,3.2321 3.01048,8.76127 3.77708,12.51162c1.1076,5.41861 1.6666,10.92392 -3.75737,13.79733c-0.5917,-0.02477 -1.05545,0.01874 -1.08597,0.02979c-0.16885,0.06108 -0.333,0.12998 -0.493,0.20581l-0.02998,-0.08655l-3.08561,1.0129c-1.0944,0.33195 -1.83145,1.24218 -1.89853,2.42185c-0.08631,1.51783 1.10809,2.81697 2.66733,2.901c0.2919,0.01573 0.57594,-0.01216 0.84535,-0.07794l3.43617,-0.75831c1.41039,0.38584 3.02454,0.01848 4.51347,0.10788c5.28223,0.31714 12.2118,-0.61555 17.23053,0.88014c6.49623,1.936 11.70772,6.38747 16.96772,10.32031c2.61435,1.95472 6.97444,4.65955 8.6679,7.38505c1.5716,2.52939 1.36663,6.77031 1.50491,9.45544c0.21782,4.22996 1.11875,7.43576 -1.89257,10.98373c-1.29343,1.52393 -6.58288,4.64381 -8.00646,5.53829c-6.26145,3.22766 -11.74223,6.01678 -18.72335,7.35827l-4.04993,-0.21797c-1.55924,-0.08402 -2.79982,1.04259 -2.88614,2.56042c-0.0624,1.09711 0.54435,2.08017 1.47424,2.57231l4.85766,2.70143l0.18637,-0.31769c2.45852,2.12137 4.86288,4.33952 6.45297,6.52198c2.08582,2.8629 3.15263,6.31536 4.75537,9.45936c4.41476,8.66021 7.32714,20.34033 7.15224,30.04361c-0.09907,5.49598 -0.35424,8.4252 -2.47505,13.44624c-0.34811,0.82417 -0.33809,1.8541 -0.96534,2.50313c-1.11562,1.15434 -2.70305,1.7681 -4.03824,2.67506c-2.63778,1.79175 -4.89433,4.21178 -7.83098,5.48912c-2.85056,1.2399 -6.03534,1.56006 -9.04696,2.36177c-3.44093,1.19565 -6.71506,2.9861 -10.30948,3.62345c-3.57156,0.63328 -7.35969,0.12337 -10.9882,0.23507l-2.86141,0.08438c-1.46378,0.02953 -2.67934,1.15373 -2.76161,2.60034c-0.05511,0.96908 0.41172,1.8493 1.16227,2.38059l4.48972,3.27725c4.34197,4.40455 10.27917,7.12007 14.44519,11.832c6.27362,7.09569 9.40979,14.52591 12.48843,23.24371c1.70603,4.83093 3.60398,10.21425 4.11507,15.3369c0.17143,1.71823 -0.09444,3.45234 -0.13667,5.17816c-0.14892,6.08633 -0.40355,18.19241 -8.81737,18.81696c-3.8585,1.27812 -7.5407,1.87582 -11.37053,2.03125c-1.96239,-0.82403 -4.12173,-1.18823 -6.09764,-0.6665c-0.09081,0.02397 -0.18084,0.04984 -0.27009,0.07743l-0.00767,-0.05226l-3.06223,0.42667c-1.33267,0.1596 -2.39803,1.22952 -2.47486,2.58044c-0.08631,1.51783 1.1076,2.81678 2.66684,2.90081l2.98439,0.13635c1.70244,0.08983 3.36333,0.12937 4.99891,0.10301c0.61339,0.34941 1.26881,0.81943 1.72239,1.33536c1.08153,1.23021 1.59747,2.84123 2.41473,4.25154c6.73645,11.6247 14.08802,22.44216 18.26619,35.27987c1.09596,3.3674 2.75608,6.60349 3.32225,10.09259c0.56256,3.46683 0.09928,7.02157 0.03402,10.5308c-0.06659,3.57941 -0.48838,7.14738 -0.87006,10.70804c-0.13848,1.29186 0.1697,2.68856 -0.35803,3.88152c-0.64818,1.46526 -2.01862,2.51478 -3.02774,3.77184c-4.80308,6.33125 -13.26018,12.11048 -21.50861,13.40949c-1.03843,0.16353 -2.17017,0.16505 -3.22379,0.15601c-0.06105,-7.31803 -1.7963,-14.80991 -11.68529,-8.99357c-1.60726,0.94534 -0.86314,3.57172 -1.02891,5.39257c-0.42591,4.67795 -0.74865,6.35853 4.61833,8.26628c0.72824,0.25886 1.57225,0.41985 2.35032,0.45344c-0.08523,1.02364 -0.16708,2.04777 -0.22534,3.07224c-0.19753,3.47337 0.40596,7.06753 -0.53138,10.42442c-2.08631,7.47172 -8.74612,12.84791 -14.90099,17.10545c-8.0342,5.59518 -17.79712,10.68058 -27.7119,11.82383c-3.90398,0.45016 -6.79139,1.19408 -9.99322,-1.02475l-3.32492,-3.61594l-0.85333,0.74352l-2.18979,-1.50486c-0.31669,0.83773 -0.67808,1.66249 -1.02205,2.49207l-0.86561,-0.04657l-0.17079,2.99834c-0.14895,0.58501 0.03149,4.43139 -0.64794,5.39231c-1.42828,2.02002 -6.19792,7.43969 -8.65511,8.58243c-5.14672,2.39352 -12.98226,1.92413 -18.51716,1.62117c-13.21636,-0.7234 -25.68924,-1.28821 -38.48927,-4.84126c-5.01542,-1.39219 -9.45574,-2.36911 -13.86528,-5.09798c-7.31229,-0.50352 -14.74948,-1.56462 -21.99814,-0.07436c-5.19564,1.06817 -9.44607,4.1325 -14.2856,6.03762c-4.34398,1.71004 -5.51806,1.66124 -10.18412,1.98415c-19.67827,1.36184 -39.48134,-3.20448 -59.09262,-1.41676c-1.58922,1.32526 -5.05272,4.72058 -7.62723,5.55625c-7.93502,2.57564 -16.1919,1.29989 -24.35019,0.86024c-3.33661,-0.17981 -6.73482,0.1134 -10.01308,-0.5175c-6.24449,-1.20175 -12.78017,-3.95951 -18.69804,-6.24169c-13.04252,-5.02973 -25.34625,-11.05336 -37.18601,-18.39631c-1.86128,0.18458 -3.87165,-0.17895 -5.58468,0.55327c-3.36048,1.43644 -5.35204,5.05179 -8.63287,6.65322c-1.62604,0.7937 -3.51133,0.96258 -5.18749,1.65046c-1.69097,0.69397 -3.15536,1.87129 -4.88053,2.48029c-4.54621,1.60485 -9.58217,1.87395 -14.32742,1.84243c-7.49975,-0.04981 -14.97187,-0.4947 -22.46001,-0.89474c-5.76223,-0.30784 -10.34879,-0.41578 -15.83328,-2.20297c-3.18211,-1.03692 -9.23561,-2.16684 -11.21874,-5.32552c-1.85848,-2.96014 -1.5443,-7.23157 -1.34109,-10.49005c0.0664,-1.16753 0.70914,-8.40939 -0.30803,-9.18422c-2.02114,-1.53959 -5.05002,-0.91725 -7.5978,-1.21761c-4.91006,-0.57885 -8.72119,1.37201 -13.43032,1.71766c-3.63329,0.26668 -7.2888,-0.00572 -10.9311,-0.10085c-1.86429,-0.0487 -3.72526,-0.19568 -5.58935,-0.25117c-1.42767,-0.0425 -2.9638,0.48461 -4.28507,-0.04357c-1.25509,-0.50172 -1.82518,-1.96702 -2.86514,-2.81531c-1.29787,-1.05867 -3.29825,-1.48993 -3.82163,-3.32119c-1.68003,-5.87814 -2.77003,-12.26921 -2.40757,-18.32691c0.2092,-3.49622 -0.65236,-8.77862 1.05061,-11.95262c0.74741,-1.39303 1.94837,-2.50656 2.92262,-3.75973c-0.967,-2.16975 -1.52648,-4.56043 -2.90162,-6.51028c-0.75705,-1.07343 -2.2794,-1.3875 -3.27862,-2.25307c-2.69226,-2.3321 -5.16124,-4.91809 -7.46099,-7.6191c-6.26009,-7.35234 -14.12654,-17.55292 -15.09215,-27.3716c-0.08639,-0.87852 0.00041,-7.30727 0.60912,-8.65687c0.93729,-2.07813 5.55702,-3.56902 5.49339,-5.99992c-0.06378,-2.43737 -2.39263,-4.28713 -3.67811,-6.37968c-5.5606,-9.05173 -14.42512,-15.42548 -17.66853,-25.73814c-1.75512,-5.39664 -2.95894,-11.69484 -2.40361,-17.40045c0.17336,-1.78112 0.49822,-3.54645 0.69961,-5.32478c0.07863,-0.69434 -0.23863,-1.49814 0.13995,-2.09156c1.80684,-2.83213 6.21891,-6.501 8.617,-8.92159c0.93256,-0.9413 1.59965,-2.30711 2.8571,-2.76732c1.55734,-0.56996 3.77194,0.99806 4.99014,-0.10503c1.88071,-1.70301 2.18188,-4.55862 2.83062,-6.97796c1.85416,-6.91468 1.35902,-15.23004 1.77138,-22.34246c0.20033,-3.45522 -0.48334,-7.05206 0.52152,-10.37166c0.47185,-1.55876 1.7071,-2.79401 2.54342,-4.2004c1.88876,-3.1762 3.73156,-6.38006 5.59727,-9.56915c1.45118,-2.48054 2.32292,-5.36877 4.31252,-7.4658c4.23644,-4.46522 10.22354,-8.15168 15.09129,-11.98682c0.75751,-0.59682 1.3558,-1.49065 2.28537,-1.77538c1.52995,-0.46862 3.82794,0.85187 4.79473,-0.39391c1.11417,-1.43567 1.43334,-10.61083 1.56322,-12.89447c0.29175,-5.13011 0.58437,-10.26318 0.87612,-15.39329c0.17051,-2.99823 -0.50455,-6.14246 0.44409,-8.99975c0.51652,-1.55575 1.64766,-2.85079 2.45427,-4.28489c2.52773,-4.49412 5.35957,-9.33617 9.00797,-13.09833c2.25173,-2.32194 4.9755,-4.15763 7.54183,-6.15457l0.17814,0.11181c0,0 0.12124,0.10788 0.46006,0.25588c-0.05918,-0.10803 -0.11695,-0.21689 -0.17325,-0.32652c-0.75335,-1.46667 -0.06763,-5.02276 0.96327,-8.25962c-0.36723,0.06225 -0.64164,0.19888 -0.99651,0.32151c-0.2082,0.07194 -0.40122,0.16705 -0.58248,0.28047c-0.01936,-0.02567 -0.12643,-0.09941 -0.1458,-0.12508c-3.15914,-3.57807 -5.74168,-9.85764 -1.86173,-13.96817c0.82853,-0.87777 1.6971,-1.72126 2.58847,-2.5386c1.30405,-1.19574 3.81351,-1.76495 3.99621,-3.49977c0.19049,-1.8087 -1.99801,-3.08026 -3.15201,-4.5099c-1.66347,-2.06082 -3.68438,-3.85469 -5.17406,-6.03786c-3.98748,-5.84375 -6.61319,-10.93632 -4.79322,-18.05834c0.3143,-1.2299 1.00438,-4.5282 2.24933,-5.68859c3.09106,-2.88109 8.60338,-4.7346 12.46889,-6.26076c11.67382,-1.86949 22.98814,-2.21789 34.9012,-2.21789c2.96926,0 5.9451,0.17638 8.90878,-0.0009c1.57544,-0.09424 3.4529,0.34641 4.69549,-0.60108c1.16306,-0.88687 0.88086,-2.7502 1.44334,-4.08006c0.53912,-1.2746 1.55964,-2.37239 1.85667,-3.72014c0.56662,-2.57097 0.41408,-5.24437 0.65428,-7.86344c0.15178,-1.65506 -1.15518,-7.11076 0.95206,-8.33124c0.49141,-0.28461 1.11403,0.28554 1.68514,0.31337c3.16326,0.1541 6.33568,-0.0009 9.5029,-0.0009c4.84358,-0.0073 10.36135,-0.01392 15.17376,0.56727c2.99397,0.36158 5.75199,1.89187 8.74149,2.28686c1.83526,0.24249 3.70902,-0.09409 5.55708,0.02466c1.9535,0.12553 3.83578,0.80914 5.77218,1.07465c1.47971,-0.45288 3.03342,-0.6881 4.54958,-1.0184c3.38375,-0.73716 11.06349,1.49226 14.71342,3.47426c1.95275,-0.80523 3.90086,-1.61713 5.83786,-2.43975z" fill="#fd66ff" stroke="none" stroke-width="0.25"/><path d="" fill="#9966ff" stroke="none" stroke-width="0.5"/><path d="M374.87493,139.34097l2.41792,-1.03625l0.36936,0.18026c0.85641,-0.91778 2.23102,-0.7063 2.23102,-0.7063l4.2686,1.98307c1.1398,3.19422 2.46165,5.63174 2.25805,9.12501c-0.40655,6.97567 -5.45819,14.19561 -13.32015,11.03888c-1.44365,-0.57966 -3.07504,-1.17062 -3.98148,-2.43494c-0.76971,-1.0736 -0.47865,-2.60358 -0.57537,-3.92104c-0.33802,-4.60441 0.3933,-10.17236 4.86796,-12.62422c0.21831,-0.7315 0.76248,-1.32246 1.46409,-1.60446z" fill="#ffffff" stroke="none" stroke-width="0.5"/><path d="" fill="#9966ff" stroke="none" stroke-width="0.5"/><g stroke="none" stroke-width="0.5"><g fill="#ffffff"><path d="M190.23385,117.20514c0.39261,-0.05875 0.92045,-0.17437 1.54317,-0.32322c1.41687,-0.1526 2.80496,-0.39067 4.13541,-0.77678c2.71628,-0.78828 6.6161,-2.21121 9.37868,-2.29683c1.02982,-0.03191 2.05992,-0.04447 3.0902,-0.04646c3.57837,0.39605 7.01823,1.4302 9.63735,3.17628l1.1543,0.69258c4.11629,4.11629 11.29142,19.85871 11.27618,26.18355c-0.00163,0.67801 0.49596,3.49685 0.42702,6.29831c0.66258,1.3955 1.05981,2.78293 1.05981,3.69704c0,1.20107 0.00961,2.34858 0.01302,3.45092c-0.21173,1.48148 -0.45047,2.98275 -0.75031,4.5216c-1.08839,5.58587 -1.92122,9.1976 -5.91378,13.25296c-5.98976,6.08397 -11.55198,10.47288 -20.89166,10.8657c-2.2731,0.09561 -4.64039,-0.07146 -6.98018,0.00389c-0.11123,-0.00259 -0.22279,-0.00389 -0.33464,-0.00389c-1.19492,0 -2.35511,0.14863 -3.46311,0.4284c-1.22976,0.26622 -2.43198,0.6843 -3.58736,1.33422c-0.54632,0.30731 -1.03035,0.67731 -1.46447,1.09758c-2.88086,2.18567 -4.89569,5.4534 -5.4391,9.19783c-0.24507,0.29256 -0.13677,0.50479 -0.10298,0.83035c0.01927,0.18562 -0.10341,0.46696 -0.0338,0.67311c-0.00673,0.17899 -0.01013,0.35882 -0.01013,0.53945c0,0.96359 0.09666,1.9046 0.28079,2.81387c-0.00662,3.54733 -0.02322,7.98843 -0.01936,10.96606c0.01201,9.25691 1.00295,18.42609 1.00295,27.82729c0,4.24071 -3.15036,9.89356 -8.49804,6.83774c-0.03214,-0.01836 -0.06371,-0.0373 -0.09473,-0.05679c-0.16432,0.01797 -0.3376,0.02744 -0.52038,0.02744c-3.52524,0 -3.52524,-3.52524 -3.52524,-3.52524c0,-13.72832 0,-27.45664 0,-41.18496c1.87018,-4.31794 -1.20533,-12.12999 -1.2387,-15.65115c-0.20473,-21.59906 0.51997,-39.26275 -0.97731,-57.85812c4.70692,-6.99596 13.20447,-11.84924 20.84638,-12.99273z"/><path d="M174.43515,199.71093c-1.94984,1.73319 -2.85863,-8.13175 -3.05347,-8.81372c-0.02054,-0.06614 -0.0316,-0.13646 -0.0316,-0.20935c0,-0.38939 0.31566,-0.70505 0.70505,-0.70505c0.38939,0 0.70505,0.31566 0.70505,0.70505c0,0.32089 -0.21438,0.59171 -0.50772,0.67706c1.25119,2.1449 3.23617,7.40958 2.18269,8.346z"/><path d="M171.87812,204.45567c-0.63218,0 -1.60522,-15.89713 -1.37323,-17.08536c0.12525,-0.19588 1.22968,7.88717 1.47943,7.88717c0.38939,0 0.70505,0.31566 0.70505,0.70505c0,0.07602 -0.01203,0.14925 -0.0343,0.21785c0.16905,0.43813 -0.10855,1.23326 -0.04399,1.8365c0.29522,2.75867 -0.00826,6.4388 -0.73295,6.4388z"/></g><path d="M211.45127,138.78785l0.7324,-0.09154l1.10717,-0.30196l0.27779,-0.00591l0.26046,-0.09674l1.1036,-0.12262l0.19673,0.02658l0.19257,-0.04814h0.06752l0.22845,-0.12692l0.02603,-0.04555l0.90471,-0.22618l0.63584,-0.1706l0.05356,-0.09372l0.43945,-0.10986l0.38841,-0.23305l0.26006,0.07093l0.67471,-0.16868h0.36786l1.76262,0.44066l0.33377,0.5841l0.02846,0.00776l0.02193,0.08042l0.09654,0.16897l0.84125,0.48072l0.28149,1.12592l0.0043,0.00374l0.00079,0.01661l0.15408,0.61634v0.4905l-0.08515,0.34063l0.01669,0.35072l-0.12262,0.61312l-0.15786,0.33326l-0.05872,0.36404l-1.10361,2.5751l-0.17476,0.22996l-0.09133,0.27401l-0.85068,1.33677l-0.60552,0.96883l-0.28965,0.27931l-0.20703,0.34503l-1.22625,1.22625l-0.30108,0.18064l-0.23619,0.25981l-0.07743,0.05162l-0.74231,0.74232l-0.03258,0.0512l-0.03773,0.2704l-0.2486,0.17955l-0.16463,0.2587l-0.26772,0.05355l-0.79193,0.57196l-0.18023,0.07209l-0.1175,0.08811l-0.09232,0.03888l-0.06737,0.07411l-0.36786,0.24525l-0.20978,0.07492l-0.16913,0.14497l-0.4905,0.24525l-0.2477,0.05503l-0.21407,0.13623l-0.07228,0.0241c2.90383,6.25814 5.20677,16.97363 -1.16512,16.22054c-4.06017,-0.47987 -7.80824,-5.36271 -10.12006,-9.16125c-3.6791,3.15966 -8.69697,5.70662 -10.90909,6.66459c-1.68574,0.73002 -4.24204,2.02268 -6.11664,0.82976c-3.90186,-2.48299 -0.95651,-9.8606 2.04927,-14.92354c-1.91483,-0.80372 -3.82117,-1.62237 -5.69449,-2.49687c-1.40463,-0.65571 -4.76163,-2.20129 -5.21043,-3.99653c-1.64435,-6.57743 10.53787,-8.41314 15.33089,-6.15342c0.94448,-1.39693 2.07123,-2.72222 2.94477,-4.10708c1.63243,-2.58796 2.69771,-12.7877 8.17516,-10.19526c2.97679,1.4089 6.34868,7.64803 8.97306,12.14081z" fill="#fd66ff"/></g><path d="M396.26187,254.1699c-1.37931,1.27498 -2.48364,2.93533 -4.13792,3.82493c-3.56642,1.91788 -8.25718,1.68562 -12.12353,2.72849l-1.13508,0.23276c0,0 -2.46861,0.49373 -3.20756,-1.78415c-0.88694,-0.69237 -1.08622,-1.84821 -1.08622,-1.84821c-1.40222,-8.13381 -2.26544,-16.12437 -3.10824,-24.28443c-0.68025,-6.58624 -2.55811,-13.09385 -2.89063,-19.70651c-0.47339,-9.41442 -0.00353,-18.97834 -0.00353,-28.40955c0,-10.65101 -0.57056,-21.30344 -0.57691,-31.9223c-0.00193,-3.21492 -0.87757,-9.46857 1.33725,-12.08179c3.82756,-4.51607 13.44533,-6.16911 18.82105,-6.87501c10.32191,-1.3554 20.58165,-2.99345 30.88642,-4.45779c2.91136,-0.08503 5.84487,-0.27398 8.69308,-0.88303l3.0723,-0.24563c0,0 2.81302,-0.20092 3.01396,2.61209c0.00122,0.01712 0.00234,0.03415 0.00333,0.05109c1.73456,0.61015 1.73456,2.64977 1.73456,2.64977c0,6.85881 0,16.21755 0,23.07636c0,0 0,2.82019 -2.82018,2.82019c-0.82025,0 -1.40193,-0.23857 -1.81444,-0.57693c-13.30399,-0.00248 -26.59683,-0.18334 -39.90242,-0.19196c0.17562,3.32627 0.60696,6.63314 0.83465,9.96587c5.17056,-0.19643 10.08722,-2.09663 15.01626,-3.73964l2.3936,-0.74811c0.28431,-0.19677 0.64142,-0.35891 1.08888,-0.46545c2.74349,-0.65321 3.39671,2.09028 3.39671,2.09028c1.22844,5.17073 1.66592,10.42629 2.88627,15.58382l0.06905,1.48071c0.00591,0.08056 0.00592,0.12674 0.00592,0.12674c0,1.15382 0,2.30764 0,3.46146v0.37149c0.1002,0.91587 -0.19102,1.5621 -0.59366,2.01201c-0.35908,0.4891 -0.93534,0.90893 -1.86016,0.99675c-5.83355,1.16703 -11.79135,0.81637 -17.73376,0.78783c0.06601,21.03649 0.86807,42.38803 -0.25903,63.34789z" fill="#ffffff" stroke="none" stroke-width="0.5"/><path d="M258.78862,169.53032c-0.21639,0.03689 -0.35794,0.03689 -0.35794,0.03689c-3.63207,-0.01259 -7.98591,0.19352 -11.14589,2.5683c-8.06573,6.06153 -9.6547,19.10112 -9.64714,29.10812c0.00359,4.74555 -0.05534,8.62418 1.41019,13.12185c1.37336,4.82124 9.09151,8.56519 13.20767,10.26907c8.95203,3.70567 23.09954,2.64811 29.74289,-5.70389c2.58686,-3.2522 3.11978,-8.48632 3.90841,-12.55511c-0.01116,-2.58891 0.61588,-6.36149 0.04681,-8.86032c-1.35901,-5.96748 -4.68669,-11.22275 -7.84463,-16.14348c-2.61636,-4.07684 -5.03362,-8.63926 -9.57808,-10.461c-2.58074,-1.03455 -5.25099,-0.9112 -7.94248,-0.90962zM258.76168,163.95925c0.63155,-0.08904 1.15412,0.07609 1.15412,0.07609l0.67262,0.32541c3.31738,0.00183 6.53626,-0.03835 9.71176,1.25997c5.60382,2.29118 8.73276,7.44478 11.99931,12.53674c3.50446,5.46284 7.22292,11.46701 8.63267,18.13615c0.65305,3.08934 0.05834,7.50324 0.04681,10.66607c-1.58424,8.45279 -3.45258,16.22638 -10.71919,20.83532c-10.79729,6.84831 -25.62016,5.2101 -36.02659,-1.31321c-4.25395,-2.66661 -8.03954,-5.12761 -9.96678,-10.15526c-1.6512,-5.15358 -1.73224,-9.66716 -1.72835,-15.08291c0.00856,-11.89975 2.26282,-26.78107 11.93026,-33.81022c4.09631,-2.97841 9.24021,-3.49215 13.96236,-3.50657c0,0 0.12988,0 0.331,0.03242z" fill="#ffffff" stroke="#ffffff" stroke-width="5"/><path d="M309.83619,188.84345c0.94982,2.73774 1.80118,5.50175 3.48585,7.71945c2.96656,3.90518 7.22881,4.56945 11.19867,5.62713c4.79161,1.27661 9.8931,2.59429 14.83101,1.62989c2.0677,-0.40383 4.66427,-2.52491 6.60214,-3.53154c2.76074,-2.40187 6.48235,-5.00191 7.99771,-8.91142c3.89162,-10.04003 -0.31719,-24.84323 -6.24841,-32.48993c-2.72719,-3.51596 -8.25103,-9.89281 -12.33776,-9.39371c-3.87759,0.27815 -6.75412,1.86316 -10.30032,3.7255c-7.47791,3.92713 -16.65708,10.6703 -18.33515,21.25621c-0.65743,4.14734 0.72697,8.65602 2.01972,12.34471c0,0 0.05001,0.14394 0.09891,0.37851zM304.53628,189.03758c-1.65774,-4.80787 -3.09148,-10.24099 -2.31398,-15.57787c1.83493,-12.59524 12.15479,-20.73916 21.04091,-25.42693c4.0442,-2.13347 7.44449,-3.82582 11.87766,-4.17306c4.43662,-0.01699 7.61259,2.86508 11.10762,6.14263c8.54989,8.01783 15.01108,22.44785 13.71045,36.12098c-0.87533,9.20207 -6.02207,14.15872 -11.77655,19.0935c-2.35856,1.25537 -5.44563,3.59573 -7.98411,4.14637c-5.47998,1.1887 -11.27897,-0.23191 -16.59798,-1.64776c-4.95789,-1.31973 -9.91322,-2.47529 -13.60476,-7.2732c-2.09188,-2.71882 -3.19921,-6.00808 -4.37272,-9.38097l-0.48073,-0.55607c0,0 -0.308,-0.46649 -0.46463,-1.14377c-0.09528,-0.19179 -0.14117,-0.32386 -0.14117,-0.32386z" fill="#ffffff" stroke="#ffffff" stroke-width="5"/><g stroke="none" stroke-width="0.5"><path d="M465.97214,116.50569c2.08258,8.80778 2.66506,19.21016 3.39277,28.22867c0.50731,6.28716 0.80973,13.10037 1.77256,19.35665c0.05156,0.335 1.87623,9.98397 2.23423,14.16184c0.54607,6.37272 0.06491,12.70013 0.78129,19.04091c0.40668,3.59949 0.47998,7.21349 0.94388,10.79578c0.09588,0.74035 1.31734,6.69588 0.83354,7.86955c-0.67902,1.64726 -9.56957,4.94051 -11.1295,3.99714c-1.03108,-0.62355 -1.4116,-3.40845 -1.74344,-4.99473c-1.09384,-5.22877 -3.33806,-10.05272 -4.51904,-15.24871c-1.71872,-7.56189 -4.87505,-14.39312 -6.99785,-21.39975c-3.57834,-11.81078 -7.13146,-24.29591 -9.58887,-36.65658c-0.62457,-3.14155 -1.38551,-6.25421 -2.14118,-9.36342c-1.92416,-5.71288 -3.96631,-12.68998 -2.60465,-13.7877c7.76308,-6.25839 17.79354,-3.40886 26.74845,-4.75949c0.06838,-0.01032 0.13746,-0.01264 0.20677,-0.00709c0.66454,0.05314 1.35053,0.82897 1.65568,2.21036c0.05676,0.17421 0.10882,0.35975 0.15536,0.5566z" fill="#000000"/><path d="M486.05508,243.20038c1.92205,-0.84096 3.34395,-3.34896 5.15618,-4.20572c1.31911,-0.62364 3.19306,-1.11418 4.33202,-0.20402c6.74211,5.38772 -1.37932,15.75854 -5.25219,20.28234c-0.45274,0.52883 -0.96151,1.26143 -1.56326,1.91739c1.47598,3.29057 2.52051,14.09623 -0.92926,15.92034c-2.27838,1.20471 -8.08326,-4.01604 -11.76059,-7.81289c-4.6791,5.60464 -13.54496,12.70633 -16.34433,11.83603c-4.8755,-1.51574 -0.69662,-13.20738 1.1873,-17.61038c-0.25755,-0.17364 -0.48077,-0.32462 -0.65834,-0.43309c-2.06368,-1.26053 -13.41157,-10.66559 -12.41786,-13.78511c0.22955,-0.72061 2.68927,-1.98565 3.40428,-1.90922c1.63416,0.17467 3.19848,0.6725 4.83894,0.81004c1.04756,0.08782 4.77503,0.00534 7.81707,0.32547c0.73166,-5.61281 1.9631,-11.69024 4.16551,-16.78792c0.43582,-1.00875 1.88488,-5.51059 4.00631,-5.31661c1.7538,0.16037 3.06662,0.15582 3.8403,1.5723c1.03896,1.90221 1.33251,3.17191 1.9929,5.17256c0.3119,0.94485 3.24578,7.39717 5.00331,11.8759c1.03889,-0.63524 2.16033,-1.20056 3.18169,-1.64744z" fill="#faff00"/></g></g></g></svg>