<svg version="1.1" xmlns="http://www.w3.org/2000/svg" xmlns:xlink="http://www.w3.org/1999/xlink" width="422.19073" height="449.12643" viewBox="0,0,422.19073,449.12643"><g transform="translate(-108.90464,44.56321)"><g stroke="none" stroke-miterlimit="10"><path d="M402.73688,7.63638c-1.22741,-0.53501 -2.83571,-0.56763 -3.68222,-1.60502c-0.90452,-1.10848 -0.95112,-2.73854 -1.0279,-4.16717c-0.35817,-6.6648 6.81035,-10.53462 11.13867,-14.33951c3.30137,-2.90213 7.67575,-6.4897 11.6389,-8.48304c4.89606,-2.46256 11.01067,-3.32196 16.13315,-5.26608c5.22106,-1.98153 9.84855,-5.59352 15.07128,-7.54939c-3.97667,-0.32157 -7.73732,-0.84087 -11.74815,-1.88822c-4.56023,-1.19813 -9.52029,-3.14665 -14.19263,-3.7502c-3.19999,-0.41336 -6.45314,0.0206 -9.67972,0.0206c-8.09993,0 -16.19987,0 -24.2998,0c-17.86225,0 -35.72449,0 -53.58674,0c-34.2235,0 -68.44704,-0.05594 -102.67016,0.1117c-3.27418,0.01604 -6.55263,-0.12566 -9.82255,0.04182c-1.31736,0.06747 -2.78136,-0.21081 -3.9337,0.43115c-1.18953,0.66268 -1.69905,2.12836 -2.55771,3.18516c-0.92856,1.14283 -2.10916,2.1153 -2.80389,3.41362c-2.58715,4.83491 -1.63229,9.72359 -0.64536,14.69487c0.6331,3.18899 0.68331,6.49991 1.5815,9.6246c3.10997,10.81924 9.30746,21.35448 14.4746,31.29127c0,0 0.69299,1.33267 -0.02835,2.46918c0.27519,0.40164 0.43618,0.88768 0.43618,1.41133c0,0.62357 -0.2283,1.19381 -0.60587,1.63171c-0.32932,0.46901 -0.88226,0.80113 -1.68196,0.85941c-0.06889,0.00502 -0.13961,0.00801 -0.21217,0.00888c-7.81174,0.09349 -15.62472,-0.04483 -23.43689,0c-3.63779,0.02088 -7.7666,1.16722 -11.32971,1.80219c-14.1208,2.51642 -39.53246,8.53805 -34.18843,28.57936c1.43034,5.36409 7.25784,9.25155 11.8834,11.49591c1.84464,0.89504 4.18442,1.07754 5.65637,2.46991c0.19511,0.07824 0.32706,0.15694 0.37104,0.23391l0.27204,0.47607c0.39904,0.48789 0.65525,0.91297 0.75654,1.32394l0.20259,0.35453c-0.05924,0.10367 -0.11739,0.20307 -0.17454,0.29835c-0.09285,0.56468 -0.49208,1.15191 -1.22932,1.88915c-0.74136,0.74136 -2.37968,0.40507 -4.25331,-0.38598c-0.33363,-0.03968 -0.69552,-0.06624 -1.09079,-0.07083c-14.45154,-0.16775 -18.0026,-0.56311 -28.63506,2.35912c-11.31795,3.11063 -17.10178,10.66767 -9.42116,21.03905c1.22167,1.64965 2.75203,3.78247 4.39642,5.1275c0.66311,0.54239 2.43103,0.56773 2.87798,1.31265c0.43208,0.72014 0.88582,1.61061 0.68213,2.42536c-0.36418,1.45673 -1.32529,1.90734 -2.42462,1.87125c-0.28581,0.11374 -0.59755,0.17627 -0.9239,0.17627h-0.02528l-1.6262,0.8131l-0.04635,0.0103l-0.03717,0.02955l-1.65035,0.75016l-2.07276,1.03638l-1.58308,0.8635l-2.85575,1.80363l-0.01101,0.00363l-0.00808,0.00831l-2.90129,1.79603l-0.67073,0.78252l-0.07994,0.05673l-0.05043,0.08406l-1.65042,1.65042l-1.4986,1.64846l-0.00814,0.00543l-0.0047,0.00859l-1.7126,1.85532l-1.12152,1.68228l-0.0216,0.01964l-0.01044,0.02727l-1.03966,1.48523l-0.67182,1.0749l-0.72033,1.44065l-0.0882,0.44102l-0.09901,0.20902l-0.03125,0.22916l-0.60071,1.50178l-0.5371,1.47703l-0.11668,0.58341l-0.05132,0.10833l-0.00557,0.11974l-0.88936,2.96454l-0.43851,2.19255l-0.04022,0.0849l-0.00244,0.09392l-0.72608,2.61387l-0.27017,1.89121l-0.14344,2.43851v11.33224l0.98534,4.22288l0.57885,1.73655l0.0138,0.17941l0.07417,0.16395l0.27116,1.49136l0.60611,1.69711l0.92628,1.45558l0.12708,0.38125l0.18912,0.3546l0.38788,1.55153l1.13239,2.13896l1.08378,1.35473l0.04609,0.10057l0.08186,0.07442l0.81945,1.22917l0.23729,0.20214l0.43321,0.27568l0.0225,0.11252l0.13423,0.11434l1.19675,1.67545l0.14109,-0.16461l0.03826,-0.00213l0.22814,-0.15209l0.0806,-0.0806l0.00069,-0.00498l0.01542,-0.01114l0.18983,-0.18983l0.43142,-0.25885l0.40787,-0.29457l0.24925,-0.0997l0.01631,-0.00979l0.00485,0.00132l0.40235,-0.16094l0.52244,-0.26122l0.17566,-0.03903l0.15181,-0.09661l0.46159,-0.15386l0.40069,-0.03082l0.38988,-0.09747h4.00041l0.29857,0.07464h0.30776l0.61545,0.15386l0.3775,0.20133l0.40291,0.1439l0.24791,0.16527l0.39425,0.07885l0.22233,0.10531h0.05669l1.25,0.3125l0.04898,0.08571l0.09857,0.00548l0.83853,0.97828l0.15386,0.30772l0.03903,0.17566l0.09661,0.15181l0.15386,0.46159l0.03082,0.40069l0.09747,0.38988v2.30793l-0.09747,0.38988l-0.03082,0.40069l-0.15386,0.46159l-0.12759,0.20051l0.00936,0.13566l-0.31895,0.35084l-0.25456,0.40002l-0.13334,0.02667l-0.15987,0.17586l-0.25561,0.17041l-0.28654,0.28654l-0.21352,0.12811l-0.1675,0.18425l-0.46159,0.30772l-0.09473,0.03383l-0.04202,0.07354l-0.54632,0.13658l-0.53033,0.1894l-0.07576,-0.03788l-0.09758,0.0244h-2.92338l-0.38988,-0.09747l-0.40069,-0.03082l-0.33924,-0.11308l-1.25886,-0.27975l-0.27527,-0.13764l-0.30044,-0.06676l-0.67771,-0.33886l-0.96466,-0.24116l-0.12476,-0.06654v0.25684l-0.14191,0.56766c5.65827,7.29446 -2.21583,21.45734 0.65776,31.35682c3.33617,11.49305 5.57172,18.09249 16.04188,24.70394c3.31969,2.09624 7.14258,3.24935 10.7366,4.91137c1.43984,0.66584 3.32419,-0.17868 3.32419,2.67193c0,1.9571 -1.46291,2.53638 -2.9045,2.51542l-0.02199,0.07224c-0.0217,0.43758 -0.15591,0.84556 -0.37429,1.1956l-0.85263,1.42106l-0.70098,1.40195l-1.18868,2.67453l-0.59794,1.49484l-0.01076,0.01489l-0.00274,0.01817l-0.65842,1.5802l-0.10646,0.63877l-0.04063,0.09345v0.1019l-0.30432,1.21727l-0.69807,2.9319v0.93738l-0.03831,0.15326l0.01901,0.15683l-0.28842,2.30735v1.6907l-0.01111,0.04443l0.00951,0.0448l-0.15227,4.26353v1.38013l1.88685,8.70854l0.63943,1.40675l1.4648,2.92961l0.70636,1.13017l0.00721,0.02223l0.01653,0.01653l0.39523,0.65872l0.38421,0.51227l0.02757,0.06547l0.05256,0.04778l0.17041,0.25561l2.07403,2.07403l0.99997,0.87497l1.34688,0.80813l0.02806,0.02806l0.03759,0.01272l1.98661,1.2771l2.2794,0.99724l0.08777,0.06775l0.10731,0.0279l1.53796,0.83889l1.06609,0.39978l0.23738,0.16371l0.27156,0.09699l0.28458,0.18972l1.19036,0.52905l0.01438,0.01123l0.01792,0.0034l1.97751,0.9127l2.43889,1.06701l0.01448,0.01117l0.01799,0.0033l1.59729,0.72604l1.81803,0.6493l1.90434,0.27205l0.16028,0.0653l0.17297,0.00577l3.2311,0.92317l0.12373,0.07139l0.14134,0.02073l2.46137,1.01351l2.76202,0.72685l0.03839,0.02109l0.04375,0.00203l2.88658,0.86597l0.61053,0.0814l0.41373,-0.53194l0.44843,-0.59791l0.13965,-0.11347l0.09258,-0.1543l0.31257,-0.31257l0.20842,-0.24315l0.36223,-0.44582l0.05573,-0.0418l0.04673,-0.05452l0.02804,-0.00156l0.45371,-0.34028l0.73881,-0.59105l0.03645,-0.01671l0.02529,-0.03112l0.47331,-0.35498l0.16286,-0.16286l0.00237,-0.01464l0.03956,-0.02728l0.13117,-0.13117l0.45406,-0.27243l0.4359,-0.30062l0.17369,-0.06513l0.0412,-0.02472l0.01431,0.0039l0.2207,-0.08276l0.11668,-0.13612l0.04699,-0.1913l0.23143,-0.13352l0.17388,-0.20286l0.19669,-0.01093l0.51405,-0.29657l1.0248,-0.2928l0.41005,-0.13668l0.39674,-0.03052l0.33849,-0.20309l0.01359,-0.00414l0.02265,-0.03963l0.60238,-0.1506l0.59402,-0.18079l0.03981,0.02233l0.01378,-0.00345h4.61586l0.24157,0.06039l0.24872,-0.01184l0.52657,0.10531h0.06018l0.55728,0.13932l0.56075,0.12461l0.06231,0.03115l0.06966,0.01742l0.01393,0.02438l0.22409,0.11205l0.34921,0.0873l0.15174,0.08093l0.1704,0.02324l0.76931,0.30772l0.56162,0.40562l0.18986,0.03797l0.11675,0.18347l0.1763,0.12733l0.02676,0.19176l0.37194,0.58447l0.15386,0.46159l0.00752,0.09774l0.04613,0.08649l0.06364,0.25454l0.27019,0.45031l0.00414,0.01359l0.03963,0.02265l0.1506,0.60238l0.18079,0.59402l-0.02233,0.03981l0.00345,0.01378v2.61565l-0.11962,0.47848l0.0503,0.18443l-0.16527,0.27545l-0.07791,0.31164l-0.16598,0.09485l-0.20088,0.33481l-0.04615,0.20769l-0.03115,0.06231l-0.01742,0.06966l-0.02438,0.01393l-0.23477,0.46955l-0.32097,0.37447l-0.03749,0.18746l-0.27101,0.17246l-0.20905,0.24389l-0.19087,0.0106l-0.03681,0.02343l-0.22224,0.20203l-0.33018,0.3632l-0.46159,0.30772l-0.14877,0.05313l-0.11994,0.10281l-0.16183,0.08091l-0.01393,0.02438l-0.06966,0.01742l-0.06231,0.03115l-0.56075,0.12461l-0.55728,0.13932h-0.06966l-0.07009,0.01558l-0.02336,-0.01558h-10.45336l-0.10292,-0.02573l-0.1047,0.01709l-1.84634,-0.15386l-0.1628,-0.05542l-0.17191,0.00452l-0.76355,-0.16968l-0.07469,0.44814l-0.1489,0.34248l-0.08101,0.36456l-0.22827,0.45654l-0.17326,0.51977l-0.12316,0.98526l-0.03368,0.08701l0.00444,0.09319l-0.30772,1.53862l-0.0261,0.05509v0.06096l-0.23308,0.93232v5.53895l0.07922,0.31687v0.1019l0.04063,0.09345l0.08035,0.48208l0.39359,0.68878l0.03934,0.13987l0.08792,0.11568l0.38919,0.90811l1.13457,1.84368l0.0126,0.03977l0.02887,0.03012l0.61545,1.07703l0.06742,0.2397l0.13368,0.21007l0.00469,0.01408l1.16404,1.39684l1.23668,1.23668l2.06799,1.77256l1.78379,1.4865l1.78039,1.33529l1.47254,1.07094l1.46163,0.66438l0.03717,0.02955l0.04635,0.0103l1.16175,0.58087l3.12101,0.40709l0.05977,0.02351l0.06409,-0.00418l1.69248,0.30772l0.02055,0.0093l0.02253,-0.00107l0.52657,0.10531h0.82948l0.35394,0.08848l0.36443,0.01695l3.07427,0.92228l5.62588,1.67256l7.56043,1.8145l1.40218,0.25494h12.74885l1.74272,-0.14523l0.1047,0.01709l0.10292,-0.02573h0.20394l3.44045,-0.71676l0.18979,0.00752l0.18142,-0.05622l2.53232,-0.14068l1.00043,-0.25011h0.30776l0.29857,-0.07464h0.19058l2.67623,-0.93668l0.25258,-0.02323l0.23551,-0.0942l3.38496,-0.46159l0.17094,0.01879l0.16684,-0.04171h0.36362l0.96784,-0.32261l1.66074,-0.6039l0.23067,-0.02403l0.21269,-0.09247l0.92317,-0.15386l1.28437,0.10275l1.59262,1.95224l-0.50542,1.36762c2.85411,3.43012 -0.14014,7.78439 -0.08381,17.1385c0.03071,5.09934 4.42383,10.32094 8.33007,13.13285c14.70844,10.58791 30.92144,12.88858 48.58592,12.6199c3.22936,-0.04912 10.85648,-3.32114 14.02803,-5.263c1.14856,-0.70323 4.68568,-2.73438 6.03399,-2.47928c0.69262,-0.28105 1.5505,-0.42148 1.88681,-0.6671c3.50636,-2.56084 11.16018,-2.05506 15.13746,-1.06074c5.16123,1.29031 9.01329,5.50545 12.78803,9.13215c0.87104,0.83688 3.20267,1.37826 4.13024,1.91655c11.50255,6.67521 28.08913,7.64888 40.9835,4.1943c7.12529,-1.90896 16.43705,-6.98847 16.78946,-15.60891c0.09183,-2.24623 -0.02108,-4.51099 -0.3103,-6.75647c-2.32941,-0.90264 -3.95258,-2.44577 -4.78603,-5.77955c-0.61939,-2.47756 3.14844,-5.68819 5.27005,-5.60976c0.10672,-0.0139 0.21556,-0.02107 0.32607,-0.02107c1.38071,0 2.5,1.11929 2.5,2.5c0,0.17022 -0.01701,0.33647 -0.04943,0.49714c0.78861,1.32387 1.30615,2.7544 1.6322,4.34572c0.49721,0.15552 0.97396,0.30782 1.38601,0.4047c4.33128,1.0183 11.53639,0.59837 14.90568,0.56098c2.74638,-0.03047 5.06749,-0.95507 7.73644,-1.35963c9.91753,-1.50331 24.69232,-1.54221 30.80125,-11.1148c1.34024,-2.10014 1.26182,-5.05189 1.74589,-7.32644c2.21347,-10.40073 -2.13682,-18.58553 -7.51397,-26.94785c-1.38833,-2.15907 -5.69603,-7.34323 -6.00456,-9.66761c-0.25139,-1.89392 0.48661,-3.39466 1.66807,-3.76306c0.0605,-0.07615 0.12679,-0.15054 0.19909,-0.22284c1.75662,-1.75662 10.81111,-0.51918 14.95748,-0.88609c12.58479,-1.11365 21.50935,-10.12228 25.19544,-21.94945c3.93129,-12.61394 -0.17742,-25.13105 -10.01578,-32.75983c-0.46449,-0.36017 -3.9263,-2.74562 -5.38805,-2.75867c-8.12985,-0.07258 -14.61942,-0.26128 -22.08343,0.30772c-3.31291,0.25255 -4.82941,3.80718 -5.97487,4.46173c-0.40372,0.68405 -1.12392,1.15908 -1.95917,1.22364c-0.14556,0.04095 -0.3034,0.07864 -0.47439,0.11284c-4.19508,0.83902 -3.61051,-6.50595 -2.21403,-8.43955c1.5388,-2.13064 5.06975,-3.23647 7.0126,-4.99045c5.10758,-4.61107 8.43305,-12.08758 11.9657,-17.86847c10.93658,-17.89677 15.10195,-37.6042 10.46883,-58.74328c-1.01461,-4.62926 -1.3907,-10.31787 -4.25625,-14.28555c-0.27752,-0.06054 -0.53781,-0.16717 -0.77246,-0.31148c-0.95671,0.08096 -2.41199,0.3679 -2.53878,0.36893c-3.31259,0.02679 -12.1023,-1.31806 -8.40465,-7.12864c2.21432,-3.47965 8.60078,-2.18333 11.83708,-1.34086c0.54695,0.14238 2.50269,2.02415 2.56804,2.00785c0.6085,-0.15179 1.4172,-0.56362 1.94827,-0.8546c3.07537,-1.685 4.65874,-5.52295 6.07609,-8.50805c6.18046,-13.01675 10.51089,-26.00719 6.33493,-40.91589c-4.8833,-17.43401 -18.18858,-16.50137 -33.64778,-16.34423c-1.05231,0.0107 -4.14385,1.07058 -5.84102,0.987l-0.62311,0.15578l-0.07693,0.13463l-0.31164,0.07791l-0.27545,0.16527l-0.18443,-0.0503l-0.47848,0.11962h-7.6931l-0.09758,-0.0244l-0.07576,0.03788l-0.53033,-0.1894l-0.54632,-0.13658l-0.04202,-0.07354l-0.09473,-0.03383l-0.33208,-0.22139l-0.0096,-0.0048l-0.20207,-0.06736l-0.1654,-0.04135l-0.56075,-0.12461l-0.06231,-0.03115l-0.06966,-0.01742l-0.01393,-0.02438l-0.16183,-0.08091l-0.37447,-0.32097l-0.18746,-0.03749l-0.17246,-0.27101l-0.24389,-0.20905l-0.0106,-0.19087l-0.22292,-0.3503l-0.08392,-0.06394l-0.52895,-0.66119l-0.36368,-0.36368l-0.20676,-0.34461l-0.26154,-0.30513l-0.26479,-0.52957l-0.41219,-0.68698l-0.08016,-0.26339l-0.14781,-0.23228l-0.09768,-0.29303l-0.6169,-1.23381l-0.02438,-0.01393l-0.01742,-0.06966l-0.03115,-0.06231l-0.12461,-0.56075l-0.15196,-0.60784l-0.03115,-0.06231l-0.12461,-0.56075l-0.13932,-0.55728v-0.06966l-0.01558,-0.07009l0.01558,-0.02336v-0.29847l-0.07313,-0.29253l-0.16527,-0.27545l0.0503,-0.18443l-0.11962,-0.47848v-0.76931l-0.13181,-0.52722l-0.1894,-0.53033l0.03788,-0.07576l-0.0244,-0.09758v-0.76927l-0.07922,-0.31687v-0.30776l-0.07464,-0.29857v-0.95976l-0.25396,0.20634l-0.43614,0.37384l-0.06231,0.03115l-0.05573,0.04528l-0.02786,-0.00348l-0.46955,0.23477l-0.17566,0.03903l-0.15181,0.09661l-0.07671,0.02557l-0.12909,0.09681l-0.00708,0.02123l-0.05762,0.0273l-0.09711,0.07283l-0.5098,0.21465l-0.4999,0.2368l-0.11902,0.0238l-0.05877,0.02474l-0.02054,-0.00888l-0.57098,0.1142l-0.24872,-0.01184l-0.24157,0.06039h-3.53882l-0.15552,-0.03888l-0.09878,0.04547l-0.48745,-0.19202l-0.50826,-0.12707l-0.05395,-0.09441l-0.14915,-0.05875l-1.07703,-0.76931l-0.1355,-0.15906l-0.17917,-0.1075l-1.26941,-1.26941l-0.02754,-0.00551l-0.03855,-0.06058l-0.04926,-0.04926l-0.29554,-0.49257l-0.3084,-0.48463l-0.02203,-0.06609l-0.03694,-0.06157l0.00739,-0.02709l-0.0461,-0.13829l-0.00146,-0.00291l-0.02438,-0.01393l-0.01742,-0.06966l-0.03115,-0.06231l-0.12461,-0.56075l-0.13932,-0.55728v-0.06966l-0.01558,-0.07009l0.01558,-0.02336v-1.98169l-0.01558,-0.02336l0.01558,-0.07009v-0.06966l0.13932,-0.55728l0.01454,-0.06544v-0.14659l0.11962,-0.47848l-0.0503,-0.18443l0.16527,-0.27545l0.07791,-0.31164l0.16598,-0.09485l0.25375,-0.42292l0.13268,-0.13268l0.15209,-0.22814l0.00213,-0.03826l0.49104,-0.42089l0.47854,-0.43504l0.03823,0.00264l0.27819,-0.1391l0.17566,-0.03903l0.15181,-0.09661l0.52767,-0.17589l0.2186,-0.13116l0.48463,-0.3084l0.06609,-0.02203l0.06157,-0.03694l0.02709,0.00739l0.59987,-0.19996l0.00291,-0.00146l0.01393,-0.02438l0.06966,-0.01742l0.06231,-0.03115l0.56075,-0.12461l0.55728,-0.13932h0.06966l0.07009,-0.01558l0.02336,0.01558h4.14502l0.47848,0.11962l0.18443,-0.0503l0.27545,0.16527l0.31164,0.07791l0.09143,0.16l0.08027,0.03679l0.44375,0.11094l0.07157,0.12525l0.24016,0.11008l0.63234,0.50587l0.39091,-0.97729l0.75355,-2.10994l0.13812,-0.20718l0.0725,-0.23822l0.27019,-0.45031l0.14285,-0.57142v-0.42853l-0.01946,-0.03302l0.1751,-0.62258l0.15686,-0.62742l0.03327,-0.01901l0.26968,-0.47193v-19.36731l-0.14145,-1.41455l0.01838,-0.12561l-0.03079,-0.12315v-0.56389l-0.25945,-0.60538l-0.0256,-0.15873l-0.08035,-0.13927l-0.30772,-1.07703l-0.00142,-0.04274l-0.02012,-0.03773l-0.59216,-2.36865l-0.5068,-1.52041l-0.46816,-0.81928l-0.74317,-1.18907l-0.05168,-0.15935l-0.10424,-0.13114l-0.72766,-1.60086l-0.55039,-0.9907l-0.68314,-0.68314l-1.9857,-1.41836l-0.1355,-0.15906l-0.17917,-0.1075l-0.92317,-0.92317l-0.05043,-0.08406l-0.07994,-0.05673l-0.67431,-0.78669l-0.90662,-0.56664l-0.05473,-0.05676l-0.07336,-0.0289l-2.06024,-1.4716l-1.72981,-1.00906l-2.4447,-1.37515l-0.12095,-0.11435l-0.1534,-0.06459l-1.47703,-1.10777l-0.63315,-0.1809l-0.04824,-0.02783l-0.05553,-0.00427l-1.1709,-0.3903l-0.85387,-0.12198l-0.29404,-0.11979l-0.31395,-0.04739l-1.79323,-0.74718l-1.63841,-0.59579l-0.15813,-0.10674l-0.18464,-0.04801l-1.2854,-0.70113l-1.68382,-0.22451h-8.10356l-4.77702,0.14928l-2.6184,0.30844l-4.75374,0.57621l-2.27414,0.66886l-0.94033,0.403l-0.10473,0.01689l-0.0895,0.05695l-0.36329,0.1211l-0.19813,0.19813l-0.20379,0.12228l-0.0523,0.12552l-0.44218,0.17117l-0.40658,0.24395l-0.13119,-0.03578l-0.22164,0.08579l-0.5036,0.06295l-0.3601,0.30008l-0.02315,0.01117l-0.01558,0.02044l-0.12214,0.09772c-0.11104,0.32039 -0.2854,0.61119 -0.50812,0.85743l-0.03563,0.0668l-0.03731,0.01049c-0.45347,0.46066 -1.08423,0.74628 -1.7817,0.74628c-1.13479,0 -2.09299,-0.75608 -2.39832,-1.79196l-0.02703,-0.02591v-0.07335c-0.04876,-0.19487 -0.07464,-0.3988 -0.07464,-0.60878c0,-0.22872 0.03071,-0.45026 0.08824,-0.66073l0.09813,-0.3925zM212.84444,-6.50745c-0.10557,-0.36727 -1.56242,-9.43663 -1.68072,-10.03403c-1.66939,-8.43026 -1.30053,-15.43191 4.51248,-22.28094c1.27692,-1.5045 2.26065,-3.42754 3.99507,-4.36872c4.10702,-2.22867 11.62678,-1.06668 16.1358,-1.08877c34.23128,-0.16768 68.46299,-0.11176 102.69465,-0.11176c17.86225,0 35.72449,0 53.58674,0c8.09993,0 16.19987,0 24.2998,0c0.40399,0 10.11084,-0.00645 10.32028,0.0206c4.88413,0.63091 10.05394,2.62023 14.82263,3.87313c4.91486,1.29986 9.40099,1.69014 14.47149,1.99445l0.16766,0.08498l0.01131,-0.05469l2.67883,0.5542c1.16089,0.21601 2.03981,1.23423 2.03981,2.45773c0,0.78746 -0.36408,1.48989 -0.93309,1.94813l-3.8536,3.15295l-0.01494,-0.01826c-0.06666,0.05974 -0.13401,0.1188 -0.20209,0.17714c-0.73149,0.62686 -8.26841,4.06181 -9.23874,4.54179c-5.35262,2.6477 -10.40135,4.93011 -16.01179,6.95164c-2.45785,0.8856 -5.1965,1.00266 -7.52777,2.18186c-2.45482,1.24169 -5.60853,3.75072 -7.82199,5.37158c-3.56261,2.6088 -7.72135,5.90067 -10.78345,9.10599c-1.49608,1.56605 -2.82188,4.7442 -0.19479,4.9414l1.3529,-0.12829c0,0 1.78787,0 2.33974,1.51194l0.0131,-0.00507l0.37975,-0.04747l0.00891,-0.00891l0.49257,-0.29554l0.48463,-0.3084l0.06609,-0.02203l0.06157,-0.03694l0.02709,0.00739l0.66977,-0.22326l0.98145,-0.42062l0.14913,-0.02405l0.13025,-0.0765l2.61565,-0.76931l0.20912,-0.00859l0.19547,-0.07483l4.96367,-0.60166l0.0043,0.00054l0.00406,-0.00154l2.72943,-0.32151l0.10882,0.01398l0.10556,-0.02992l4.92358,-0.15386l0.03919,0.00851l0.0389,-0.00973h8.30855l0.16322,0.04081l0.16719,-0.01888l2.30793,0.30772l0.42463,0.16839l0.4421,0.11494l1.52693,0.83287l1.51526,0.551l0.04887,0.03299l0.05831,0.0088l1.55298,0.64707l0.76241,0.10892l0.21045,0.08574l0.22657,0.01743l1.33322,0.44441l1.0248,0.2928l0.39399,0.2273l0.41921,0.17651l1.71504,1.28628l2.31874,1.30429l0.01466,0.01386l0.01937,0.00563l1.84634,1.07703l0.0841,0.08205l0.10932,0.04306l2.09134,1.49381l1.16553,0.72845l0.26353,0.27329l0.30961,0.21972l0.86069,1.00414l0.70898,0.70898l1.9857,1.41836l0.1355,0.15906l0.17917,0.1075l1.07703,1.07703l0.17941,0.29901l0.23822,0.25465l0.76931,1.38476l0.02661,0.0992l0.06391,0.0804l0.70095,1.54208l0.68175,1.0908l0.01561,0.04812l0.035,0.03653l0.61545,1.07703l0.06742,0.2397l0.13368,0.21007l0.61545,1.84634l0.00752,0.09774l0.04613,0.08649l0.60534,2.42138l0.25275,0.88463l0.28444,0.6637l0.00436,0.00249l0.00461,0.01845l0.10575,0.24675l0.08011,0.4967l0.12202,0.4881v0.26845l0.00303,0.01878l-0.00303,0.00401v0.6611l0.14145,1.41455l-0.01838,0.12561l0.03079,0.12315v20.1229l0.01946,0.03302l-0.1751,0.62258l-0.15686,0.62742l-0.03327,0.01901l-0.26968,0.47193v0.1054l-0.07464,0.29857v0.30776l-0.30772,1.2309l-0.17398,0.32621l-0.10764,0.35369l-0.33422,0.55704l-0.68605,1.92094l-0.02667,0.04l-0.0065,0.04763l-0.92317,2.30793l-0.06211,0.086l-0.02301,0.10356l-0.36239,0.72478l0.03342,0.11695l0.26023,0.65059l0.03125,0.22916l0.09901,0.20902l0.30772,1.53862l-0.01107,0.23238l0.41577,1.38589l0.01695,0.36443l0.08848,0.35394v1.23086l0.07922,0.31687v0.30776l0.07464,0.29857v0.30772l0.13181,0.52722l0.1894,0.53033l-0.03788,0.07576l0.0244,0.09758v0.61545l0.07313,0.29253l0.16527,0.27545l-0.0503,0.18443l0.11962,0.47848v0.76931l0.01264,0.05056l0.03115,0.06231l0.12461,0.56075l0.13932,0.55728v0.02528l0.50538,1.01076l0.03903,0.17566l0.09661,0.15181l0.06708,0.20124l0.32039,0.53399l0.02854,0.09378l0.06379,0.07443l0.12629,0.25258l0.17472,0.17472l0.07243,0.12071l0.11198,0.08532l0.52895,0.66119l0.09447,0.09447l0.02754,0.00551l0.03855,0.06058l0.04926,0.04926l0.0606,0.101l0.1931,0.06437l0.15181,0.09661l0.17566,0.03903l0.30772,0.15386l0.05109,0.04379h6.06239l0.29253,-0.07313l0.27545,-0.16527l0.18443,0.0503l0.47848,-0.11962h0.46159l0.0804,0.0201c0.31565,-0.20645 0.6578,-0.38036 1.01944,-0.52683c1.65485,-0.67026 3.71769,-0.76592 5.51623,-0.77545c11.11744,-0.05892 25.21453,-1.55185 33.00067,8.59264c13.90512,18.11686 8.22431,55.34766 -11.10118,67.59421c-0.11221,0.07111 -0.1904,0.16147 -0.24243,0.2668c0.579,0.86272 1.085,1.70123 1.47429,2.28517c2.44872,3.67308 4.74931,17.78042 4.75587,22.23282c0.02653,18.01847 -0.5325,30.1067 -8.66454,45.91249c-2.71093,5.26909 -6.0527,11.17224 -9.54802,15.92567c-0.76589,1.04157 -2.56185,2.89009 -3.0323,4.19768c-0.58101,1.61486 -1.68455,3.0469 -3.01976,4.33231c0.96519,-0.04847 1.85425,-0.04068 2.25487,-0.06067c6.18665,-0.30856 13.49213,-1.52549 19.83874,0.0975c26.73871,6.83778 24.60186,46.13244 6.56323,61.01529c-5.45902,4.50399 -14.01503,6.71843 -20.89365,6.78595c-2.31182,0.02269 -4.67061,0.36368 -6.98067,0.32059c0.44492,1.1233 0.85551,2.23945 1.36125,3.07779c7.48867,12.41351 12.78962,17.67517 10.55069,33.66365c-0.78875,5.63256 -2.72978,12.64717 -8.45732,15.36021c-9.40946,4.45711 -17.93192,5.07663 -28.08337,6.96688c-8.06675,1.50207 -16.18067,2.22168 -24.43258,0.79935c0.1407,10.57361 -4.2851,19.65883 -14.6935,24.22294c-9.00904,3.95049 -20.52067,3.45622 -29.98411,2.7275c-3.84582,-0.29614 -9.14805,0.28443 -12.87151,-1.4966c-3.88176,-1.85676 -8.67982,-3.74483 -12.1123,-6.11206c-3.58246,-2.47067 -6.33245,-5.89732 -10.13056,-8.14825c-3.04791,-1.80632 -8.65007,-0.52532 -11.99284,-0.40037c-1.11171,0.04155 -2.56306,1.98429 -3.97242,1.56938c-0.02896,0.01782 -0.05842,0.03544 -0.0884,0.05288c-4.57256,2.65953 -9.44198,4.13094 -14.49481,5.92312c-1.60338,0.5687 -4.19393,2.00964 -6.06605,2.00964c-18.35048,0 -47.48513,-2.63265 -58.18632,-20.18335c-2.17367,-3.56497 -4.17368,-5.94077 -4.18009,-10.48896c-0.00686,-4.86936 -0.07138,-9.73929 -0.02727,-14.6083l-0.05932,0.01977l-0.40069,0.03082l-0.38988,0.09747h-0.59964l-2.96688,0.40457l-2.83912,0.99369l-0.41833,0.03847l-0.40755,0.10189h-0.30768l-0.93232,0.23308h-0.23919l-0.22847,0.07079l-2.58208,0.14345l-3.50891,0.73102l-0.25871,-0.01025l-0.25118,0.06279h-0.3576l-1.74272,0.14523l-0.1047,-0.01709l-0.10292,0.02573h-13.07827l-0.22046,-0.05511l-0.22676,0.01479l-1.69248,-0.30772l-0.06494,-0.02938l-0.07128,0.00067l-7.6931,-1.84634l-0.06066,-0.03162l-0.06834,-0.00301l-5.69289,-1.69248l-0.00275,-0.00163l-0.00319,-0.00015l-2.72579,-0.81774h-0.71011l-0.24157,-0.06039l-0.24872,0.01184l-0.74781,-0.14956l-1.60922,-0.29258l-3.47665,-0.45348l-0.38785,-0.15252l-0.40684,-0.09041l-1.49722,-0.74861l-1.65035,-0.75016l-0.19955,-0.15862l-0.23637,-0.09546l-1.69248,-1.2309l-0.01214,-0.0145l-0.01743,-0.00734l-1.84634,-1.38476l-0.04137,-0.05092l-0.05909,-0.02852l-1.84634,-1.53862l-0.01054,-0.01442l-0.01598,-0.00799l-2.15407,-1.84634l-0.05673,-0.07994l-0.08406,-0.05043l-1.38476,-1.38476l-0.05947,-0.09911l-0.09332,-0.0682l-1.53862,-1.84634l-0.20187,-0.41815l-0.24929,-0.39174l-0.07558,-0.22674l-0.47247,-0.82682l-1.2096,-1.96559l-0.05616,-0.17734l-0.11256,-0.1481l-0.40527,-0.94562l-0.54451,-0.9529l-0.11946,-0.42473l-0.17592,-0.40462l-0.13745,-0.82469l-0.12965,-0.51859v-0.30776l-0.07464,-0.29857v-6.15448l0.07464,-0.29857v-0.30776l0.2933,-1.17318l0.27814,-1.39072l0.14253,-1.14026l0.08989,-0.23221l0.0191,-0.24827l0.30772,-0.92317l0.09661,-0.15181l0.03903,-0.17566l0.13961,-0.27922l0.03035,-0.1821l-2.6118,-0.78354l-2.88211,-0.75845l-0.14827,-0.08144l-0.16737,-0.02455l-2.48571,-1.02353l-2.93178,-0.83765l-1.98502,-0.28357l-0.23488,-0.09569l-0.25241,-0.02483l-2.15407,-0.76931l-0.08875,-0.05917l-0.10491,-0.01927l-1.6763,-0.76196l-2.44551,-1.06991l-0.02035,-0.01571l-0.02525,-0.00479l-1.98411,-0.91574l-1.36856,-0.60825l-0.1692,-0.13219l-0.2022,-0.07222l-0.22212,-0.14808l-0.96142,-0.36053l-0.14677,-0.10122l-0.17255,-0.04486l-1.59702,-0.8711l-2.36217,-1.03345l-0.15927,-0.12294l-0.19058,-0.0645l-2.12156,-1.36386l-1.50548,-0.90329l-0.15942,-0.15942l-0.20061,-0.10288l-1.2309,-1.07703l-0.04854,-0.06989l-0.07297,-0.04378l-2.30793,-2.30793l-0.12811,-0.21352l-0.18425,-0.1675l-0.26923,-0.40385l-0.41995,-0.55994l-0.05093,-0.12096l-0.0928,-0.0928l-0.44989,-0.74982l-0.75727,-1.21162l-0.03733,-0.1151l-0.07874,-0.09187l-1.53862,-3.07724l-0.0103,-0.04635l-0.02955,-0.03717l-0.76931,-1.69248l-0.04853,-0.26422l-0.11886,-0.24091l-2.00021,-9.23172l0.00849,-0.26864l-0.06519,-0.26075v-1.69248l0.01111,-0.04443l-0.00951,-0.0448l0.15227,-4.26353v-1.80171l0.03831,-0.15326l-0.01901,-0.15683l0.28842,-2.30735v-1.07525l0.07129,-0.28515l-0.0033,-0.2939l0.76931,-3.2311l0.00666,-0.01283v-0.01446l0.28351,-1.13404l0.13745,-0.82469l0.11518,-0.26491l0.04311,-0.28563l0.76244,-1.82986l0.60882,-1.52204l0.02832,-0.03922l0.00834,-0.04765l1.2309,-2.76952l0.03583,-0.04587l0.01263,-0.05682l0.76931,-1.53862l0.06379,-0.07443l0.02854,-0.09378l0.85272,-1.4212c-3.19864,-1.1773 -6.37772,-2.86332 -9.01973,-4.598c-9.32776,-6.12439 -13.5678,-11.47761 -16.56511,-22.31683c-0.81843,-2.95968 -2.84731,-6.55084 -2.85771,-9.61252c-0.03205,-9.43681 -0.09427,-18.8742 0,-28.3106c0,-0.01255 0.00009,-0.02507 0.00028,-0.03757c0.00774,-0.52517 0.17741,-1.01112 0.46131,-1.41014v-0.29606l0.07464,-0.29857v-0.30776l0.07922,-0.31687v-0.30768l0.14049,-0.56198l-0.37899,-0.22739l-0.00748,0.00076l-0.02083,-0.01774l-0.21192,-0.12715l-0.36026,-0.36026l-0.38784,-0.33038l-0.14364,-0.2011l-0.01935,-0.01935l0.00016,-0.00752l-0.91473,-1.28063l-0.01504,0.00104l-0.35084,-0.31895l-0.40002,-0.25456l-0.02667,-0.13334l-0.17586,-0.15987l-1.17072,-1.75607l-1.16312,-1.4539l-0.09881,-0.21559l-0.15848,-0.17643l-1.38476,-2.61565l-0.07283,-0.29515l-0.14306,-0.26823l-0.36319,-1.45276l-0.85923,-1.35021l-0.08903,-0.26709l-0.15617,-0.23426l-0.76931,-2.15407l-0.02021,-0.2055l-0.08511,-0.18813l-0.27594,-1.51768l-0.55926,-1.67779l-0.00904,-0.11758l-0.05385,-0.10491l-1.07703,-4.61586l0.00454,-0.28832l-0.06994,-0.27975v-11.69351l0.01823,-0.07293l-0.01392,-0.07387l0.15386,-2.61565l0.03173,-0.10123l-0.01092,-0.10552l0.30772,-2.15407l0.06182,-0.15175l0.00425,-0.16381l0.74469,-2.68089l0.44355,-2.21773l0.05132,-0.10833l0.00557,-0.11974l0.88936,-2.96454l0.13079,-0.65393l0.0821,-0.17332l0.01987,-0.19075l0.61545,-1.69248l0.02279,-0.03376l0.0055,-0.04036l0.5302,-1.32551l0.10885,-0.54424l0.14295,-0.30178l0.07244,-0.32597l0.92317,-1.84634l0.07874,-0.09187l0.03733,-0.1151l0.76931,-1.2309l0.04805,-0.04633l0.02387,-0.06233l1.06074,-1.51535l1.21514,-1.82271l0.14748,-0.13407l0.09563,-0.17487l1.8399,-1.99322l1.53223,-1.68545l0.05072,-0.03381l0.03136,-0.05227l1.62459,-1.62459l0.86069,-1.00414l0.31389,-0.22276l0.26836,-0.27592l3.22153,-1.99428l2.91386,-1.84033l0.07769,-0.0256l0.06017,-0.05542l1.69248,-0.92317l0.04432,-0.01152l0.03477,-0.0298l2.15407,-1.07703l0.04635,-0.0103l0.03717,-0.02955l0.4918,-0.22354c-3.43746,-3.11141 -6.98326,-8.52697 -7.8963,-12.1791c-3.36586,-13.46343 9.1905,-18.75693 19.30746,-22.30292c2.88898,-1.01259 3.70093,-1.67115 6.82567,-1.67606c4.24281,-0.00667 8.48564,-0.01274 12.72846,-0.01159c-8.56449,-6.12988 -13.63401,-16.43201 -8.91535,-27.04901c4.42746,-9.9618 16.71659,-14.02487 26.38213,-16.98483c2.60807,-0.79869 5.92714,-2.18327 8.58502,-2.41656c4.61789,-0.40533 9.94918,-0.87782 14.45597,-2.00452h20.71356c-5.21809,-9.96468 -11.2523,-20.47732 -14.36052,-31.29047zM455.01546,62.02688l-0.04018,0.02557l-0.52767,0.17589l-0.2186,0.13116l-0.48463,0.3084l-0.06609,0.02203l-0.06157,0.03694l-0.02709,-0.00739l-0.13603,0.04534v1.26555l0.81394,0.81394l0.25673,0.18338h2.46849l0.15393,-0.11545l0.37038,-0.15595l0.33905,-0.21576l0.23359,-0.07786l0.05396,-0.07195l0.26923,-0.40385l0.10052,-0.09138l0.05906,-0.12233l0.69486,-0.83383l-0.66328,-0.55274l-0.15344,-0.12275l-0.00525,0.00143l-0.27545,-0.16527l-0.29253,-0.07313zM194.90188,312.70999h9.69129l0.02063,-0.10313l0.29157,-0.18554l0.08994,-0.14989l0.07791,-0.31164l0.14909,-0.08519v-1.04959l-0.10532,-0.17553l-0.10764,-0.35369l-0.02089,-0.03918l-0.02655,-0.00664l-0.24293,-0.12956l-0.26876,-0.05973l-0.19431,-0.09716l-0.10112,0.00482l-0.52657,-0.10531h-3.67585l-0.17553,0.10532l-0.01359,0.00414l-0.02265,0.03963l-0.60238,0.1506l-0.59402,0.18079l-0.03981,-0.02233l-0.01378,0.00345h-0.05589l-0.07671,0.02557l-0.05553,0.00427l-0.04824,0.02783l-0.11769,0.03363l-0.01538,0.09505l-0.30211,0.20835l-0.23884,0.27864l-0.17967,0.00998l-0.34007,0.23453l-0.72385,0.27144l-0.07867,0.07867l-0.1543,0.09258l-0.11347,0.13965l-0.58421,0.43815l-0.55361,0.44289zM129.32616,183.38711l1.08432,0.24096l0.11739,0.05869l0.13086,0.01007l0.07671,0.02557h1.5563v-0.04951l-0.13841,-0.06556l-0.32597,-0.07244l-0.30772,-0.15386l-0.11994,-0.10281l-0.14877,-0.05313l-0.06257,-0.04171h-2.26967z" fill="#7631ff" stroke-width="0.5"/><path d="M404.19579,7.65425l-0.09811,0.39251c-0.05753,0.21047 -0.08819,0.43203 -0.08819,0.66075c0,0.20998 0.02596,0.41395 0.07472,0.60882l0.00001,0.07335l0.02704,0.02591c0.30533,1.03588 1.26422,1.79231 2.39901,1.79231c0.69747,0 1.32852,-0.28547 1.78199,-0.74613l0.03732,-0.01049l0.03563,-0.0668c0.22272,-0.24624 0.39709,-0.53703 0.50813,-0.85742l0.12215,-0.09771l0.01558,-0.02044l0.02315,-0.01117l0.36014,-0.30006l0.5037,-0.0629l0.22168,-0.08577l0.13122,0.0358l0.40664,-0.24392l0.44225,-0.17113l0.0523,-0.12552l0.20382,-0.12227l0.19815,-0.19812l0.36335,-0.12107l0.08951,-0.05694l0.10475,-0.01688l0.94047,-0.40292l2.27452,-0.66866l4.75459,-0.57574l2.61885,-0.30818l4.77787,-0.14877l8.10495,0.00089l1.68412,0.22471l1.28569,0.70132l0.18468,0.04803l0.15817,0.10677l1.63874,0.59602l1.7936,0.74744l0.314,0.04743l0.2941,0.11983l0.85402,0.12209l1.17113,0.39046l0.05554,0.00428l0.04825,0.02784l0.63327,0.18099l1.47738,1.10803l0.15343,0.06461l0.12098,0.11437l2.44522,1.37555l1.73018,1.00935l2.06071,1.47197l0.07337,0.02891l0.05474,0.05677l0.90681,0.5668l0.6745,0.78684l0.07996,0.05674l0.05045,0.08407l0.92341,0.92336l0.17921,0.10753l0.13554,0.15909l1.98614,1.41873l0.68331,0.68329l0.55058,0.99086l0.72794,1.60111l0.10427,0.13117l0.05171,0.15937l0.74341,1.18928l0.46832,0.81942l0.50705,1.52063l0.59252,2.36898l0.02013,0.03774l0.00143,0.04274l0.30789,1.07719l0.08038,0.1393l0.02562,0.15875l0.25956,0.60548l0.00007,0.56395l0.03081,0.12317l-0.01837,0.12562l0.14164,1.41473l0.00242,19.36983l-0.26965,0.47196l-0.03327,0.01901l-0.1568,0.62749l-0.17504,0.62265l0.01947,0.03303l0.00006,0.42859l-0.14279,0.57149l-0.27016,0.45034l-0.07248,0.23825l-0.13811,0.20719l-0.75336,2.11016l-0.46655,1.0427l-0.6322,-0.50571l-0.24012,-0.11003l-0.07155,-0.12522l-0.44368,-0.11086l-0.08026,-0.03677l-0.0914,-0.15996l-0.31159,-0.07786l-0.2754,-0.16521l-0.18441,0.05032l-0.47841,-0.11954l-4.14451,0.00056l-0.02335,-0.01557l-0.07008,0.01559l-0.06965,0.00001l-0.55723,0.13938l-0.5607,0.12467l-0.06231,0.03115l-0.06965,0.01743l0.05949,-0.04351l-0.07633,0.06935l-0.59982,0.20001l-0.02709,-0.00739l-0.06157,0.03694l-0.06608,0.02204l-0.48461,0.30842l-0.21859,0.13117l-0.52763,0.17594l-0.1518,0.09662l-0.17564,0.03905l-0.27817,0.13912l-0.03822,-0.00263l-0.47854,0.43504l-0.49103,0.4209l0.07092,-0.03003l-0.15208,0.22815l-0.13268,0.13268l-0.25372,0.42295l-0.16599,0.09484l-0.07788,0.31168l-0.16525,0.27547l0.05033,0.18447l-0.11957,0.47854l0.00002,0.14661l-0.01453,0.06545l-0.13926,0.55735l0.00001,0.06967l-0.01557,0.0701l0.01559,0.02337l0.00028,1.982l-0.01558,0.02336l0.01559,0.0701l0.00001,0.06967l0.13942,0.55739l0.12471,0.56086l0.03116,0.06232l0.01743,0.06967l0.02439,0.01394l0.00146,0.00291l0.04613,0.13832l-0.00739,0.02709l0.03695,0.06159l0.02204,0.0661l0.30851,0.48475l0.29565,0.49269l0.04927,0.04928l0.03856,0.0606l0.02754,0.00551l1.26975,1.2698l0.17921,0.10754l0.13554,0.15911l1.07727,0.76959l0.14918,0.05878l0.05397,0.09443l0.50834,0.12716l0.48753,0.19212l0.09879,-0.04546l0.15554,0.03891l3.53923,0.0005l0.24159,-0.06037l0.24875,0.01188l0.57103,-0.11414l0.02054,0.00888l0.05877,-0.02474l0.11903,-0.02379l0.49992,-0.23677l0.50983,-0.21462l0.09711,-0.07283l0.05762,-0.0273l-0.07114,0.04107l0.20731,-0.15911l0.07671,-0.02556l0.15181,-0.09661l0.17567,-0.03901l0.46957,-0.23475l0.02786,0.00348l0.05573,-0.04528l-0.016,0.03104l0.43614,-0.37384l0.33227,-0.26853l0.00013,0.95992l0.07469,0.29863l0.00004,0.30781l0.07927,0.31694l0.0001,0.7694l0.02442,0.0976l-0.03787,0.07577l0.18949,0.53045l0.13189,0.52733l0.0001,0.76945l0.1197,0.47858l-0.05028,0.18446l0.16532,0.27552l0.07318,0.29259l0.00004,0.29852l-0.01558,0.02336l0.01559,0.0701l0.00001,0.06967l0.13941,0.5574l0.1247,0.56087l0.03116,0.06233l0.15206,0.60797l0.1247,0.56087l0.03116,0.06233l0.01743,0.06968l0.02438,0.01394l0.61713,1.23412l0.09773,0.2931l0.14786,0.23234l0.0802,0.26345l0.41232,0.68717l0.26489,0.52971l0.2616,0.30522l0.20682,0.3447l0.36376,0.3638l0.52908,0.66139l0.08394,0.06396l0.22299,0.3504l0.01063,0.19091l0.24394,0.20912l0.17251,0.27109l0.18748,0.03752l0.37454,0.32108l0.16185,0.08095l0.01393,0.02439l0.06967,0.01743l0.06232,0.03116l0.56081,0.12471l0.16542,0.04138l0.2021,0.0674l0.0096,0.0048l0.33214,0.22148l0.09474,0.03385l0.04203,0.07356l0.54638,0.13668l0.5304,0.18951l0.07576,-0.03788l0.09759,0.02442l7.6937,0.00095l0.4785,-0.11959l0.18445,0.05033l0.27545,-0.16527l0.31165,-0.07789l0.07692,-0.13465l0.62314,-0.15574c1.69717,0.08358 4.789,-0.97581 5.84131,-0.98651c15.4592,-0.15714 28.76771,-1.08327 33.65101,16.35074c4.17596,14.9087 -0.15182,27.9078 -6.33228,40.92455c-1.41735,2.9851 -3.00037,6.82489 -6.07574,8.50989c-0.53107,0.29098 -1.43837,0.71946 -2.04687,0.87125c-0.06535,0.0163 -2.02098,-1.86483 -2.56793,-2.00721c-3.2363,-0.84247 -9.5244,-2.15681 -11.73872,1.32284c-3.69765,5.81058 5.09244,7.15777 8.40503,7.13098c0.12679,-0.00103 1.58207,-0.28798 2.53878,-0.36894c0.23465,0.14431 0.49496,0.25105 0.77248,0.31159c2.86555,3.96768 3.24201,9.66022 4.25662,14.28948c4.63312,21.13908 0.46602,40.86256 -10.47056,58.75933c-3.53265,5.78089 -6.85998,13.26288 -11.96756,17.87395c-1.94285,1.75398 -5.47463,2.86175 -7.01343,4.99239c-1.39648,1.9336 -1.98187,9.28029 2.21321,8.44127c0.17099,-0.0342 0.23942,-0.11667 0.38498,-0.15762c0.83525,-0.06456 1.55521,-0.5391 1.95893,-1.22315c1.14546,-0.65455 2.6612,-4.20754 5.97411,-4.46009c7.46401,-0.569 13.95271,-0.37821 22.08256,-0.30563c1.46175,0.01305 5.0167,2.43489 5.48119,2.79506c9.83836,7.62878 13.94465,20.15115 10.01336,32.76509c-3.68609,11.82717 -12.61439,20.84176 -25.19918,21.95541c-4.14637,0.36691 -13.20223,-0.86874 -14.95885,0.88788c-0.0723,0.0723 -0.13863,0.14675 -0.19913,0.2229c-1.18146,0.3684 -1.92005,1.86986 -1.66866,3.76378c0.30853,2.32438 4.61571,7.50915 6.00404,9.66822c5.37715,8.36232 9.72532,16.54943 7.51185,26.95016c-0.48407,2.27455 -0.40656,5.22721 -1.7468,7.32735c-6.10893,9.57259 -20.88847,9.61555 -30.806,11.11886c-2.66895,0.40456 -4.99126,1.33004 -7.73764,1.36051c-3.36929,0.03739 -10.57657,0.45877 -14.90785,-0.55953c-0.41205,-0.09688 -0.94202,-0.33384 -1.43923,-0.48936c-0.32605,-1.59132 -0.84377,-3.02174 -1.63238,-4.34561c0.03242,-0.16067 0.04937,-0.32688 0.04937,-0.4971c0,-1.38071 -1.06593,-2.41543 -2.44664,-2.41543c-0.11051,0 -0.21941,0.00721 -0.32613,0.02111c-2.12161,-0.07843 -5.89089,3.13308 -5.2715,5.61064c0.83345,3.33378 2.45686,4.87677 4.78627,5.77941c0.28922,2.24548 0.40154,4.51058 0.30971,6.75681c-0.35241,8.62044 -9.66833,13.70207 -16.79362,15.61103c-12.89437,3.45458 -29.48855,2.48363 -40.9911,-4.19158c-0.92757,-0.53829 -3.25997,-1.07947 -4.13101,-1.91635c-3.77474,-3.6267 -7.6292,-7.8413 -12.79043,-9.13161c-3.97728,-0.99432 -11.63472,-1.49951 -15.14108,1.06133c-0.33631,0.24562 -1.19466,0.38611 -1.88728,0.66716c-1.34831,-0.2551 -4.88693,1.7762 -6.03549,2.47943c-3.17155,1.94186 -10.80207,5.21405 -14.03143,5.26317c-17.66448,0.26868 -33.88932,-2.03321 -48.59776,-12.62112c-3.90624,-2.81191 -8.30211,-8.03422 -8.33282,-13.13356c-0.05633,-9.35411 2.93667,-13.70876 0.08256,-17.13888l0.50544,-1.36761l-1.59319,-1.95242l-1.28471,-0.10286l-0.92339,0.15378l-0.21274,0.09245l-0.23073,0.02401l-1.66111,0.60377l-0.96805,0.32253l-0.36371,-0.00003l-0.16688,0.0417l-0.17098,-0.01881l-3.38575,0.4613l-0.23556,0.09418l-0.25264,0.02321l-2.67679,0.93646l-0.19063,-0.00002l-0.29863,0.07461l-0.30783,-0.00003l-1.00064,0.25002l-2.5329,0.14044l-0.18146,0.0562l-0.18983,-0.00754l-3.44116,0.71645l-0.20399,-0.00002l-0.10294,0.02572l-0.10473,-0.0171l-1.74309,0.14506l-12.75156,-0.00133l-1.40249,-0.25511l-7.56211,-1.81545l-5.62712,-1.67331l-3.07493,-0.9227l-0.3645,-0.01699l-0.35401,-0.08853l-0.82963,-0.0001l-0.52667,-0.10538l-0.02253,0.00107l-0.02055,-0.0093l-1.69281,-0.30794l-0.0641,0.00417l-0.05978,-0.02352l-3.12159,-0.40749l-1.16201,-0.58105l-0.04636,-0.01031l-0.03718,-0.02956l-1.46195,-0.66461l-1.47291,-1.07121l-1.78083,-1.33562l-1.78425,-1.48685l-2.06852,-1.77298l-1.23702,-1.23695l-1.16439,-1.39712l-0.00469,-0.01408l-0.13373,-0.21011l-0.06746,-0.23973l-0.61567,-1.07722l-0.02888,-0.03013l-0.01261,-0.03978l-1.13496,-1.84401l-0.38936,-0.90826l-0.08795,-0.1157l-0.03936,-0.13989l-0.39373,-0.6889l-0.08042,-0.48214l-0.04065,-0.09347l-0.00001,-0.10191l-0.07927,-0.31691l-0.0007,-5.53958l0.23299,-0.9324l-0.00001,-0.06097l0.0261,-0.05509l0.30756,-1.53876l-0.00445,-0.0932l0.03367,-0.08702l0.12305,-0.98536l0.17322,-0.51981l0.22824,-0.45657l0.08097,-0.36459l0.14888,-0.3425l0.14308,-0.5211l0.76342,0.16956l0.17189,-0.00454l0.16277,0.05539l1.84605,0.15359l0.10469,-0.0171l0.1029,0.02571l10.45174,-0.00142l0.02335,0.01558l0.07008,-0.01559l0.06965,-0.00001l0.55721,-0.13938l0.56067,-0.12467l0.0623,-0.03116l0.06965,-0.01743l0.01393,-0.02438l0.16181,-0.08092l0.11993,-0.10281l0.14875,-0.05314l0.46156,-0.30775l0.33017,-0.3632l0.22223,-0.20204l0.03681,-0.02343l0.19084,-0.01063l0.20905,-0.24389l0.27099,-0.17248l-0.02605,-0.11024l0.32097,-0.37447l0.23474,-0.46957l0.02438,-0.01393l0.01741,-0.06967l0.03115,-0.06231l0.04613,-0.20771l0.26456,-0.41191l0.1023,-0.01774l0.07788,-0.31167l0.16526,-0.27546l-0.05033,-0.18446l0.11957,-0.47852l-0.00038,-2.61597l-0.00345,-0.01378l0.02233,-0.03981l-0.18091,-0.59412l-0.15071,-0.60248l-0.03964,-0.02266l-0.00414,-0.01359l-0.2703,-0.45041l-0.06369,-0.25458l-0.04615,-0.08651l-0.00754,-0.09775l-0.15395,-0.46167l-0.37209,-0.5846l-0.02679,-0.19179l-0.17635,-0.12737l-0.1168,-0.18351l-0.1899,-0.038l-0.56177,-0.40576l-0.76948,-0.30787l-0.17043,-0.02327l-0.15178,-0.08096l-0.34928,-0.08736l-0.22414,-0.1121l-0.01394,-0.02439l-0.06967,-0.01743l-0.06232,-0.03116l-0.56086,-0.12471l-0.55739,-0.13942l-0.06019,-0.00001l-0.52667,-0.1054l-0.24876,0.01181l-0.24162,-0.06043l-4.61656,-0.00067l-0.01378,0.00345l-0.03982,-0.02234l-0.59408,0.18073l-0.60245,0.15053l0.04731,-0.03183l-0.08355,0.0756l-0.33851,0.20307l-0.39679,0.03047l-0.41009,0.13664l-1.02491,0.2927l-0.51408,0.29654l-0.19672,0.0109l-0.17388,0.20286l-0.16091,0.06262l-0.04701,0.19128l-0.18717,0.20705l-0.22072,0.08274l-0.01431,-0.0039l-0.0412,0.02472l-0.17371,0.06511l-0.43592,0.3006l-0.45409,0.2724l-0.13117,0.13117l-0.03956,0.02728l0.06829,-0.05613l-0.23351,0.23363l-0.47333,0.35496l-0.02529,0.03112l-0.03645,0.01671l-0.73883,0.59103l-0.45373,0.34026l-0.02804,0.00156l-0.04673,0.05452l0.01504,-0.02885l-0.36224,0.44581l-0.20842,0.24315l-0.31257,0.31257l-0.09259,0.15429l-0.13965,0.11347l-0.44845,0.59789l-0.4844,0.60269l-0.61062,-0.08149l-2.88708,-0.86647l-0.04376,-0.00204l-0.0384,-0.0211l-2.76247,-0.72732l-2.4618,-1.01398l-0.14136,-0.02075l-0.12375,-0.07142l-3.2316,-0.92372l-0.17299,-0.00579l-0.16031,-0.06533l-1.90459,-0.27233l-1.81831,-0.64963l-1.59755,-0.72635l-0.01799,-0.0033l-0.01448,-0.01117l-2.43928,-1.06748l-1.97782,-0.91308l-0.01792,-0.0034l-0.01438,-0.01123l-1.19054,-0.52928l-0.28463,-0.18978l-0.2716,-0.09704l-0.23742,-0.16376l-1.06624,-0.39997l-1.53821,-0.83921l-0.10732,-0.02792l-0.08779,-0.06777l-2.27973,-0.99767l-1.98694,-1.27754l-0.03759,-0.01273l-0.02807,-0.02807l-1.34709,-0.80842l-1.00016,-0.87523l-2.07444,-2.07461l-0.17045,-0.25567l-0.05257,-0.04779l-0.02758,-0.06548l-0.3843,-0.5124l-0.39534,-0.65888l-0.01653,-0.01653l-0.00721,-0.02223l-0.70654,-1.13044l-1.46524,-2.93028l-0.63963,-1.40707l-1.88793,-8.71033l-0.00015,-1.38039l0.15182,-4.26434l-0.00952,-0.04481l0.01111,-0.04444l-0.00018,-1.69103l0.28819,-2.30778l-0.01903,-0.15686l0.0383,-0.15329l-0.0001,-0.93757l0.6978,-2.93243l0.30421,-1.21749l-0.00001,-0.10192l0.04062,-0.09347l0.1064,-0.63889l0.65829,-1.58047l0.00274,-0.01817l0.01076,-0.01489l0.59782,-1.4951l1.18846,-2.67499l0.70087,-1.40219l0.85252,-1.42129c0.21838,-0.35004 0.35249,-0.75825 0.37419,-1.19583l0.1134,-0.11279c1.44159,0.02096 2.81296,-0.51807 2.81296,-2.47517c0,-2.85061 -1.88476,-2.00705 -3.3246,-2.67289c-3.59402,-1.66202 -7.41773,-2.81726 -10.73742,-4.9135c-10.47016,-6.61145 -12.70766,-13.21788 -16.04383,-24.71093c-2.87359,-9.89948 4.99956,-24.07024 -0.65871,-31.3647l0.1419,-0.5678l0,-0.25691l0.22469,0.0629l0.96466,0.24109l0.67771,0.33877l0.30044,0.06674l0.27527,0.1376l1.25886,0.27966l0.33924,0.11305l0.40069,0.03081l0.38988,0.09744l2.92338,-0.00003l0.09758,-0.02439l-0.02414,0.04238l0.53033,-0.18944l0.54632,-0.13661l0.04202,-0.07356l0.09473,-0.03384l0.46159,-0.3078l0.1675,-0.1843l0.21352,-0.12814l0.28654,-0.28661l0.25561,-0.17045l0.15987,-0.17591l0.13334,-0.02668l0.25456,-0.40013l0.31895,-0.35093l-0.00936,-0.1357l0.12759,-0.20056l0.15386,-0.46171l0.03082,-0.4008l0.09747,-0.38999l-0.00001,-2.30856l-0.09747,-0.38999l-0.03082,-0.4008l-0.15386,-0.46172l-0.09661,-0.15185l-0.03903,-0.17571l-0.15386,-0.3078l-0.83853,-0.97855l-0.09857,-0.00548l-0.04898,-0.08573l-1.25,-0.31258l-0.05669,0l-0.22233,-0.10534l-0.39425,-0.07887l-0.24791,-0.16531l-0.40291,-0.14394l-0.3775,-0.20138l-0.61545,-0.1539l-0.30776,0l-0.29857,-0.07466l-3.90042,0.0011l-0.38988,0.09744l-0.40069,0.03081l-0.46159,0.15382l-0.15181,0.09658l-0.17566,0.03902l-0.52244,0.26115l-0.40235,0.1609l-0.00485,-0.00132l-0.01631,0.00979l-0.24925,0.09967l-0.40787,0.29449l-0.43142,0.25878l-0.18983,0.18978l-0.01542,0.01114l-0.00069,0.00498l-0.0806,0.08058l-0.22814,0.15205l-0.03826,0.00213l-0.24109,0.16457l-1.19675,-1.67587l-0.13423,-0.11437l-0.0225,-0.11255l-0.43321,-0.27575l-0.23729,-0.20219l-0.81945,-1.22947l-0.08186,-0.07444l-0.04609,-0.10059l-1.08377,-1.35506l-1.13237,-2.13948l-0.38786,-1.55191l-0.18912,-0.35469l-0.12708,-0.38134l-0.92626,-1.45592l-0.60609,-1.69751l-0.27114,-1.49172l-0.07417,-0.16399l-0.0138,-0.17945l-0.57882,-1.73696l-0.98525,-4.22387l0.00034,-11.33492l0.14353,-2.43908l0.27025,-1.89166l0.7262,-2.61451l0.00244,-0.09394l0.04022,-0.08492l0.43861,-2.19308l0.88951,-2.96526l0.00558,-0.11977l0.05133,-0.10836l0.11671,-0.58355l0.53718,-1.47739l0.6008,-1.50215l0.03126,-0.22921l0.09902,-0.20907l0.08823,-0.44112l0.72042,-1.44102l0.67189,-1.07518l1.03976,-1.48563l0.01044,-0.02728l0.0216,-0.01965l1.12164,-1.68273l1.71275,-1.85585l0.0047,-0.00859l0.00814,-0.00543l1.49874,-1.64893l1.65057,-1.6509l0.05044,-0.08408l0.07995,-0.05675l0.6708,-0.78274l2.90149,-1.79664l0.00808,-0.00831l0.01101,-0.00363l2.85596,-1.80425l1.58319,-0.86382l2.0729,-1.03678l1.65046,-0.75047l0.03717,-0.02956l0.04635,-0.01031l1.62632,-0.81342l0.02528,0c0.32635,0 0.63814,-0.06265 0.92395,-0.17639c1.09933,0.03609 2.06069,-0.41516 2.42487,-1.87189c0.20369,-0.81475 -0.24986,-1.70571 -0.68194,-2.42585c-0.44695,-0.74492 -2.21486,-0.77029 -2.87797,-1.31268c-1.64439,-1.34503 -3.17445,-3.47856 -4.39612,-5.12821c-7.68062,-10.37138 -1.89425,-17.93355 9.4237,-21.04418c10.63246,-2.92223 14.18594,-2.53071 28.63748,-2.36296c0.39527,0.00459 0.75725,0.03102 1.09088,0.0707c1.87363,0.79105 3.5123,1.12684 4.25366,0.38548c0.73724,-0.73724 1.13685,-1.32499 1.2297,-1.88967c0.05715,-0.09528 0.11536,-0.19476 0.1746,-0.29843l-0.20256,-0.35457c-0.10129,-0.41097 -0.3574,-0.83619 -0.75644,-1.32408l-0.272,-0.47612c-0.04398,-0.07697 -0.09591,-0.0957 -0.29102,-0.17394c-1.47195,-1.39237 -3.8115,-1.57518 -5.65614,-2.47022c-4.62556,-2.24436 -10.53322,-6.19161 -11.96356,-11.5557c-5.34403,-20.04131 20.07537,-26.0711 34.19617,-28.58752c3.56311,-0.63497 7.69396,-1.78294 11.33175,-1.80382c7.81217,-0.04483 15.62957,0.09051 23.44131,-0.00298c0.07256,-0.00087 0.14333,-0.00389 0.21222,-0.00891c0.7997,-0.05828 1.3531,-0.39067 1.68242,-0.85968c0.37757,-0.4379 0.6062,-1.00833 0.6062,-1.6319c0,-0.52365 -0.16091,-1.00974 -0.4361,-1.41138c0.72134,-1.13651 0.02865,-2.46935 0.02865,-2.46935c-5.16714,-9.93679 -11.36408,-20.47234 -14.47405,-31.29158c-0.89819,-3.12469 -0.94777,-6.43595 -1.58087,-9.62494c-0.98693,-4.97128 -1.94039,-9.86067 0.64676,-14.69558c0.69473,-1.29832 1.87609,-2.27115 2.80465,-3.41398c0.85866,-1.0568 1.36887,-2.5228 2.5584,-3.18548c1.15234,-0.64196 2.61706,-0.364 3.93442,-0.43147c3.26992,-0.16748 6.55015,-0.0265 9.82433,-0.04254c34.22312,-0.16764 68.46874,-0.11486 102.69224,-0.11486c17.86225,0 35.73589,0.0023 53.59814,0.0023c8.09993,0 16.20438,0.00172 24.30431,0.00172c3.22658,0 6.48138,-0.4332 9.68137,-0.01984c4.67234,0.60355 9.63499,2.55341 14.19522,3.75154c4.01083,1.04735 7.7734,1.56777 11.75007,1.88934c-5.22273,1.95587 -9.90101,5.65398 -15.12207,7.63551c-5.12248,1.94412 -11.23484,2.80472 -16.1309,5.26728c-3.96315,1.99334 -8.33612,5.58159 -11.63749,8.48372c-4.32832,3.80489 -11.45593,7.58347 -11.09776,14.24827c0.07678,1.42863 0.124,3.05897 1.02852,4.16745c0.84651,1.03739 2.45576,1.07045 3.68317,1.60546z" fill="#fd66ff" stroke-width="0.25"/></g></g></svg>