<svg version="1.1" xmlns="http://www.w3.org/2000/svg" xmlns:xlink="http://www.w3.org/1999/xlink" width="125.45254" height="125.45255" viewBox="0,0,125.45254,125.45255"><defs><linearGradient x1="320.00001" y1="118.00004" x2="320.00001" y2="242.00004" gradientUnits="userSpaceOnUse" id="color-1"><stop offset="0" stop-color="#900000"/><stop offset="1" stop-color="#c80000"/></linearGradient><linearGradient x1="320.67934" y1="138.86275" x2="320.67934" y2="175.16504" gradientTransform="translate(-355.80943,-211.14422) scale(1.27128,1.27128)" gradientUnits="userSpaceOnUse" id="color-2"><stop offset="0" stop-color="#3e0000"/><stop offset="1" stop-color="#5f5f5f"/></linearGradient></defs><g transform="translate(-257.27374,-117.27377)"><g stroke-miterlimit="10"><path d="M258.00001,180.00004c0,-34.24165 27.75835,-62 62,-62c34.24165,0 62,27.75835 62,62c0,34.24165 -27.75835,62 -62,62c-34.24165,0 -62,-27.75835 -62,-62z" fill="url(#color-1)" stroke="none" stroke-width="0"/><path d="M257.77374,180.00004c0,-34.36662 27.85965,-62.22627 62.22627,-62.22627c34.36663,0 62.22627,27.85965 62.22627,62.22628c0,34.36663 -27.85965,62.22627 -62.22627,62.22627c-34.36662,0 -62.22627,-27.85965 -62.22627,-62.22627z" fill="#a90000" stroke="#7d0c0c" stroke-width="1"/><path d="M263.63638,180.00004c0,-31.12877 25.23486,-56.36363 56.36363,-56.36363c31.12878,0 56.36363,25.23486 56.36363,56.36364c0,31.12877 -25.23486,56.36363 -56.36363,56.36363c-31.12878,0 -56.36363,-25.23486 -56.36363,-56.36363z" fill="#ff0000" stroke="none" stroke-width="0"/><text transform="translate(279.88325,166.08816) scale(0.78661,0.78661)" font-size="40" xml:space="preserve" fill="url(#color-2)" stroke="none" stroke-width="1" font-family="&quot;Oswald-VariableFont_wght&quot;, Sans Serif" font-weight="normal" text-anchor="start"><tspan x="0" dy="0">Sounds</tspan></text><text transform="translate(288.36285,212.47184) scale(1.19747,1.19747)" font-size="40" xml:space="preserve" fill="#ffffff" stroke="none" stroke-width="1" font-family="&quot;Oswald-VariableFont_wght&quot;, Sans Serif" font-weight="normal" text-anchor="start"><tspan x="0" dy="0">OFF</tspan></text></g></g></svg>