<svg version="1.1" xmlns="http://www.w3.org/2000/svg" xmlns:xlink="http://www.w3.org/1999/xlink" width="97.68126" height="147.70524" viewBox="0,0,97.68126,147.70524"><g transform="translate(-271.15937,-106.14738)"><g stroke="none" stroke-miterlimit="10"><path d="M293.03386,170.83733c-2.22688,-3.20041 -4.2913,-6.52689 -6.4226,-9.76064c-2.56913,-3.89807 -6.01124,-8.14558 -7.435,-12.66736c-0.30802,-0.97825 -0.83443,-8.44053 -0.85052,-8.86212c-0.11549,-3.02474 -0.82773,-8.83443 0.0575,-11.8874c1.1167,-3.85126 4.04668,-9.19995 7.20971,-11.8745c1.55216,-1.31246 3.48794,-2.09137 5.17946,-3.21854c5.35381,-2.96931 11.41486,-5.97748 17.62802,-6.35947c8.06646,-0.49594 15.50692,2.16371 22.86363,5.12161c3.37041,1.35513 7.13769,2.28561 9.79119,4.94391c4.13381,4.1413 7.86226,9.80554 11.02293,14.74122c1.58985,2.4827 3.6606,4.763 4.58739,7.56166c1.45228,4.38551 1.23788,9.42924 1.28331,13.98835c-0.00882,6.07612 -0.51754,14.61838 -4.23597,20.31807c2.98381,2.9443 5.46376,6.40509 8.00548,9.93213c5.31214,14.19554 10.21034,30.20898 4.70191,45.24987c-2.596,7.08844 -8.61549,8.37085 -15.47138,8.38716c-0.74997,0.00178 -5.92671,0.01394 -6.19938,-0.06688c-1.02534,-0.30389 -2.02135,-0.69225 -2.98723,-1.15109c-0.08256,0.75783 -0.22217,1.46699 -0.43252,2.10548c-0.61585,1.86936 -2.16565,3.29192 -3.37256,4.84664c-2.86282,3.68783 -6.39017,7.81229 -10.8958,9.48735c-6.25679,2.32608 -15.62818,1.52108 -21.40095,-1.19737c-0.67487,-0.31521 -1.43606,-0.50437 -2.12042,-0.80573c-3.99389,3.95733 -9.8882,4.12376 -15.20682,4.03159c-1.5338,-0.02658 -3.1821,0.44049 -4.5998,-0.14549c-4.14998,-1.71532 -8.21084,-7.31384 -10.05536,-11.20201c-3.03561,-6.39895 -2.478,-14.60771 -2.47917,-21.52748c0.03478,-6.0974 1.48179,-12.58126 5.53127,-17.0942c-5.38752,-5.92368 -7.26004,-14.24213 -3.71176,-21.6287c1.50422,-2.38885 2.8569,-5.12582 5.47747,-6.59362c2.26882,-1.27079 5.5026,-1.57929 8.66997,-1.33557c1.51151,-1.29932 3.70545,-1.92388 5.39631,-3.05304zM285.79718,179.05904c-1.88377,-0.06897 -3.68017,0.14509 -4.89527,0.83375c-1.36238,0.77213 -2.79912,3.48798 -3.52253,4.65638c-2.58084,4.86531 -0.90688,11.78978 2.85837,16.22715c0.30029,-0.18817 0.6095,-0.36848 0.92783,-0.54051c5.1672,-2.79254 18.5168,-5.1411 16.67605,5.18993c-0.27162,1.52446 -1.82137,2.6343 -3.16935,3.39633c-3.21089,1.81515 -10.63687,0.84183 -13.6032,-0.83351c-0.32686,-0.1846 -0.62823,-0.40359 -0.91268,-0.64533c-3.0436,3.58518 -3.98814,8.93201 -3.9575,13.48305c-0.00154,8.85469 -0.57036,18.70478 6.24789,25.41631c0.93791,0.92323 1.75376,2.09559 2.96757,2.6042c0.89274,0.37408 1.9327,-0.11599 2.9002,-0.14549c2.8842,-0.08795 9.53398,0.39254 12.09982,-2.50298c-1.07806,-2.39071 -0.66635,-4.80662 -1.07175,-7.81658c-0.57057,-4.23629 -0.76873,-8.0809 -0.76873,-12.43046v-2.5c0,-1.38071 1.11929,-2.5 2.5,-2.5c0.81137,0 1.53247,0.38653 1.9892,0.98549l2.60918,3.35466l-0.07262,0.05648c0.14575,0.17247 0.28459,0.3513 0.41543,0.53751c0.66878,0.95176 0.55795,5.48666 0.5588,6.94087c0.00226,3.84697 0.67632,8.44468 -0.40652,12.31016c0.41334,0.29084 0.92819,0.55465 1.56995,0.79071c4.98272,2.51022 15.49881,3.38008 20.33108,-0.47174c1.24012,-0.98851 4.99997,-5.20842 5.99045,-6.40092c0.87291,-1.05095 2.08241,-1.9429 2.50916,-3.24072c0.40686,-1.23733 -0.08855,-2.60368 -0.15975,-3.90424c-0.00198,-0.03619 -0.00398,-0.07244 -0.00599,-0.10874c-2.64878,-2.14278 -4.98443,-4.70803 -6.98149,-7.26273c-2.19577,-3.29891 -6.41431,-9.40307 -3.98587,-13.77216c1.45325,-2.61459 5.80331,-5.02683 8.8283,-2.94124c3.32276,2.29089 5.24481,10.71969 6.00846,14.36872c0.41417,1.97905 0.98509,4.61431 1.317,7.27022c1.3645,0.88423 2.80588,1.59844 4.30959,2.05456c1.61119,0.48873 3.36694,-0.07127 5.05062,-0.06688c4.67157,0.01218 9.04798,-0.18658 10.77862,-5.11284c4.83988,-13.77675 0.34278,-28.16556 -4.41637,-41.16277c-1.83229,-2.49296 -3.98533,-6.60999 -6.49037,-8.57724c-0.10042,-0.07886 -0.20293,-0.15461 -0.30721,-0.22775c-1.37903,1.06876 -2.87451,2.05397 -4.52233,2.61488c-1.15759,0.39404 -2.44457,0.07873 -3.66733,0.09071c-3.5377,0.03466 -8.96479,0.08302 -10.81871,-3.92598c-3.92699,-8.4919 8.68984,-10.41191 13.98805,-8.02384c1.57182,0.70847 3.00586,1.54339 4.3335,2.4798c2.89477,-4.82774 3.13,-12.13408 3.12219,-17.01774c-0.03782,-3.94143 0.27667,-8.46651 -0.96669,-12.26165c-1.16019,-3.54129 -4.68308,-7.64665 -6.81145,-10.6638c-2.2982,-3.2579 -4.83643,-6.90645 -7.57824,-9.78332c-2.06104,-2.16257 -5.51816,-2.83508 -8.19439,-3.91202c-7.26991,-2.92547 -16.02226,-6.4807 -24.00751,-4.31186c-4.16162,1.13032 -8.26533,3.0926 -12.01526,5.17993c-4.70387,3.13734 -8.33625,6.0549 -10.11083,11.90695c-0.77946,2.57042 -0.03733,8.10117 0.0575,10.6126c0.09641,2.55333 -0.12265,5.20219 0.64948,7.63789c1.26947,4.00459 4.54427,7.88752 6.815,11.33264c3.96733,6.01917 7.6635,12.49634 12.80513,17.60765c0,0 1.76777,1.76777 0,3.53553c-0.92019,0.92019 -1.84039,0.88239 -2.51124,0.63461c0.78116,1.11688 1.2723,2.47395 1.36218,4.1704c0.07701,1.45345 0.4298,3.09155 -0.28952,4.35687c-1.62365,2.85604 -5.11405,3.29871 -7.90025,2.78024c-5.46166,-1.01634 -8.34771,-6.42609 -8.42265,-11.65766c-0.00325,-0.22716 -0.01622,-0.45945 -0.033,-0.69446zM298.22959,177.52584c-0.76575,-0.86008 -1.50261,-1.74518 -2.21654,-2.64962l-0.6774,0.40518c-0.26769,0.17818 -0.55459,0.32983 -0.85212,0.46633c0.004,0.00154 0.00799,0.00308 0.01199,0.00462c1.34344,0.51842 2.61629,1.08448 3.73408,1.77349zM345.82014,173.48823c-1.36568,-0.95076 -2.79834,-1.8453 -4.40158,-1.91678c-0.86561,-0.0386 -5.35557,-0.40569 -5.82143,0.42023c-0.77111,1.3671 3.59263,2.09743 3.65723,2.10333c2.50809,0.22917 4.55489,0.37487 6.56578,-0.60678zM335.69878,224.28486c-0.6398,-4.38402 -1.80412,-8.81431 -4.06421,-12.20696c-0.34319,-0.51517 -1.49173,0.21648 -1.6717,0.80876c-0.1384,0.45547 0.16928,0.93728 0.2312,1.40927c0.43817,3.34016 1.32436,4.38599 3.28294,7.31857c0.68241,0.88262 1.42494,1.78447 2.22178,2.67036zM284.67348,204.13083c1.80275,0.53501 4.18449,0.36444 5.74507,0.32527c0.89332,-0.02242 2.35242,0.36758 2.63761,-0.47929c0.64851,-1.92573 -0.57574,-0.97725 -1.51261,-0.90537c-2.42705,0.18622 -4.64362,0.21242 -6.87007,1.05939zM290.87846,179.8308c0.06824,0.58664 0.09306,1.18101 0.2425,1.75116c0.6262,2.3891 1.42751,4.41453 4.02399,4.90944c0.85429,0.16283 2.38955,0.62413 2.59975,-0.21976c0.83774,-3.36323 -2.52796,-4.86393 -5.09243,-5.87143c-0.5057,-0.19868 -1.10839,-0.3929 -1.77381,-0.5694z" fill="#7631ff" stroke-width="0.5"/><path d="M285.84716,179.06042c0.01678,0.23501 0.02977,0.46628 0.03302,0.69344c0.07494,5.23157 2.95668,10.62068 8.41834,11.63702c2.7862,0.51847 6.18592,0.11792 7.80957,-2.73812c0.71932,-1.26532 0.36294,-2.91336 0.28593,-4.36682c-0.08988,-1.69645 -0.58245,-3.06509 -1.36361,-4.18197c0.67085,0.24778 1.59107,0.28369 2.51126,-0.63649c1.76777,-1.76776 0.00144,-3.54596 0.00144,-3.54596c-5.14163,-5.11131 -8.82941,-11.60627 -12.79674,-17.62544c-2.27073,-3.44512 -5.54224,-7.33203 -6.81171,-11.33662c-0.77213,-2.4357 -0.5497,-5.08791 -0.64611,-7.64123c-0.09483,-2.51143 -0.83258,-8.0457 -0.05313,-10.61612c1.77458,-5.85205 5.41667,-8.77504 10.12054,-11.91238c3.74993,-2.08733 7.86261,-4.05243 12.02423,-5.18275c7.98525,-2.16884 16.75532,1.38582 24.02523,4.31129c2.67623,1.07694 6.14013,1.75094 8.20117,3.91351c2.74181,2.87687 5.28836,6.52869 7.58656,9.78659c2.12837,3.01715 5.66028,7.12831 6.82047,10.6696c1.24336,3.79514 0.93592,8.32718 0.97374,12.26861c0.00781,4.88366 -0.21865,12.20553 -3.11342,17.03327c-1.32764,-0.93641 -2.85356,-1.7324 -4.42538,-2.44088c-5.29821,-2.38807 -17.82428,-0.5099 -13.89729,7.982c1.85392,4.009 7.28486,3.97795 10.82256,3.94329c1.22276,-0.01198 2.40982,0.30729 3.56741,-0.08675c1.64782,-0.56091 3.14361,-1.54216 4.52264,-2.61092c0.10428,0.07314 0.30614,0.13755 0.40656,0.21641c2.50504,1.96725 4.65791,6.09662 6.4902,8.58958c4.75915,12.99721 9.24019,27.41629 4.40031,41.19304c-1.73064,4.92626 -6.11473,5.13071 -10.7863,5.11853c-1.68368,-0.00439 -3.44274,0.55744 -5.05393,0.06871c-1.50371,-0.45612 -2.94754,-1.16918 -4.31204,-2.05341c-0.33191,-2.65591 -0.94452,-5.38205 -1.35869,-7.3611c-0.76365,-3.64903 -2.64119,-11.98829 -5.96395,-14.27918c-3.02499,-2.08559 -7.38914,0.3314 -8.8424,2.94599c-2.42844,4.36909 1.77099,10.3751 3.96676,13.67401c1.99706,2.5547 4.32797,5.12121 6.97675,7.26398c0.00201,0.0363 0.03422,0.16788 0.0362,0.20407c0.0712,1.30056 0.56577,2.66716 0.15891,3.90449c-0.42675,1.29782 -1.6389,2.19048 -2.51181,3.24143c-0.99048,1.1925 -4.75579,5.4134 -5.99591,6.4019c-4.83227,3.85182 -15.36362,2.9815 -20.34634,0.47128c-0.64176,-0.23606 -1.15785,-0.50011 -1.57119,-0.79095c1.08284,-3.86548 0.40685,-8.46364 0.40459,-12.31061c-0.00085,-1.45421 0.10773,-5.98974 -0.56106,-6.9415c-0.13084,-0.18621 -0.27023,-0.36521 -0.41598,-0.53768l0.07267,-0.05647l-2.61282,-3.35596c-0.45673,-0.59896 -1.18009,-0.98647 -1.99146,-0.98647c-1.38071,0 -2.45697,1.02903 -2.45697,2.40974l-0.00098,2.49953c0,4.34956 0.19371,8.19236 0.76428,12.42865c0.4054,3.00996 -0.03713,5.52096 1.04093,7.91168c-2.56584,2.89552 -9.22237,2.41249 -12.10658,2.50044c-0.9675,0.0295 -2.00896,0.51884 -2.9017,0.14477c-1.21381,-0.50861 -2.03188,-1.68215 -2.96979,-2.60538c-6.81825,-6.71153 -6.26135,-16.57101 -6.25981,-25.4257c-0.03064,-4.55104 0.90925,-9.90366 3.95285,-13.48884c0.28445,0.24174 0.66761,0.40321 0.99447,0.58781c2.96633,1.67534 10.3847,2.64028 13.5956,0.82513c1.34798,-0.76203 2.83194,-1.79656 3.10356,-3.32102c1.84075,-10.33103 -11.52037,-7.99706 -16.68757,-5.20452c-0.31833,0.17203 -0.62751,0.35239 -0.9278,0.54056c-3.76525,-4.43737 -5.44463,-11.37969 -2.86379,-16.245c0.72341,-1.1684 2.15987,-3.88969 3.52224,-4.66182c1.2151,-0.68866 3.01152,-0.90396 4.89529,-0.83499z" fill="#fd66ff" stroke-width="0.25"/></g></g></svg>