<svg version="1.1" xmlns="http://www.w3.org/2000/svg" xmlns:xlink="http://www.w3.org/1999/xlink" width="125.45256" height="125.45256" viewBox="0,0,125.45256,125.45256"><defs><linearGradient x1="320.67749" y1="138.86188" x2="320.67749" y2="175.164" gradientTransform="translate(-355.8094,-211.14418) scale(1.27128,1.27128)" gradientUnits="userSpaceOnUse" id="color-1"><stop offset="0" stop-color="#3e0000"/><stop offset="1" stop-color="#5f5f5f"/></linearGradient></defs><g transform="translate(-257.27372,-117.27372)"><g stroke-miterlimit="10"><path d="M257.77372,180c0,-34.36662 27.85965,-62.22628 62.22628,-62.22628c34.36662,0 62.22628,27.85965 62.22628,62.22628c0,34.36662 -27.85965,62.22628 -62.22628,62.22628c-34.36662,0 -62.22628,-27.85965 -62.22628,-62.22628z" fill="#407f24" stroke="#005011" stroke-width="1"/><path d="M263.63636,180c0,-31.12877 25.23486,-56.36364 56.36364,-56.36364c31.12877,0 56.36364,25.23486 56.36364,56.36364c0,31.12877 -25.23486,56.36364 -56.36364,56.36364c-31.12877,0 -56.36364,-25.23486 -56.36364,-56.36364z" fill="#00ff53" stroke="none" stroke-width="0"/><text transform="translate(279.88323,166.08812) scale(0.78661,0.78661)" font-size="40" xml:space="preserve" fill="url(#color-1)" stroke="none" stroke-width="1" font-family="&quot;Oswald-VariableFont_wght&quot;, Sans Serif" font-weight="normal" text-anchor="start"><tspan x="0" dy="0">Sounds</tspan></text><text transform="translate(294.44621,212.01916) scale(1.19746,1.19746)" font-size="40" xml:space="preserve" fill="#ffffff" stroke="none" stroke-width="1" font-family="&quot;Oswald-VariableFont_wght&quot;, Sans Serif" font-weight="normal" text-anchor="start"><tspan x="0" dy="0">ON</tspan></text></g></g></svg>