<svg version="1.1" xmlns="http://www.w3.org/2000/svg" xmlns:xlink="http://www.w3.org/1999/xlink" width="881.69311" height="606.91717" viewBox="0,0,881.69311,606.91717"><g transform="translate(146.75077,126.12209)"><g stroke="none" stroke-miterlimit="10"><g fill-opacity="0.18824" fill="#ff0000" stroke-width="1" font-family="Sans Serif" font-weight="normal" font-size="40" text-anchor="start"><g><text transform="translate(-134.60266,96.17339) rotate(-33.7354) scale(0.5,0.5)" font-size="40" xml:space="preserve" fill-opacity="0.18824" fill="#ff0000"><tspan x="0" dy="0">N4LGAMES</tspan></text><text transform="translate(-31.76297,36.42653) rotate(-33.73552) scale(0.5,0.5)" font-size="40" xml:space="preserve" fill-opacity="0.18824" fill="#ff0000"><tspan x="0" dy="0">N4LGAMES</tspan></text><text transform="translate(70.35731,-16.12623) rotate(-33.73552) scale(0.5,0.5)" font-size="40" xml:space="preserve" fill-opacity="0.18824" fill="#ff0000"><tspan x="0" dy="0">N4LGAMES</tspan></text></g><g><text transform="translate(-115.21447,114.84217) rotate(-33.73552) scale(0.5,0.5)" font-size="40" xml:space="preserve" fill-opacity="0.18824" fill="#ff0000"><tspan x="0" dy="0">N4LGAMES</tspan></text><text transform="translate(-12.37478,55.09531) rotate(-33.73552) scale(0.5,0.5)" font-size="40" xml:space="preserve" fill-opacity="0.18824" fill="#ff0000"><tspan x="0" dy="0">N4LGAMES</tspan></text><text transform="translate(89.7455,2.54255) rotate(-33.73552) scale(0.5,0.5)" font-size="40" xml:space="preserve" fill-opacity="0.18824" fill="#ff0000"><tspan x="0" dy="0">N4LGAMES</tspan></text></g><g><text transform="translate(-97.2651,134.94977) rotate(-33.73552) scale(0.5,0.5)" font-size="40" xml:space="preserve" fill-opacity="0.18824" fill="#ff0000"><tspan x="0" dy="0">N4LGAMES</tspan></text><text transform="translate(5.57459,75.20291) rotate(-33.73552) scale(0.5,0.5)" font-size="40" xml:space="preserve" fill-opacity="0.18824" fill="#ff0000"><tspan x="0" dy="0">N4LGAMES</tspan></text><text transform="translate(107.69487,22.65015) rotate(-33.73552) scale(0.5,0.5)" font-size="40" xml:space="preserve" fill-opacity="0.18824" fill="#ff0000"><tspan x="0" dy="0">N4LGAMES</tspan></text></g><g><text transform="translate(-84.3516,162.97087) rotate(-33.73552) scale(0.5,0.5)" font-size="40" xml:space="preserve" fill-opacity="0.18824" fill="#ff0000"><tspan x="0" dy="0">N4LGAMES</tspan></text><text transform="translate(18.48809,103.22402) rotate(-33.73552) scale(0.5,0.5)" font-size="40" xml:space="preserve" fill-opacity="0.18824" fill="#ff0000"><tspan x="0" dy="0">N4LGAMES</tspan></text><text transform="translate(120.60837,50.67126) rotate(-33.73552) scale(0.5,0.5)" font-size="40" xml:space="preserve" fill-opacity="0.18824" fill="#ff0000"><tspan x="0" dy="0">N4LGAMES</tspan></text></g><g><text transform="translate(-69.27986,192.4308) rotate(-33.73552) scale(0.5,0.5)" font-size="40" xml:space="preserve" fill-opacity="0.18824" fill="#ff0000"><tspan x="0" dy="0">N4LGAMES</tspan></text><text transform="translate(33.55983,132.68394) rotate(-33.73552) scale(0.5,0.5)" font-size="40" xml:space="preserve" fill-opacity="0.18824" fill="#ff0000"><tspan x="0" dy="0">N4LGAMES</tspan></text><text transform="translate(135.68011,80.13118) rotate(-33.73552) scale(0.5,0.5)" font-size="40" xml:space="preserve" fill-opacity="0.18824" fill="#ff0000"><tspan x="0" dy="0">N4LGAMES</tspan></text></g></g><path d="M-22.29945,39.8126v-57.24854h682.4798v57.24854z" fill-opacity="0.31765" fill="#323232" stroke-width="0"/><text transform="translate(274.45528,25.66127) scale(0.5,0.5)" font-size="40" xml:space="preserve" fill-opacity="0.57647" fill="#ffffff" stroke-width="1" font-family="Sans Serif" font-weight="normal" text-anchor="start"><tspan x="0" dy="0">N4LGAMES - FOPANW QUIZ - 02-13-25</tspan></text><text transform="translate(114.87755,135.09231) scale(2.13679,2.13679)" font-size="40" xml:space="preserve" fill-opacity="0.29412" fill="#ff0000" stroke-width="1" font-family="Sans Serif" font-weight="normal" text-anchor="start"><tspan x="0" dy="0">DEBUG</tspan></text><text transform="translate(400.07073,179.51585) scale(1.77826,1.77826)" font-size="40" xml:space="preserve" fill-opacity="0.29412" fill="#ff0000" stroke-width="1" font-family="Sans Serif" font-weight="normal" text-anchor="start"><tspan x="0" dy="0">ON</tspan></text><text transform="translate(2.57743,351.31757) scale(0.5,0.5)" font-size="40" xml:space="preserve" fill-opacity="0.29412" fill="#ff0000" stroke-width="1" font-family="Sans Serif" font-weight="normal" text-anchor="start"><tspan x="0" dy="0">DO NOT REUPLOAD THIS SB3 FILE!</tspan></text><text transform="translate(33.51203,33.33857) scale(0.5,0.5)" font-size="40" xml:space="preserve" fill-opacity="0.29412" fill="#ff0000" stroke-width="1" font-family="Sans Serif" font-weight="normal" text-anchor="start"><tspan x="0" dy="0">TEST-BUILD</tspan></text><g fill-opacity="0.18824" fill="#ff0000" stroke-width="1" font-family="Sans Serif" font-weight="normal" font-size="40" text-anchor="start"><g><text transform="translate(-102.2651,257.28524) rotate(-33.73552) scale(0.5,0.5)" font-size="40" xml:space="preserve" fill-opacity="0.18824" fill="#ff0000"><tspan x="0" dy="0">N4LGAMES</tspan></text><text transform="translate(0.57459,197.53839) rotate(-33.73552) scale(0.5,0.5)" font-size="40" xml:space="preserve" fill-opacity="0.18824" fill="#ff0000"><tspan x="0" dy="0">N4LGAMES</tspan></text><text transform="translate(102.69487,144.98563) rotate(-33.73552) scale(0.5,0.5)" font-size="40" xml:space="preserve" fill-opacity="0.18824" fill="#ff0000"><tspan x="0" dy="0">N4LGAMES</tspan></text></g><g><text transform="translate(-82.87691,275.95403) rotate(-33.73552) scale(0.5,0.5)" font-size="40" xml:space="preserve" fill-opacity="0.18824" fill="#ff0000"><tspan x="0" dy="0">N4LGAMES</tspan></text><text transform="translate(19.96278,216.20717) rotate(-33.73552) scale(0.5,0.5)" font-size="40" xml:space="preserve" fill-opacity="0.18824" fill="#ff0000"><tspan x="0" dy="0">N4LGAMES</tspan></text><text transform="translate(122.08306,163.65441) rotate(-33.73552) scale(0.5,0.5)" font-size="40" xml:space="preserve" fill-opacity="0.18824" fill="#ff0000"><tspan x="0" dy="0">N4LGAMES</tspan></text></g><g><text transform="translate(-64.92754,296.06163) rotate(-33.73552) scale(0.5,0.5)" font-size="40" xml:space="preserve" fill-opacity="0.18824" fill="#ff0000"><tspan x="0" dy="0">N4LGAMES</tspan></text><text transform="translate(37.91215,236.31477) rotate(-33.73552) scale(0.5,0.5)" font-size="40" xml:space="preserve" fill-opacity="0.18824" fill="#ff0000"><tspan x="0" dy="0">N4LGAMES</tspan></text><text transform="translate(140.03243,183.76201) rotate(-33.73552) scale(0.5,0.5)" font-size="40" xml:space="preserve" fill-opacity="0.18824" fill="#ff0000"><tspan x="0" dy="0">N4LGAMES</tspan></text></g><g><text transform="translate(-52.01404,324.08273) rotate(-33.73552) scale(0.5,0.5)" font-size="40" xml:space="preserve" fill-opacity="0.18824" fill="#ff0000"><tspan x="0" dy="0">N4LGAMES</tspan></text><text transform="translate(50.82565,264.33587) rotate(-33.73552) scale(0.5,0.5)" font-size="40" xml:space="preserve" fill-opacity="0.18824" fill="#ff0000"><tspan x="0" dy="0">N4LGAMES</tspan></text><text transform="translate(152.94593,211.78311) rotate(-33.73552) scale(0.5,0.5)" font-size="40" xml:space="preserve" fill-opacity="0.18824" fill="#ff0000"><tspan x="0" dy="0">N4LGAMES</tspan></text></g><g><text transform="translate(-36.9423,353.54265) rotate(-33.73552) scale(0.5,0.5)" font-size="40" xml:space="preserve" fill-opacity="0.18824" fill="#ff0000"><tspan x="0" dy="0">N4LGAMES</tspan></text><text transform="translate(65.89739,293.7958) rotate(-33.73552) scale(0.5,0.5)" font-size="40" xml:space="preserve" fill-opacity="0.18824" fill="#ff0000"><tspan x="0" dy="0">N4LGAMES</tspan></text><text transform="translate(168.01767,241.24304) rotate(-33.73552) scale(0.5,0.5)" font-size="40" xml:space="preserve" fill-opacity="0.18824" fill="#ff0000"><tspan x="0" dy="0">N4LGAMES</tspan></text></g></g><g fill-opacity="0.18824" fill="#ff0000" stroke-width="1" font-family="Sans Serif" font-weight="normal" font-size="40" text-anchor="start"><g><text transform="translate(217.83625,63.00882) rotate(-33.73552) scale(0.5,0.5)" font-size="40" xml:space="preserve" fill-opacity="0.18824" fill="#ff0000"><tspan x="0" dy="0">N4LGAMES</tspan></text><text transform="translate(320.67595,3.26197) rotate(-33.73552) scale(0.5,0.5)" font-size="40" xml:space="preserve" fill-opacity="0.18824" fill="#ff0000"><tspan x="0" dy="0">N4LGAMES</tspan></text><text transform="translate(422.79623,-49.29079) rotate(-33.73552) scale(0.5,0.5)" font-size="40" xml:space="preserve" fill-opacity="0.18824" fill="#ff0000"><tspan x="0" dy="0">N4LGAMES</tspan></text></g><g><text transform="translate(237.22445,81.6776) rotate(-33.73552) scale(0.5,0.5)" font-size="40" xml:space="preserve" fill-opacity="0.18824" fill="#ff0000"><tspan x="0" dy="0">N4LGAMES</tspan></text><text transform="translate(340.06414,21.93075) rotate(-33.73552) scale(0.5,0.5)" font-size="40" xml:space="preserve" fill-opacity="0.18824" fill="#ff0000"><tspan x="0" dy="0">N4LGAMES</tspan></text><text transform="translate(442.18442,-30.62201) rotate(-33.73552) scale(0.5,0.5)" font-size="40" xml:space="preserve" fill-opacity="0.18824" fill="#ff0000"><tspan x="0" dy="0">N4LGAMES</tspan></text></g><g><text transform="translate(255.17382,101.7852) rotate(-33.73552) scale(0.5,0.5)" font-size="40" xml:space="preserve" fill-opacity="0.18824" fill="#ff0000"><tspan x="0" dy="0">N4LGAMES</tspan></text><text transform="translate(358.01351,42.03835) rotate(-33.73552) scale(0.5,0.5)" font-size="40" xml:space="preserve" fill-opacity="0.18824" fill="#ff0000"><tspan x="0" dy="0">N4LGAMES</tspan></text><text transform="translate(460.13379,-10.51441) rotate(-33.73552) scale(0.5,0.5)" font-size="40" xml:space="preserve" fill-opacity="0.18824" fill="#ff0000"><tspan x="0" dy="0">N4LGAMES</tspan></text></g><g><text transform="translate(268.08732,129.8063) rotate(-33.73552) scale(0.5,0.5)" font-size="40" xml:space="preserve" fill-opacity="0.18824" fill="#ff0000"><tspan x="0" dy="0">N4LGAMES</tspan></text><text transform="translate(370.92701,70.05945) rotate(-33.73552) scale(0.5,0.5)" font-size="40" xml:space="preserve" fill-opacity="0.18824" fill="#ff0000"><tspan x="0" dy="0">N4LGAMES</tspan></text><text transform="translate(473.04729,17.50669) rotate(-33.73552) scale(0.5,0.5)" font-size="40" xml:space="preserve" fill-opacity="0.18824" fill="#ff0000"><tspan x="0" dy="0">N4LGAMES</tspan></text></g><g><text transform="translate(283.15905,159.26623) rotate(-33.73552) scale(0.5,0.5)" font-size="40" xml:space="preserve" fill-opacity="0.18824" fill="#ff0000"><tspan x="0" dy="0">N4LGAMES</tspan></text><text transform="translate(385.99874,99.51937) rotate(-33.73552) scale(0.5,0.5)" font-size="40" xml:space="preserve" fill-opacity="0.18824" fill="#ff0000"><tspan x="0" dy="0">N4LGAMES</tspan></text><text transform="translate(488.11902,46.96661) rotate(-33.73552) scale(0.5,0.5)" font-size="40" xml:space="preserve" fill-opacity="0.18824" fill="#ff0000"><tspan x="0" dy="0">N4LGAMES</tspan></text></g></g><g fill-opacity="0.18824" fill="#ff0000" stroke-width="1" font-family="Sans Serif" font-weight="normal" font-size="40" text-anchor="start"><g><text transform="translate(8.45222,379.51312) rotate(-33.73552) scale(0.5,0.5)" font-size="40" xml:space="preserve" fill-opacity="0.18824" fill="#ff0000"><tspan x="0" dy="0">N4LGAMES</tspan></text><text transform="translate(111.29192,319.76627) rotate(-33.73552) scale(0.5,0.5)" font-size="40" xml:space="preserve" fill-opacity="0.18824" fill="#ff0000"><tspan x="0" dy="0">N4LGAMES</tspan></text><text transform="translate(213.4122,267.21351) rotate(-33.73552) scale(0.5,0.5)" font-size="40" xml:space="preserve" fill-opacity="0.18824" fill="#ff0000"><tspan x="0" dy="0">N4LGAMES</tspan></text></g><g><text transform="translate(27.84042,398.18191) rotate(-33.73552) scale(0.5,0.5)" font-size="40" xml:space="preserve" fill-opacity="0.18824" fill="#ff0000"><tspan x="0" dy="0">N4LGAMES</tspan></text><text transform="translate(130.68011,338.43505) rotate(-33.73552) scale(0.5,0.5)" font-size="40" xml:space="preserve" fill-opacity="0.18824" fill="#ff0000"><tspan x="0" dy="0">N4LGAMES</tspan></text><text transform="translate(232.80039,285.88229) rotate(-33.73552) scale(0.5,0.5)" font-size="40" xml:space="preserve" fill-opacity="0.18824" fill="#ff0000"><tspan x="0" dy="0">N4LGAMES</tspan></text></g><g><text transform="translate(45.78979,418.28951) rotate(-33.73552) scale(0.5,0.5)" font-size="40" xml:space="preserve" fill-opacity="0.18824" fill="#ff0000"><tspan x="0" dy="0">N4LGAMES</tspan></text><text transform="translate(148.62948,358.54265) rotate(-33.73552) scale(0.5,0.5)" font-size="40" xml:space="preserve" fill-opacity="0.18824" fill="#ff0000"><tspan x="0" dy="0">N4LGAMES</tspan></text><text transform="translate(250.74976,305.98989) rotate(-33.73552) scale(0.5,0.5)" font-size="40" xml:space="preserve" fill-opacity="0.18824" fill="#ff0000"><tspan x="0" dy="0">N4LGAMES</tspan></text></g><g><text transform="translate(58.70329,446.31061) rotate(-33.73552) scale(0.5,0.5)" font-size="40" xml:space="preserve" fill-opacity="0.18824" fill="#ff0000"><tspan x="0" dy="0">N4LGAMES</tspan></text><text transform="translate(161.54298,386.56375) rotate(-33.73552) scale(0.5,0.5)" font-size="40" xml:space="preserve" fill-opacity="0.18824" fill="#ff0000"><tspan x="0" dy="0">N4LGAMES</tspan></text><text transform="translate(263.66326,334.01099) rotate(-33.73552) scale(0.5,0.5)" font-size="40" xml:space="preserve" fill-opacity="0.18824" fill="#ff0000"><tspan x="0" dy="0">N4LGAMES</tspan></text></g><g><text transform="translate(73.77502,475.77053) rotate(-33.73552) scale(0.5,0.5)" font-size="40" xml:space="preserve" fill-opacity="0.18824" fill="#ff0000"><tspan x="0" dy="0">N4LGAMES</tspan></text><text transform="translate(176.61471,416.02368) rotate(-33.73552) scale(0.5,0.5)" font-size="40" xml:space="preserve" fill-opacity="0.18824" fill="#ff0000"><tspan x="0" dy="0">N4LGAMES</tspan></text><text transform="translate(278.73499,363.47092) rotate(-33.73552) scale(0.5,0.5)" font-size="40" xml:space="preserve" fill-opacity="0.18824" fill="#ff0000"><tspan x="0" dy="0">N4LGAMES</tspan></text></g></g><g fill-opacity="0.18824" fill="#ff0000" stroke-width="1" font-family="Sans Serif" font-weight="normal" font-size="40" text-anchor="start"><g><text transform="translate(315.60421,190.27256) rotate(-33.73552) scale(0.5,0.5)" font-size="40" xml:space="preserve" fill-opacity="0.18824" fill="#ff0000"><tspan x="0" dy="0">N4LGAMES</tspan></text><text transform="translate(418.4439,130.52571) rotate(-33.73552) scale(0.5,0.5)" font-size="40" xml:space="preserve" fill-opacity="0.18824" fill="#ff0000"><tspan x="0" dy="0">N4LGAMES</tspan></text><text transform="translate(520.56418,77.97295) rotate(-33.73552) scale(0.5,0.5)" font-size="40" xml:space="preserve" fill-opacity="0.18824" fill="#ff0000"><tspan x="0" dy="0">N4LGAMES</tspan></text></g><g><text transform="translate(334.9924,208.94135) rotate(-33.73552) scale(0.5,0.5)" font-size="40" xml:space="preserve" fill-opacity="0.18824" fill="#ff0000"><tspan x="0" dy="0">N4LGAMES</tspan></text><text transform="translate(437.83209,149.19449) rotate(-33.73552) scale(0.5,0.5)" font-size="40" xml:space="preserve" fill-opacity="0.18824" fill="#ff0000"><tspan x="0" dy="0">N4LGAMES</tspan></text><text transform="translate(539.95237,96.64173) rotate(-33.73552) scale(0.5,0.5)" font-size="40" xml:space="preserve" fill-opacity="0.18824" fill="#ff0000"><tspan x="0" dy="0">N4LGAMES</tspan></text></g><g><text transform="translate(352.94177,229.04895) rotate(-33.73552) scale(0.5,0.5)" font-size="40" xml:space="preserve" fill-opacity="0.18824" fill="#ff0000"><tspan x="0" dy="0">N4LGAMES</tspan></text><text transform="translate(455.78146,169.30209) rotate(-33.73552) scale(0.5,0.5)" font-size="40" xml:space="preserve" fill-opacity="0.18824" fill="#ff0000"><tspan x="0" dy="0">N4LGAMES</tspan></text><text transform="translate(557.90174,116.74933) rotate(-33.73552) scale(0.5,0.5)" font-size="40" xml:space="preserve" fill-opacity="0.18824" fill="#ff0000"><tspan x="0" dy="0">N4LGAMES</tspan></text></g><g><text transform="translate(365.85527,257.07005) rotate(-33.73552) scale(0.5,0.5)" font-size="40" xml:space="preserve" fill-opacity="0.18824" fill="#ff0000"><tspan x="0" dy="0">N4LGAMES</tspan></text><text transform="translate(468.69496,197.32319) rotate(-33.73552) scale(0.5,0.5)" font-size="40" xml:space="preserve" fill-opacity="0.18824" fill="#ff0000"><tspan x="0" dy="0">N4LGAMES</tspan></text><text transform="translate(570.81524,144.77043) rotate(-33.73552) scale(0.5,0.5)" font-size="40" xml:space="preserve" fill-opacity="0.18824" fill="#ff0000"><tspan x="0" dy="0">N4LGAMES</tspan></text></g><g><text transform="translate(380.92701,286.52997) rotate(-33.73552) scale(0.5,0.5)" font-size="40" xml:space="preserve" fill-opacity="0.18824" fill="#ff0000"><tspan x="0" dy="0">N4LGAMES</tspan></text><text transform="translate(483.7667,226.78312) rotate(-33.73552) scale(0.5,0.5)" font-size="40" xml:space="preserve" fill-opacity="0.18824" fill="#ff0000"><tspan x="0" dy="0">N4LGAMES</tspan></text><text transform="translate(585.88698,174.23036) rotate(-33.73552) scale(0.5,0.5)" font-size="40" xml:space="preserve" fill-opacity="0.18824" fill="#ff0000"><tspan x="0" dy="0">N4LGAMES</tspan></text></g></g><g fill-opacity="0.18824" fill="#ff0000" stroke-width="1" font-family="Sans Serif" font-weight="normal" font-size="40" text-anchor="start"><g><text transform="translate(373.1211,341.31269) rotate(-33.73552) scale(0.5,0.5)" font-size="40" xml:space="preserve" fill-opacity="0.18824" fill="#ff0000"><tspan x="0" dy="0">N4LGAMES</tspan></text><text transform="translate(475.9608,281.56584) rotate(-33.73552) scale(0.5,0.5)" font-size="40" xml:space="preserve" fill-opacity="0.18824" fill="#ff0000"><tspan x="0" dy="0">N4LGAMES</tspan></text><text transform="translate(578.08108,229.01308) rotate(-33.73552) scale(0.5,0.5)" font-size="40" xml:space="preserve" fill-opacity="0.18824" fill="#ff0000"><tspan x="0" dy="0">N4LGAMES</tspan></text></g><g><text transform="translate(392.5093,359.98148) rotate(-33.73552) scale(0.5,0.5)" font-size="40" xml:space="preserve" fill-opacity="0.18824" fill="#ff0000"><tspan x="0" dy="0">N4LGAMES</tspan></text><text transform="translate(495.34899,300.23462) rotate(-33.73552) scale(0.5,0.5)" font-size="40" xml:space="preserve" fill-opacity="0.18824" fill="#ff0000"><tspan x="0" dy="0">N4LGAMES</tspan></text><text transform="translate(597.46927,247.68186) rotate(-33.73552) scale(0.5,0.5)" font-size="40" xml:space="preserve" fill-opacity="0.18824" fill="#ff0000"><tspan x="0" dy="0">N4LGAMES</tspan></text></g><g><text transform="translate(410.45867,380.08908) rotate(-33.73552) scale(0.5,0.5)" font-size="40" xml:space="preserve" fill-opacity="0.18824" fill="#ff0000"><tspan x="0" dy="0">N4LGAMES</tspan></text><text transform="translate(513.29836,320.34222) rotate(-33.73552) scale(0.5,0.5)" font-size="40" xml:space="preserve" fill-opacity="0.18824" fill="#ff0000"><tspan x="0" dy="0">N4LGAMES</tspan></text><text transform="translate(615.41864,267.78946) rotate(-33.73552) scale(0.5,0.5)" font-size="40" xml:space="preserve" fill-opacity="0.18824" fill="#ff0000"><tspan x="0" dy="0">N4LGAMES</tspan></text></g><g><text transform="translate(423.37217,408.11018) rotate(-33.73552) scale(0.5,0.5)" font-size="40" xml:space="preserve" fill-opacity="0.18824" fill="#ff0000"><tspan x="0" dy="0">N4LGAMES</tspan></text><text transform="translate(526.21186,348.36332) rotate(-33.73552) scale(0.5,0.5)" font-size="40" xml:space="preserve" fill-opacity="0.18824" fill="#ff0000"><tspan x="0" dy="0">N4LGAMES</tspan></text><text transform="translate(628.33214,295.81056) rotate(-33.73552) scale(0.5,0.5)" font-size="40" xml:space="preserve" fill-opacity="0.18824" fill="#ff0000"><tspan x="0" dy="0">N4LGAMES</tspan></text></g><g><text transform="translate(438.4439,437.5701) rotate(-33.73552) scale(0.5,0.5)" font-size="40" xml:space="preserve" fill-opacity="0.18824" fill="#ff0000"><tspan x="0" dy="0">N4LGAMES</tspan></text><text transform="translate(541.28359,377.82325) rotate(-33.73552) scale(0.5,0.5)" font-size="40" xml:space="preserve" fill-opacity="0.18824" fill="#ff0000"><tspan x="0" dy="0">N4LGAMES</tspan></text><text transform="translate(643.40387,325.27049) rotate(-33.73552) scale(0.5,0.5)" font-size="40" xml:space="preserve" fill-opacity="0.18824" fill="#ff0000"><tspan x="0" dy="0">N4LGAMES</tspan></text></g></g></g></g></svg>